STARTFONT 2.1
FONT -Baekmuk-Batang-Medium-R-Normal--10-100-75-75-M-100-ksx1001.1997-0
SIZE 10 75 75
FONTBOUNDINGBOX 10 10 0 -1
STARTPROPERTIES 18
FOUNDRY "Baekmuk"
FAMILY_NAME "Batang"
WEIGHT_NAME "Medium"
SLANT "R"
SETWIDTH_NAME "Normal"
ADD_STYLE_NAME ""
PIXEL_SIZE 10
POINT_SIZE 100
RESOLUTION_X 75
RESOLUTION_Y 75
SPACING "M"
AVERAGE_WIDTH 100
CHARSET_REGISTRY "ksx1001.1997"
CHARSET_ENCODING "0"
DEFAULT_CHAR 8481
FONT_ASCENT 9
FONT_DESCENT 1
COPYRIGHT "(c)Hwan Design Inc. and Mizi Research Inc."
ENDPROPERTIES
CHARS 8742
STARTCHAR char8481
ENCODING 8481
SWIDTH 1000 0
DWIDTH 10 0
BBX 0 0 0 0
BITMAP
ENDCHAR
STARTCHAR char8482
ENCODING 8482
SWIDTH 1000 0
DWIDTH 10 0
BBX 2 2 7 7
BITMAP
C0
40
ENDCHAR
STARTCHAR char8483
ENCODING 8483
SWIDTH 1000 0
DWIDTH 10 0
BBX 2 2 7 7
BITMAP
C0
C0
ENDCHAR
STARTCHAR char8484
ENCODING 8484
SWIDTH 1000 0
DWIDTH 10 0
BBX 1 1 4 4
BITMAP
80
ENDCHAR
STARTCHAR char8485
ENCODING 8485
SWIDTH 1000 0
DWIDTH 10 0
BBX 7 1 1 4
BITMAP
C6
ENDCHAR
STARTCHAR char8486
ENCODING 8486
SWIDTH 1000 0
DWIDTH 10 0
BBX 7 1 1 4
BITMAP
92
ENDCHAR
STARTCHAR char8487
ENCODING 8487
SWIDTH 1000 0
DWIDTH 10 0
BBX 5 1 2 8
BITMAP
88
ENDCHAR
STARTCHAR char8488
ENCODING 8488
SWIDTH 1000 0
DWIDTH 10 0
BBX 5 2 2 4
BITMAP
78
F0
ENDCHAR
STARTCHAR char8489
ENCODING 8489
SWIDTH 1000 0
DWIDTH 10 0
BBX 5 1 2 4
BITMAP
F8
ENDCHAR
STARTCHAR char8490
ENCODING 8490
SWIDTH 1000 0
DWIDTH 10 0
BBX 10 1 0 4
BITMAP
FFC0
ENDCHAR
STARTCHAR char8491
ENCODING 8491
SWIDTH 1000 0
DWIDTH 10 0
BBX 3 7 3 1
BITMAP
A0
A0
A0
A0
A0
A0
A0
ENDCHAR
STARTCHAR char8492
ENCODING 8492
SWIDTH 1000 0
DWIDTH 10 0
BBX 8 8 0 0
BITMAP
80
40
20
10
08
04
02
01
ENDCHAR
STARTCHAR char8493
ENCODING 8493
SWIDTH 1000 0
DWIDTH 10 0
BBX 7 2 1 4
BITMAP
62
9C
ENDCHAR
STARTCHAR char8494
ENCODING 8494
SWIDTH 1000 0
DWIDTH 10 0
BBX 1 3 8 6
BITMAP
80
80
80
ENDCHAR
STARTCHAR char8495
ENCODING 8495
SWIDTH 1000 0
DWIDTH 10 0
BBX 2 3 0 6
BITMAP
C0
40
80
ENDCHAR
STARTCHAR char8496
ENCODING 8496
SWIDTH 1000 0
DWIDTH 10 0
BBX 3 3 6 6
BITMAP
A0
A0
A0
ENDCHAR
STARTCHAR char8497
ENCODING 8497
SWIDTH 1000 0
DWIDTH 10 0
BBX 4 3 0 6
BITMAP
F0
50
A0
ENDCHAR
STARTCHAR char8498
ENCODING 8498
SWIDTH 1000 0
DWIDTH 10 0
BBX 2 9 7 0
BITMAP
C0
80
80
80
80
80
80
80
C0
ENDCHAR
STARTCHAR char8499
ENCODING 8499
SWIDTH 1000 0
DWIDTH 10 0
BBX 2 9 0 0
BITMAP
C0
40
40
40
40
40
40
40
C0
ENDCHAR
STARTCHAR char8500
ENCODING 8500
SWIDTH 1000 0
DWIDTH 10 0
BBX 5 9 4 0
BITMAP
08
10
20
40
80
40
20
10
08
ENDCHAR
STARTCHAR char8501
ENCODING 8501
SWIDTH 1000 0
DWIDTH 10 0
BBX 5 9 0 0
BITMAP
80
40
20
10
08
10
20
40
80
ENDCHAR
STARTCHAR char8502
ENCODING 8502
SWIDTH 1000 0
DWIDTH 10 0
BBX 7 9 3 0
BITMAP
0A
14
28
50
A0
50
28
14
0A
ENDCHAR
STARTCHAR char8503
ENCODING 8503
SWIDTH 1000 0
DWIDTH 10 0
BBX 7 9 0 0
BITMAP
A0
50
28
14
0A
14
28
50
A0
ENDCHAR
STARTCHAR char8504
ENCODING 8504
SWIDTH 1000 0
DWIDTH 10 0
BBX 1 4 6 5
BITMAP
80
80
80
80
ENDCHAR
STARTCHAR char8505
ENCODING 8505
SWIDTH 1000 0
DWIDTH 10 0
BBX 4 5 0 0
BITMAP
10
10
10
10
F0
ENDCHAR
STARTCHAR char8506
ENCODING 8506
SWIDTH 1000 0
DWIDTH 10 0
BBX 4 4 6 5
BITMAP
F0
C0
C0
C0
ENDCHAR
STARTCHAR char8507
ENCODING 8507
SWIDTH 1000 0
DWIDTH 10 0
BBX 4 5 0 0
BITMAP
30
30
30
F0
F0
ENDCHAR
STARTCHAR char8508
ENCODING 8508
SWIDTH 1000 0
DWIDTH 10 0
BBX 3 9 6 0
BITMAP
E0
C0
C0
C0
C0
C0
C0
C0
E0
ENDCHAR
STARTCHAR char8509
ENCODING 8509
SWIDTH 1000 0
DWIDTH 10 0
BBX 3 9 0 0
BITMAP
E0
60
20
20
20
20
20
60
E0
ENDCHAR
STARTCHAR char8510
ENCODING 8510
SWIDTH 1000 0
DWIDTH 10 0
BBX 7 8 1 1
BITMAP
10
10
10
FE
10
10
00
FE
ENDCHAR
STARTCHAR char8511
ENCODING 8511
SWIDTH 1000 0
DWIDTH 10 0
BBX 5 5 2 2
BITMAP
88
50
20
50
88
ENDCHAR
STARTCHAR char8512
ENCODING 8512
SWIDTH 1000 0
DWIDTH 10 0
BBX 8 7 1 1
BITMAP
18
00
00
FF
00
18
10
ENDCHAR
STARTCHAR char8513
ENCODING 8513
SWIDTH 1000 0
DWIDTH 10 0
BBX 7 7 1 1
BITMAP
80
40
FE
10
FE
04
02
ENDCHAR
STARTCHAR char8514
ENCODING 8514
SWIDTH 1000 0
DWIDTH 10 0
BBX 7 7 1 1
BITMAP
0E
30
C0
30
0E
00
FE
ENDCHAR
STARTCHAR char8515
ENCODING 8515
SWIDTH 1000 0
DWIDTH 10 0
BBX 7 7 1 1
BITMAP
E0
18
06
18
E0
00
FE
ENDCHAR
STARTCHAR char8516
ENCODING 8516
SWIDTH 1000 0
DWIDTH 10 0
BBX 9 5 0 2
BITMAP
6300
D580
8880
D580
6300
ENDCHAR
STARTCHAR char8517
ENCODING 8517
SWIDTH 1000 0
DWIDTH 10 0
BBX 7 6 1 2
BITMAP
10
10
00
00
82
82
ENDCHAR
STARTCHAR char8518
ENCODING 8518
SWIDTH 1000 0
DWIDTH 10 0
BBX 3 2 0 7
BITMAP
E0
E0
ENDCHAR
STARTCHAR char8519
ENCODING 8519
SWIDTH 1000 0
DWIDTH 10 0
BBX 2 2 0 7
BITMAP
C0
80
ENDCHAR
STARTCHAR char8520
ENCODING 8520
SWIDTH 1000 0
DWIDTH 10 0
BBX 5 2 0 7
BITMAP
D8
B0
ENDCHAR
STARTCHAR char8521
ENCODING 8521
SWIDTH 1000 0
DWIDTH 10 0
BBX 8 8 1 1
BITMAP
C0
DF
23
21
20
20
33
1E
ENDCHAR
STARTCHAR char8522
ENCODING 8522
SWIDTH 1000 0
DWIDTH 10 0
BBX 7 8 1 1
BITMAP
28
18
18
38
2C
7C
46
C6
ENDCHAR
STARTCHAR char8523
ENCODING 8523
SWIDTH 1000 0
DWIDTH 10 0
BBX 6 9 2 0
BITMAP
08
7C
9C
90
A0
A0
CC
78
80
ENDCHAR
STARTCHAR char8524
ENCODING 8524
SWIDTH 1000 0
DWIDTH 10 0
BBX 7 8 1 1
BITMAP
18
24
20
20
FC
20
72
7C
ENDCHAR
STARTCHAR char8525
ENCODING 8525
SWIDTH 1000 0
DWIDTH 10 0
BBX 8 7 1 1
BITMAP
E7
64
38
FE
FE
10
38
ENDCHAR
STARTCHAR char8526
ENCODING 8526
SWIDTH 1000 0
DWIDTH 10 0
BBX 6 9 2 0
BITMAP
30
78
AC
20
20
70
48
58
30
ENDCHAR
STARTCHAR char8527
ENCODING 8527
SWIDTH 1000 0
DWIDTH 10 0
BBX 7 9 1 0
BITMAP
38
24
2C
18
10
FE
10
10
10
ENDCHAR
STARTCHAR char8528
ENCODING 8528
SWIDTH 1000 0
DWIDTH 10 0
BBX 8 7 0 1
BITMAP
02
04
08
10
20
40
FF
ENDCHAR
STARTCHAR char8529
ENCODING 8529
SWIDTH 1000 0
DWIDTH 10 0
BBX 8 6 1 2
BITMAP
10
10
10
10
10
FF
ENDCHAR
STARTCHAR char8530
ENCODING 8530
SWIDTH 1000 0
DWIDTH 10 0
BBX 5 2 2 7
BITMAP
F8
88
ENDCHAR
STARTCHAR char8531
ENCODING 8531
SWIDTH 1000 0
DWIDTH 10 0
BBX 5 8 2 1
BITMAP
30
58
08
78
48
98
90
60
ENDCHAR
STARTCHAR char8532
ENCODING 8532
SWIDTH 1000 0
DWIDTH 10 0
BBX 8 8 1 0
BITMAP
FF
81
42
42
24
24
18
10
ENDCHAR
STARTCHAR char8533
ENCODING 8533
SWIDTH 1000 0
DWIDTH 10 0
BBX 7 5 1 2
BITMAP
FE
00
FE
00
FE
ENDCHAR
STARTCHAR char8534
ENCODING 8534
SWIDTH 1000 0
DWIDTH 10 0
BBX 7 8 1 1
BITMAP
40
40
00
FE
00
FE
00
06
ENDCHAR
STARTCHAR char8535
ENCODING 8535
SWIDTH 1000 0
DWIDTH 10 0
BBX 5 9 2 0
BITMAP
D0
90
60
D0
88
70
18
48
70
ENDCHAR
STARTCHAR char8536
ENCODING 8536
SWIDTH 1000 0
DWIDTH 10 0
BBX 7 7 1 1
BITMAP
92
54
28
D6
28
54
92
ENDCHAR
STARTCHAR char8537
ENCODING 8537
SWIDTH 1000 0
DWIDTH 10 0
BBX 9 8 0 1
BITMAP
0800
0C00
1400
F380
2300
3200
3F00
6300
ENDCHAR
STARTCHAR char8538
ENCODING 8538
SWIDTH 1000 0
DWIDTH 10 0
BBX 9 8 0 1
BITMAP
0800
0C00
1C00
FF80
3F00
3E00
3F00
7300
ENDCHAR
STARTCHAR char8539
ENCODING 8539
SWIDTH 1000 0
DWIDTH 10 0
BBX 9 9 0 0
BITMAP
1C00
6300
4100
8080
8080
8080
4100
6300
1C00
ENDCHAR
STARTCHAR char8540
ENCODING 8540
SWIDTH 1000 0
DWIDTH 10 0
BBX 9 9 0 0
BITMAP
1C00
7F00
7F00
FF80
FF80
FF80
7F00
7F00
1C00
ENDCHAR
STARTCHAR char8541
ENCODING 8541
SWIDTH 1000 0
DWIDTH 10 0
BBX 9 9 0 0
BITMAP
1C00
6300
5D00
B680
A280
B680
5900
6300
1C00
ENDCHAR
STARTCHAR char8542
ENCODING 8542
SWIDTH 1000 0
DWIDTH 10 0
BBX 9 9 0 0
BITMAP
0C00
1600
2300
4180
C080
6100
3200
1C00
0800
ENDCHAR
STARTCHAR char8543
ENCODING 8543
SWIDTH 1000 0
DWIDTH 10 0
BBX 9 9 0 0
BITMAP
0C00
1E00
3F00
7F80
FF80
7F00
3E00
1C00
0800
ENDCHAR
STARTCHAR char8544
ENCODING 8544
SWIDTH 1000 0
DWIDTH 10 0
BBX 9 9 0 0
BITMAP
FF80
8080
8080
8080
8080
8080
8080
8080
FF80
ENDCHAR
STARTCHAR char8545
ENCODING 8545
SWIDTH 1000 0
DWIDTH 10 0
BBX 9 9 0 0
BITMAP
FF80
FF80
FF80
FF80
FF80
FF80
FF80
FF80
FF80
ENDCHAR
STARTCHAR char8546
ENCODING 8546
SWIDTH 1000 0
DWIDTH 10 0
BBX 8 8 1 1
BITMAP
10
18
38
2C
64
46
C2
FF
ENDCHAR
STARTCHAR char8547
ENCODING 8547
SWIDTH 1000 0
DWIDTH 10 0
BBX 8 8 1 1
BITMAP
10
18
38
3C
7C
7E
FE
FF
ENDCHAR
STARTCHAR char8548
ENCODING 8548
SWIDTH 1000 0
DWIDTH 10 0
BBX 8 8 1 0
BITMAP
FF
C2
46
64
2C
38
18
10
ENDCHAR
STARTCHAR char8549
ENCODING 8549
SWIDTH 1000 0
DWIDTH 10 0
BBX 8 8 1 0
BITMAP
FF
FE
7E
7C
3C
38
18
10
ENDCHAR
STARTCHAR char8550
ENCODING 8550
SWIDTH 1000 0
DWIDTH 10 0
BBX 10 5 0 2
BITMAP
0100
0180
FFC0
0180
0100
ENDCHAR
STARTCHAR char8551
ENCODING 8551
SWIDTH 1000 0
DWIDTH 10 0
BBX 10 5 0 2
BITMAP
2000
6000
FFC0
6000
2000
ENDCHAR
STARTCHAR char8552
ENCODING 8552
SWIDTH 1000 0
DWIDTH 10 0
BBX 5 9 2 0
BITMAP
20
70
A8
20
20
20
20
20
20
ENDCHAR
STARTCHAR char8553
ENCODING 8553
SWIDTH 1000 0
DWIDTH 10 0
BBX 5 9 2 0
BITMAP
20
20
20
20
20
20
A8
70
20
ENDCHAR
STARTCHAR char8554
ENCODING 8554
SWIDTH 1000 0
DWIDTH 10 0
BBX 10 5 0 2
BITMAP
2100
6180
FFC0
6180
2100
ENDCHAR
STARTCHAR char8555
ENCODING 8555
SWIDTH 1000 0
DWIDTH 10 0
BBX 10 4 0 3
BITMAP
FFC0
0000
0000
FFC0
ENDCHAR
STARTCHAR char8556
ENCODING 8556
SWIDTH 1000 0
DWIDTH 10 0
BBX 9 8 1 1
BITMAP
0100
0780
1F00
7C00
F800
3E00
0F80
0300
ENDCHAR
STARTCHAR char8557
ENCODING 8557
SWIDTH 1000 0
DWIDTH 10 0
BBX 9 8 0 1
BITMAP
C000
F000
7C00
1F00
0F80
3C00
F000
E000
ENDCHAR
STARTCHAR char8558
ENCODING 8558
SWIDTH 1000 0
DWIDTH 10 0
BBX 5 9 0 0
BITMAP
08
08
18
50
50
F0
30
20
20
ENDCHAR
STARTCHAR char8559
ENCODING 8559
SWIDTH 1000 0
DWIDTH 10 0
BBX 9 5 0 2
BITMAP
6300
C580
8880
D180
6300
ENDCHAR
STARTCHAR char8560
ENCODING 8560
SWIDTH 1000 0
DWIDTH 10 0
BBX 9 5 0 2
BITMAP
7380
9400
8C00
9400
7380
ENDCHAR
STARTCHAR char8561
ENCODING 8561
SWIDTH 1000 0
DWIDTH 10 0
BBX 7 5 1 2
BITMAP
82
00
00
00
10
ENDCHAR
STARTCHAR char8562
ENCODING 8562
SWIDTH 1000 0
DWIDTH 10 0
BBX 3 9 3 0
BITMAP
60
A0
80
40
40
40
20
A0
C0
ENDCHAR
STARTCHAR char8563
ENCODING 8563
SWIDTH 1000 0
DWIDTH 10 0
BBX 5 9 2 0
BITMAP
78
A8
A0
50
50
50
28
A8
F0
ENDCHAR
STARTCHAR char8564
ENCODING 8564
SWIDTH 1000 0
DWIDTH 10 0
BBX 7 6 1 2
BITMAP
7E
80
80
FE
80
7E
ENDCHAR
STARTCHAR char8565
ENCODING 8565
SWIDTH 1000 0
DWIDTH 10 0
BBX 7 6 1 2
BITMAP
FC
02
02
FE
02
FE
ENDCHAR
STARTCHAR char8566
ENCODING 8566
SWIDTH 1000 0
DWIDTH 10 0
BBX 7 7 1 1
BITMAP
7E
80
80
7E
00
00
FE
ENDCHAR
STARTCHAR char8567
ENCODING 8567
SWIDTH 1000 0
DWIDTH 10 0
BBX 7 7 1 1
BITMAP
FE
02
02
FE
00
00
FE
ENDCHAR
STARTCHAR char8568
ENCODING 8568
SWIDTH 1000 0
DWIDTH 10 0
BBX 7 6 1 2
BITMAP
7E
C0
80
80
80
7E
ENDCHAR
STARTCHAR char8569
ENCODING 8569
SWIDTH 1000 0
DWIDTH 10 0
BBX 7 6 1 2
BITMAP
FC
02
02
02
02
FE
ENDCHAR
STARTCHAR char8570
ENCODING 8570
SWIDTH 1000 0
DWIDTH 10 0
BBX 6 7 2 1
BITMAP
84
84
84
84
84
8C
78
ENDCHAR
STARTCHAR char8571
ENCODING 8571
SWIDTH 1000 0
DWIDTH 10 0
BBX 6 7 2 1
BITMAP
F8
84
84
84
84
84
84
ENDCHAR
STARTCHAR char8572
ENCODING 8572
SWIDTH 1000 0
DWIDTH 10 0
BBX 7 7 1 1
BITMAP
10
18
28
24
44
42
82
ENDCHAR
STARTCHAR char8573
ENCODING 8573
SWIDTH 1000 0
DWIDTH 10 0
BBX 7 7 1 1
BITMAP
82
42
44
24
28
18
10
ENDCHAR
STARTCHAR char8574
ENCODING 8574
SWIDTH 1000 0
DWIDTH 10 0
BBX 8 4 1 5
BITMAP
FF
01
01
01
ENDCHAR
STARTCHAR char8737
ENCODING 8737
SWIDTH 1000 0
DWIDTH 10 0
BBX 9 8 0 1
BITMAP
0400
0200
FF00
0080
0080
FF00
0200
0400
ENDCHAR
STARTCHAR char8738
ENCODING 8738
SWIDTH 1000 0
DWIDTH 10 0
BBX 9 6 0 2
BITMAP
2200
7F00
8080
8080
7F00
2200
ENDCHAR
STARTCHAR char8739
ENCODING 8739
SWIDTH 1000 0
DWIDTH 10 0
BBX 7 9 1 0
BITMAP
82
82
82
7C
44
28
28
10
10
ENDCHAR
STARTCHAR char8740
ENCODING 8740
SWIDTH 1000 0
DWIDTH 10 0
BBX 7 7 1 1
BITMAP
FE
02
02
FE
02
02
FE
ENDCHAR
STARTCHAR char8741
ENCODING 8741
SWIDTH 1000 0
DWIDTH 10 0
BBX 3 2 3 7
BITMAP
60
80
ENDCHAR
STARTCHAR char8742
ENCODING 8742
SWIDTH 1000 0
DWIDTH 10 0
BBX 5 2 2 7
BITMAP
E8
B8
ENDCHAR
STARTCHAR char8743
ENCODING 8743
SWIDTH 1000 0
DWIDTH 10 0
BBX 4 2 3 7
BITMAP
B0
60
ENDCHAR
STARTCHAR char8744
ENCODING 8744
SWIDTH 1000 0
DWIDTH 10 0
BBX 4 2 3 7
BITMAP
90
E0
ENDCHAR
STARTCHAR char8745
ENCODING 8745
SWIDTH 1000 0
DWIDTH 10 0
BBX 4 2 3 7
BITMAP
F0
A0
ENDCHAR
STARTCHAR char8746
ENCODING 8746
SWIDTH 1000 0
DWIDTH 10 0
BBX 3 2 3 7
BITMAP
E0
E0
ENDCHAR
STARTCHAR char8747
ENCODING 8747
SWIDTH 1000 0
DWIDTH 10 0
BBX 1 1 4 8
BITMAP
80
ENDCHAR
STARTCHAR char8748
ENCODING 8748
SWIDTH 1000 0
DWIDTH 10 0
BBX 3 3 3 0
BITMAP
60
60
E0
ENDCHAR
STARTCHAR char8749
ENCODING 8749
SWIDTH 1000 0
DWIDTH 10 0
BBX 3 3 3 0
BITMAP
40
80
E0
ENDCHAR
STARTCHAR char8750
ENCODING 8750
SWIDTH 1000 0
DWIDTH 10 0
BBX 1 8 4 1
BITMAP
80
80
80
80
80
80
80
80
ENDCHAR
STARTCHAR char8751
ENCODING 8751
SWIDTH 1000 0
DWIDTH 10 0
BBX 4 9 3 0
BITMAP
20
20
20
20
40
80
80
B0
60
ENDCHAR
STARTCHAR char8752
ENCODING 8752
SWIDTH 1000 0
DWIDTH 10 0
BBX 3 6 3 2
BITMAP
E0
60
00
00
40
E0
ENDCHAR
STARTCHAR char8753
ENCODING 8753
SWIDTH 1000 0
DWIDTH 10 0
BBX 6 9 1 0
BITMAP
0C
18
10
38
38
30
20
A0
40
ENDCHAR
STARTCHAR char8754
ENCODING 8754
SWIDTH 1000 0
DWIDTH 10 0
BBX 7 7 1 1
BITMAP
FE
42
22
10
30
42
FE
ENDCHAR
STARTCHAR char8755
ENCODING 8755
SWIDTH 1000 0
DWIDTH 10 0
BBX 7 7 1 1
BITMAP
FE
44
44
44
44
44
EE
ENDCHAR
STARTCHAR char8756
ENCODING 8756
SWIDTH 1000 0
DWIDTH 10 0
BBX 7 8 1 1
BITMAP
82
FE
44
82
82
C6
7C
82
ENDCHAR
STARTCHAR char8757
ENCODING 8757
SWIDTH 1000 0
DWIDTH 10 0
BBX 9 8 0 1
BITMAP
1F00
E980
E880
0900
0F00
0900
0800
1C00
ENDCHAR
STARTCHAR char8758
ENCODING 8758
SWIDTH 1000 0
DWIDTH 10 0
BBX 9 9 0 0
BITMAP
2000
5200
7400
4800
1000
2980
5680
9E80
1100
ENDCHAR
STARTCHAR char8759
ENCODING 8759
SWIDTH 1000 0
DWIDTH 10 0
BBX 8 8 0 1
BITMAP
01
07
1D
71
C1
39
0F
03
ENDCHAR
STARTCHAR char8760
ENCODING 8760
SWIDTH 1000 0
DWIDTH 10 0
BBX 8 8 0 1
BITMAP
01
07
1F
7F
FF
3F
0F
03
ENDCHAR
STARTCHAR char8761
ENCODING 8761
SWIDTH 1000 0
DWIDTH 10 0
BBX 8 8 1 1
BITMAP
80
E0
B8
8E
87
98
F0
C0
ENDCHAR
STARTCHAR char8762
ENCODING 8762
SWIDTH 1000 0
DWIDTH 10 0
BBX 8 8 1 1
BITMAP
80
E0
F8
FE
FF
FC
F0
C0
ENDCHAR
STARTCHAR char8763
ENCODING 8763
SWIDTH 1000 0
DWIDTH 10 0
BBX 8 9 1 0
BITMAP
18
2C
46
82
81
9B
FE
28
3C
ENDCHAR
STARTCHAR char8764
ENCODING 8764
SWIDTH 1000 0
DWIDTH 10 0
BBX 8 9 1 0
BITMAP
18
3C
7E
FE
FF
FF
FE
38
3C
ENDCHAR
STARTCHAR char8765
ENCODING 8765
SWIDTH 1000 0
DWIDTH 10 0
BBX 8 9 1 0
BITMAP
66
BB
91
81
82
42
64
38
10
ENDCHAR
STARTCHAR char8766
ENCODING 8766
SWIDTH 1000 0
DWIDTH 10 0
BBX 8 9 1 0
BITMAP
66
FF
FF
FF
FE
7E
7C
38
10
ENDCHAR
STARTCHAR char8767
ENCODING 8767
SWIDTH 1000 0
DWIDTH 10 0
BBX 9 9 0 0
BITMAP
1E00
2200
3200
7780
8080
9C80
7F80
1400
1E00
ENDCHAR
STARTCHAR char8768
ENCODING 8768
SWIDTH 1000 0
DWIDTH 10 0
BBX 9 9 0 0
BITMAP
1E00
3E00
3E00
7F80
FF80
FF80
7F80
1C00
1E00
ENDCHAR
STARTCHAR char8769
ENCODING 8769
SWIDTH 1000 0
DWIDTH 10 0
BBX 9 9 0 0
BITMAP
1C00
6300
4100
9C80
9C80
9C80
4100
6300
1C00
ENDCHAR
STARTCHAR char8770
ENCODING 8770
SWIDTH 1000 0
DWIDTH 10 0
BBX 10 9 0 0
BITMAP
0C00
1200
2D00
5E80
BF40
5E80
2D00
1200
0C00
ENDCHAR
STARTCHAR char8771
ENCODING 8771
SWIDTH 1000 0
DWIDTH 10 0
BBX 9 9 0 0
BITMAP
FF80
8080
BE80
BE80
BE80
BE80
BE80
8080
FF80
ENDCHAR
STARTCHAR char8772
ENCODING 8772
SWIDTH 1000 0
DWIDTH 10 0
BBX 9 9 0 0
BITMAP
3E00
7900
7880
F880
F880
F880
7980
3B00
1C00
ENDCHAR
STARTCHAR char8773
ENCODING 8773
SWIDTH 1000 0
DWIDTH 10 0
BBX 9 9 0 0
BITMAP
3E00
6F00
4F80
8F80
8F80
CF80
4F80
3F00
1C00
ENDCHAR
STARTCHAR char8774
ENCODING 8774
SWIDTH 1000 0
DWIDTH 10 0
BBX 9 9 0 0
BITMAP
FF80
AA80
8080
D580
AA80
8080
D580
AA80
FF80
ENDCHAR
STARTCHAR char8775
ENCODING 8775
SWIDTH 1000 0
DWIDTH 10 0
BBX 9 9 0 0
BITMAP
FF80
8080
FF80
8080
FF80
8080
FF80
8080
FF80
ENDCHAR
STARTCHAR char8776
ENCODING 8776
SWIDTH 1000 0
DWIDTH 10 0
BBX 9 9 0 0
BITMAP
FF80
AA80
AA80
AA80
AA80
AA80
AA80
AA80
FF80
ENDCHAR
STARTCHAR char8777
ENCODING 8777
SWIDTH 1000 0
DWIDTH 10 0
BBX 9 9 0 0
BITMAP
FF80
9980
A280
C480
C980
9380
A480
C880
FF80
ENDCHAR
STARTCHAR char8778
ENCODING 8778
SWIDTH 1000 0
DWIDTH 10 0
BBX 9 9 0 0
BITMAP
FF80
C880
A480
9280
C980
A480
9280
8980
FF80
ENDCHAR
STARTCHAR char8779
ENCODING 8779
SWIDTH 1000 0
DWIDTH 10 0
BBX 9 9 0 0
BITMAP
FF80
AA80
FF80
AA80
FF80
AA80
FF80
AA80
FF80
ENDCHAR
STARTCHAR char8780
ENCODING 8780
SWIDTH 1000 0
DWIDTH 10 0
BBX 9 9 0 0
BITMAP
FF80
DD80
B680
F780
C980
F780
B680
D980
FF80
ENDCHAR
STARTCHAR char8781
ENCODING 8781
SWIDTH 1000 0
DWIDTH 10 0
BBX 9 9 0 0
BITMAP
1A00
2C00
2C00
3E00
7B80
CC80
C080
7F80
1E00
ENDCHAR
STARTCHAR char8782
ENCODING 8782
SWIDTH 1000 0
DWIDTH 10 0
BBX 10 8 0 1
BITMAP
3E00
7D80
BFC0
E3C0
7F00
6280
9E80
FF80
ENDCHAR
STARTCHAR char8783
ENCODING 8783
SWIDTH 1000 0
DWIDTH 10 0
BBX 10 8 0 1
BITMAP
3E00
7F80
FFC0
FFC0
7300
6180
F380
FF80
ENDCHAR
STARTCHAR char8784
ENCODING 8784
SWIDTH 1000 0
DWIDTH 10 0
BBX 9 5 0 2
BITMAP
FE00
FF80
3D80
3980
3F80
ENDCHAR
STARTCHAR char8785
ENCODING 8785
SWIDTH 1000 0
DWIDTH 10 0
BBX 9 5 0 2
BITMAP
3F80
FF80
DE00
CE00
FE00
ENDCHAR
STARTCHAR char8786
ENCODING 8786
SWIDTH 1000 0
DWIDTH 10 0
BBX 7 9 1 0
BITMAP
FE
94
94
F4
14
14
14
14
36
ENDCHAR
STARTCHAR char8787
ENCODING 8787
SWIDTH 1000 0
DWIDTH 10 0
BBX 7 9 1 0
BITMAP
10
10
FE
10
10
10
10
10
10
ENDCHAR
STARTCHAR char8788
ENCODING 8788
SWIDTH 1000 0
DWIDTH 10 0
BBX 7 9 1 0
BITMAP
10
FE
10
7E
10
10
10
10
10
ENDCHAR
STARTCHAR char8789
ENCODING 8789
SWIDTH 1000 0
DWIDTH 10 0
BBX 4 9 3 0
BITMAP
60
F0
40
40
40
40
40
F0
60
ENDCHAR
STARTCHAR char8790
ENCODING 8790
SWIDTH 1000 0
DWIDTH 10 0
BBX 7 7 1 1
BITMAP
0E
06
0A
10
20
40
80
ENDCHAR
STARTCHAR char8791
ENCODING 8791
SWIDTH 1000 0
DWIDTH 10 0
BBX 7 7 1 1
BITMAP
02
04
08
10
A0
C0
E0
ENDCHAR
STARTCHAR char8792
ENCODING 8792
SWIDTH 1000 0
DWIDTH 10 0
BBX 7 7 1 1
BITMAP
E0
C0
A0
10
08
04
02
ENDCHAR
STARTCHAR char8793
ENCODING 8793
SWIDTH 1000 0
DWIDTH 10 0
BBX 7 7 1 1
BITMAP
80
40
20
10
0A
06
0E
ENDCHAR
STARTCHAR char8794
ENCODING 8794
SWIDTH 1000 0
DWIDTH 10 0
BBX 4 9 3 0
BITMAP
80
80
80
E0
B0
90
B0
C0
C0
ENDCHAR
STARTCHAR char8795
ENCODING 8795
SWIDTH 1000 0
DWIDTH 10 0
BBX 3 9 3 0
BITMAP
20
20
20
20
20
20
60
E0
C0
ENDCHAR
STARTCHAR char8796
ENCODING 8796
SWIDTH 1000 0
DWIDTH 10 0
BBX 6 9 2 0
BITMAP
20
30
28
24
24
28
60
E0
C0
ENDCHAR
STARTCHAR char8797
ENCODING 8797
SWIDTH 1000 0
DWIDTH 10 0
BBX 8 9 0 0
BITMAP
0F
39
2F
39
21
21
63
E7
C0
ENDCHAR
STARTCHAR char8798
ENCODING 8798
SWIDTH 1000 0
DWIDTH 10 0
BBX 9 9 0 0
BITMAP
1C00
6300
4180
BC80
FB80
1C80
B580
4100
3E00
ENDCHAR
STARTCHAR char8799
ENCODING 8799
SWIDTH 1000 0
DWIDTH 10 0
BBX 10 9 0 0
BITMAP
4180
FE80
8C80
BB40
8040
FFC0
8880
C880
4980
ENDCHAR
STARTCHAR char8800
ENCODING 8800
SWIDTH 1000 0
DWIDTH 10 0
BBX 10 8 0 1
BITMAP
9800
D000
D000
F700
B480
B480
9480
D740
ENDCHAR
STARTCHAR char8801
ENCODING 8801
SWIDTH 1000 0
DWIDTH 10 0
BBX 10 8 0 1
BITMAP
7000
D000
9000
8700
8480
8480
9480
7740
ENDCHAR
STARTCHAR char8802
ENCODING 8802
SWIDTH 1000 0
DWIDTH 10 0
BBX 9 5 0 4
BITMAP
D580
4780
4780
4680
6D80
ENDCHAR
STARTCHAR char8803
ENCODING 8803
SWIDTH 1000 0
DWIDTH 10 0
BBX 10 5 0 1
BITMAP
EF80
2680
E680
A680
FFC0
ENDCHAR
STARTCHAR char8804
ENCODING 8804
SWIDTH 1000 0
DWIDTH 10 0
BBX 10 6 0 0
BITMAP
FF80
5680
5680
5680
7FC0
C000
ENDCHAR
STARTCHAR char8805
ENCODING 8805
SWIDTH 1000 0
DWIDTH 10 0
BBX 10 8 0 1
BITMAP
F080
D180
D080
4E80
5280
5E80
5280
EFC0
ENDCHAR
STARTCHAR char8806
ENCODING 8806
SWIDTH 1000 0
DWIDTH 10 0
BBX 0 0 0 0
BITMAP
ENDCHAR
STARTCHAR char8807
ENCODING 8807
SWIDTH 1000 0
DWIDTH 10 0
BBX 0 0 0 0
BITMAP
ENDCHAR
STARTCHAR char8808
ENCODING 8808
SWIDTH 1000 0
DWIDTH 10 0
BBX 0 0 0 0
BITMAP
ENDCHAR
STARTCHAR char8809
ENCODING 8809
SWIDTH 1000 0
DWIDTH 10 0
BBX 0 0 0 0
BITMAP
ENDCHAR
STARTCHAR char8810
ENCODING 8810
SWIDTH 1000 0
DWIDTH 10 0
BBX 0 0 0 0
BITMAP
ENDCHAR
STARTCHAR char8811
ENCODING 8811
SWIDTH 1000 0
DWIDTH 10 0
BBX 0 0 0 0
BITMAP
ENDCHAR
STARTCHAR char8812
ENCODING 8812
SWIDTH 1000 0
DWIDTH 10 0
BBX 0 0 0 0
BITMAP
ENDCHAR
STARTCHAR char8813
ENCODING 8813
SWIDTH 1000 0
DWIDTH 10 0
BBX 0 0 0 0
BITMAP
ENDCHAR
STARTCHAR char8814
ENCODING 8814
SWIDTH 1000 0
DWIDTH 10 0
BBX 0 0 0 0
BITMAP
ENDCHAR
STARTCHAR char8815
ENCODING 8815
SWIDTH 1000 0
DWIDTH 10 0
BBX 0 0 0 0
BITMAP
ENDCHAR
STARTCHAR char8816
ENCODING 8816
SWIDTH 1000 0
DWIDTH 10 0
BBX 0 0 0 0
BITMAP
ENDCHAR
STARTCHAR char8817
ENCODING 8817
SWIDTH 1000 0
DWIDTH 10 0
BBX 0 0 0 0
BITMAP
ENDCHAR
STARTCHAR char8818
ENCODING 8818
SWIDTH 1000 0
DWIDTH 10 0
BBX 0 0 0 0
BITMAP
ENDCHAR
STARTCHAR char8819
ENCODING 8819
SWIDTH 1000 0
DWIDTH 10 0
BBX 0 0 0 0
BITMAP
ENDCHAR
STARTCHAR char8820
ENCODING 8820
SWIDTH 1000 0
DWIDTH 10 0
BBX 0 0 0 0
BITMAP
ENDCHAR
STARTCHAR char8821
ENCODING 8821
SWIDTH 1000 0
DWIDTH 10 0
BBX 0 0 0 0
BITMAP
ENDCHAR
STARTCHAR char8822
ENCODING 8822
SWIDTH 1000 0
DWIDTH 10 0
BBX 0 0 0 0
BITMAP
ENDCHAR
STARTCHAR char8823
ENCODING 8823
SWIDTH 1000 0
DWIDTH 10 0
BBX 0 0 0 0
BITMAP
ENDCHAR
STARTCHAR char8824
ENCODING 8824
SWIDTH 1000 0
DWIDTH 10 0
BBX 0 0 0 0
BITMAP
ENDCHAR
STARTCHAR char8825
ENCODING 8825
SWIDTH 1000 0
DWIDTH 10 0
BBX 0 0 0 0
BITMAP
ENDCHAR
STARTCHAR char8826
ENCODING 8826
SWIDTH 1000 0
DWIDTH 10 0
BBX 0 0 0 0
BITMAP
ENDCHAR
STARTCHAR char8827
ENCODING 8827
SWIDTH 1000 0
DWIDTH 10 0
BBX 0 0 0 0
BITMAP
ENDCHAR
STARTCHAR char8828
ENCODING 8828
SWIDTH 1000 0
DWIDTH 10 0
BBX 0 0 0 0
BITMAP
ENDCHAR
STARTCHAR char8829
ENCODING 8829
SWIDTH 1000 0
DWIDTH 10 0
BBX 0 0 0 0
BITMAP
ENDCHAR
STARTCHAR char8830
ENCODING 8830
SWIDTH 1000 0
DWIDTH 10 0
BBX 0 0 0 0
BITMAP
ENDCHAR
STARTCHAR char8993
ENCODING 8993
SWIDTH 1000 0
DWIDTH 10 0
BBX 1 9 4 0
BITMAP
80
80
80
80
80
80
00
80
80
ENDCHAR
STARTCHAR char8994
ENCODING 8994
SWIDTH 1000 0
DWIDTH 10 0
BBX 3 2 3 7
BITMAP
A0
A0
ENDCHAR
STARTCHAR char8995
ENCODING 8995
SWIDTH 1000 0
DWIDTH 10 0
BBX 9 8 0 1
BITMAP
0A00
0A00
7F80
1600
1400
FF00
2C00
2800
ENDCHAR
STARTCHAR char8996
ENCODING 8996
SWIDTH 1000 0
DWIDTH 10 0
BBX 5 9 2 0
BITMAP
28
F8
A8
A0
70
28
A8
F8
A0
ENDCHAR
STARTCHAR char8997
ENCODING 8997
SWIDTH 1000 0
DWIDTH 10 0
BBX 7 9 1 0
BITMAP
60
B2
94
E8
10
2E
52
9A
0C
ENDCHAR
STARTCHAR char8998
ENCODING 8998
SWIDTH 1000 0
DWIDTH 10 0
BBX 7 8 1 1
BITMAP
70
50
50
6E
C4
94
88
F6
ENDCHAR
STARTCHAR char8999
ENCODING 8999
SWIDTH 1000 0
DWIDTH 10 0
BBX 2 2 3 7
BITMAP
C0
40
ENDCHAR
STARTCHAR char9000
ENCODING 9000
SWIDTH 1000 0
DWIDTH 10 0
BBX 2 9 7 0
BITMAP
40
C0
80
80
80
80
80
C0
40
ENDCHAR
STARTCHAR char9001
ENCODING 9001
SWIDTH 1000 0
DWIDTH 10 0
BBX 2 9 0 0
BITMAP
80
C0
40
40
40
40
40
C0
80
ENDCHAR
STARTCHAR char9002
ENCODING 9002
SWIDTH 1000 0
DWIDTH 10 0
BBX 5 5 2 2
BITMAP
A8
78
30
78
A8
ENDCHAR
STARTCHAR char9003
ENCODING 9003
SWIDTH 1000 0
DWIDTH 10 0
BBX 7 7 1 1
BITMAP
10
10
10
FE
10
10
10
ENDCHAR
STARTCHAR char9004
ENCODING 9004
SWIDTH 1000 0
DWIDTH 10 0
BBX 1 2 1 0
BITMAP
80
80
ENDCHAR
STARTCHAR char9005
ENCODING 9005
SWIDTH 1000 0
DWIDTH 10 0
BBX 7 1 1 4
BITMAP
FE
ENDCHAR
STARTCHAR char9006
ENCODING 9006
SWIDTH 1000 0
DWIDTH 10 0
BBX 1 1 1 1
BITMAP
80
ENDCHAR
STARTCHAR char9007
ENCODING 9007
SWIDTH 1000 0
DWIDTH 10 0
BBX 5 9 2 0
BITMAP
08
18
10
30
20
60
40
C0
80
ENDCHAR
STARTCHAR char9008
ENCODING 9008
SWIDTH 1000 0
DWIDTH 10 0
BBX 6 8 2 1
BITMAP
70
C8
8C
84
84
84
88
78
ENDCHAR
STARTCHAR char9009
ENCODING 9009
SWIDTH 1000 0
DWIDTH 10 0
BBX 3 8 3 1
BITMAP
40
C0
40
40
40
40
40
E0
ENDCHAR
STARTCHAR char9010
ENCODING 9010
SWIDTH 1000 0
DWIDTH 10 0
BBX 5 8 2 1
BITMAP
70
D8
88
18
20
40
48
F8
ENDCHAR
STARTCHAR char9011
ENCODING 9011
SWIDTH 1000 0
DWIDTH 10 0
BBX 5 8 2 1
BITMAP
70
D8
88
70
18
08
88
70
ENDCHAR
STARTCHAR char9012
ENCODING 9012
SWIDTH 1000 0
DWIDTH 10 0
BBX 6 8 2 1
BITMAP
10
30
30
50
D0
FC
10
38
ENDCHAR
STARTCHAR char9013
ENCODING 9013
SWIDTH 1000 0
DWIDTH 10 0
BBX 5 8 2 1
BITMAP
78
40
40
78
48
08
88
78
ENDCHAR
STARTCHAR char9014
ENCODING 9014
SWIDTH 1000 0
DWIDTH 10 0
BBX 5 8 2 1
BITMAP
70
C8
80
F8
88
88
88
78
ENDCHAR
STARTCHAR char9015
ENCODING 9015
SWIDTH 1000 0
DWIDTH 10 0
BBX 5 8 2 1
BITMAP
F8
88
98
10
10
30
20
20
ENDCHAR
STARTCHAR char9016
ENCODING 9016
SWIDTH 1000 0
DWIDTH 10 0
BBX 5 8 2 1
BITMAP
70
C8
88
78
C8
88
88
78
ENDCHAR
STARTCHAR char9017
ENCODING 9017
SWIDTH 1000 0
DWIDTH 10 0
BBX 5 8 2 1
BITMAP
70
C8
88
88
78
08
88
78
ENDCHAR
STARTCHAR char9018
ENCODING 9018
SWIDTH 1000 0
DWIDTH 10 0
BBX 1 6 4 2
BITMAP
80
80
00
00
00
80
ENDCHAR
STARTCHAR char9019
ENCODING 9019
SWIDTH 1000 0
DWIDTH 10 0
BBX 1 7 4 1
BITMAP
80
80
00
00
00
80
80
ENDCHAR
STARTCHAR char9020
ENCODING 9020
SWIDTH 1000 0
DWIDTH 10 0
BBX 7 7 1 1
BITMAP
06
18
60
C0
30
0C
02
ENDCHAR
STARTCHAR char9021
ENCODING 9021
SWIDTH 1000 0
DWIDTH 10 0
BBX 7 3 1 3
BITMAP
FE
00
FE
ENDCHAR
STARTCHAR char9022
ENCODING 9022
SWIDTH 1000 0
DWIDTH 10 0
BBX 7 7 1 1
BITMAP
C0
30
0C
06
18
60
80
ENDCHAR
STARTCHAR char9023
ENCODING 9023
SWIDTH 1000 0
DWIDTH 10 0
BBX 5 8 2 1
BITMAP
70
C8
88
18
20
20
00
20
ENDCHAR
STARTCHAR char9024
ENCODING 9024
SWIDTH 1000 0
DWIDTH 10 0
BBX 8 8 0 1
BITMAP
3C
66
5A
A5
A5
FE
42
3E
ENDCHAR
STARTCHAR char9025
ENCODING 9025
SWIDTH 1000 0
DWIDTH 10 0
BBX 8 8 1 1
BITMAP
10
18
38
28
24
7C
46
E7
ENDCHAR
STARTCHAR char9026
ENCODING 9026
SWIDTH 1000 0
DWIDTH 10 0
BBX 7 8 1 1
BITMAP
F8
44
44
7C
44
42
46
FC
ENDCHAR
STARTCHAR char9027
ENCODING 9027
SWIDTH 1000 0
DWIDTH 10 0
BBX 7 8 1 1
BITMAP
3C
64
42
80
80
C0
46
3C
ENDCHAR
STARTCHAR char9028
ENCODING 9028
SWIDTH 1000 0
DWIDTH 10 0
BBX 7 8 1 1
BITMAP
F8
4C
44
42
42
46
44
F8
ENDCHAR
STARTCHAR char9029
ENCODING 9029
SWIDTH 1000 0
DWIDTH 10 0
BBX 6 8 1 1
BITMAP
FC
44
44
48
78
48
44
FC
ENDCHAR
STARTCHAR char9030
ENCODING 9030
SWIDTH 1000 0
DWIDTH 10 0
BBX 6 8 1 1
BITMAP
FC
44
44
48
78
48
40
E0
ENDCHAR
STARTCHAR char9031
ENCODING 9031
SWIDTH 1000 0
DWIDTH 10 0
BBX 7 8 1 1
BITMAP
3C
64
42
80
8E
C4
44
3C
ENDCHAR
STARTCHAR char9032
ENCODING 9032
SWIDTH 1000 0
DWIDTH 10 0
BBX 7 8 1 1
BITMAP
C6
44
44
44
7C
44
44
C6
ENDCHAR
STARTCHAR char9033
ENCODING 9033
SWIDTH 1000 0
DWIDTH 10 0
BBX 3 8 3 1
BITMAP
E0
40
40
40
40
40
40
E0
ENDCHAR
STARTCHAR char9034
ENCODING 9034
SWIDTH 1000 0
DWIDTH 10 0
BBX 5 8 1 1
BITMAP
38
10
10
10
10
10
90
70
ENDCHAR
STARTCHAR char9035
ENCODING 9035
SWIDTH 1000 0
DWIDTH 10 0
BBX 7 8 1 1
BITMAP
EE
4C
50
60
60
58
4C
EE
ENDCHAR
STARTCHAR char9036
ENCODING 9036
SWIDTH 1000 0
DWIDTH 10 0
BBX 7 8 1 1
BITMAP
E0
40
40
40
40
42
46
FC
ENDCHAR
STARTCHAR char9037
ENCODING 9037
SWIDTH 1000 0
DWIDTH 10 0
BBX 9 8 0 1
BITMAP
C180
6100
6300
5300
5500
4D00
4900
E380
ENDCHAR
STARTCHAR char9038
ENCODING 9038
SWIDTH 1000 0
DWIDTH 10 0
BBX 8 8 1 1
BITMAP
C7
62
62
52
5A
4A
46
E6
ENDCHAR
STARTCHAR char9039
ENCODING 9039
SWIDTH 1000 0
DWIDTH 10 0
BBX 7 8 1 1
BITMAP
38
64
42
82
82
C2
46
3C
ENDCHAR
STARTCHAR char9040
ENCODING 9040
SWIDTH 1000 0
DWIDTH 10 0
BBX 7 8 1 1
BITMAP
FC
46
42
46
7C
40
40
E0
ENDCHAR
STARTCHAR char9041
ENCODING 9041
SWIDTH 1000 0
DWIDTH 10 0
BBX 7 9 1 0
BITMAP
38
4C
84
82
82
B6
CC
7E
04
ENDCHAR
STARTCHAR char9042
ENCODING 9042
SWIDTH 1000 0
DWIDTH 10 0
BBX 8 8 1 1
BITMAP
FC
46
42
46
7C
44
46
E7
ENDCHAR
STARTCHAR char9043
ENCODING 9043
SWIDTH 1000 0
DWIDTH 10 0
BBX 5 8 2 1
BITMAP
78
98
88
C0
30
88
88
F8
ENDCHAR
STARTCHAR char9044
ENCODING 9044
SWIDTH 1000 0
DWIDTH 10 0
BBX 7 8 1 1
BITMAP
FE
92
92
10
10
10
10
38
ENDCHAR
STARTCHAR char9045
ENCODING 9045
SWIDTH 1000 0
DWIDTH 10 0
BBX 8 8 1 1
BITMAP
E7
42
42
42
42
42
42
7C
ENDCHAR
STARTCHAR char9046
ENCODING 9046
SWIDTH 1000 0
DWIDTH 10 0
BBX 8 8 1 1
BITMAP
E7
42
44
64
2C
28
18
10
ENDCHAR
STARTCHAR char9047
ENCODING 9047
SWIDTH 1000 0
DWIDTH 10 0
BBX 10 8 0 1
BITMAP
FDC0
4880
4900
6D00
2D00
3600
3600
1200
ENDCHAR
STARTCHAR char9048
ENCODING 9048
SWIDTH 1000 0
DWIDTH 10 0
BBX 7 8 1 1
BITMAP
EE
64
2C
18
18
38
24
EE
ENDCHAR
STARTCHAR char9049
ENCODING 9049
SWIDTH 1000 0
DWIDTH 10 0
BBX 8 8 1 1
BITMAP
E7
46
64
28
18
10
10
38
ENDCHAR
STARTCHAR char9050
ENCODING 9050
SWIDTH 1000 0
DWIDTH 10 0
BBX 5 8 2 1
BITMAP
F8
88
10
30
20
40
C8
F8
ENDCHAR
STARTCHAR char9051
ENCODING 9051
SWIDTH 1000 0
DWIDTH 10 0
BBX 2 9 7 0
BITMAP
C0
80
80
80
80
80
80
80
C0
ENDCHAR
STARTCHAR char9052
ENCODING 9052
SWIDTH 1000 0
DWIDTH 10 0
BBX 10 8 0 1
BITMAP
FDC0
4880
4900
FF80
2D00
3600
3600
1200
ENDCHAR
STARTCHAR char9053
ENCODING 9053
SWIDTH 1000 0
DWIDTH 10 0
BBX 2 9 0 0
BITMAP
C0
40
40
40
40
40
40
40
C0
ENDCHAR
STARTCHAR char9054
ENCODING 9054
SWIDTH 1000 0
DWIDTH 10 0
BBX 4 2 3 7
BITMAP
60
B0
ENDCHAR
STARTCHAR char9055
ENCODING 9055
SWIDTH 1000 0
DWIDTH 10 0
BBX 9 1 0 0
BITMAP
FF80
ENDCHAR
STARTCHAR char9056
ENCODING 9056
SWIDTH 1000 0
DWIDTH 10 0
BBX 2 3 2 6
BITMAP
80
C0
40
ENDCHAR
STARTCHAR char9057
ENCODING 9057
SWIDTH 1000 0
DWIDTH 10 0
BBX 5 5 2 1
BITMAP
70
08
78
88
78
ENDCHAR
STARTCHAR char9058
ENCODING 9058
SWIDTH 1000 0
DWIDTH 10 0
BBX 5 8 2 1
BITMAP
40
C0
40
70
48
48
48
70
ENDCHAR
STARTCHAR char9059
ENCODING 9059
SWIDTH 1000 0
DWIDTH 10 0
BBX 5 5 2 1
BITMAP
78
C8
80
C8
78
ENDCHAR
STARTCHAR char9060
ENCODING 9060
SWIDTH 1000 0
DWIDTH 10 0
BBX 5 8 2 1
BITMAP
08
18
08
78
C8
88
C8
78
ENDCHAR
STARTCHAR char9061
ENCODING 9061
SWIDTH 1000 0
DWIDTH 10 0
BBX 5 5 2 1
BITMAP
78
88
F8
88
78
ENDCHAR
STARTCHAR char9062
ENCODING 9062
SWIDTH 1000 0
DWIDTH 10 0
BBX 3 8 3 1
BITMAP
60
60
40
E0
40
40
40
C0
ENDCHAR
STARTCHAR char9063
ENCODING 9063
SWIDTH 1000 0
DWIDTH 10 0
BBX 5 6 2 0
BITMAP
F8
90
F0
F8
88
F8
ENDCHAR
STARTCHAR char9064
ENCODING 9064
SWIDTH 1000 0
DWIDTH 10 0
BBX 6 8 2 1
BITMAP
40
C0
40
78
48
48
48
FC
ENDCHAR
STARTCHAR char9065
ENCODING 9065
SWIDTH 1000 0
DWIDTH 10 0
BBX 3 8 3 1
BITMAP
40
40
00
C0
40
40
40
E0
ENDCHAR
STARTCHAR char9066
ENCODING 9066
SWIDTH 1000 0
DWIDTH 10 0
BBX 3 9 2 0
BITMAP
20
20
00
60
20
20
20
20
E0
ENDCHAR
STARTCHAR char9067
ENCODING 9067
SWIDTH 1000 0
DWIDTH 10 0
BBX 6 8 2 1
BITMAP
40
C0
58
50
60
60
50
FC
ENDCHAR
STARTCHAR char9068
ENCODING 9068
SWIDTH 1000 0
DWIDTH 10 0
BBX 3 8 3 1
BITMAP
40
C0
40
40
40
40
40
E0
ENDCHAR
STARTCHAR char9069
ENCODING 9069
SWIDTH 1000 0
DWIDTH 10 0
BBX 9 5 0 1
BITMAP
FF00
4900
4900
4900
FF80
ENDCHAR
STARTCHAR char9070
ENCODING 9070
SWIDTH 1000 0
DWIDTH 10 0
BBX 6 5 2 1
BITMAP
F8
48
48
48
FC
ENDCHAR
STARTCHAR char9071
ENCODING 9071
SWIDTH 1000 0
DWIDTH 10 0
BBX 5 5 2 1
BITMAP
78
88
88
88
78
ENDCHAR
STARTCHAR char9072
ENCODING 9072
SWIDTH 1000 0
DWIDTH 10 0
BBX 5 6 2 0
BITMAP
F8
48
48
48
70
E0
ENDCHAR
STARTCHAR char9073
ENCODING 9073
SWIDTH 1000 0
DWIDTH 10 0
BBX 6 6 2 0
BITMAP
78
88
88
D8
78
1C
ENDCHAR
STARTCHAR char9074
ENCODING 9074
SWIDTH 1000 0
DWIDTH 10 0
BBX 4 5 3 1
BITMAP
F0
40
40
40
E0
ENDCHAR
STARTCHAR char9075
ENCODING 9075
SWIDTH 1000 0
DWIDTH 10 0
BBX 4 5 3 1
BITMAP
F0
D0
70
90
F0
ENDCHAR
STARTCHAR char9076
ENCODING 9076
SWIDTH 1000 0
DWIDTH 10 0
BBX 4 8 3 1
BITMAP
40
40
E0
40
40
40
40
70
ENDCHAR
STARTCHAR char9077
ENCODING 9077
SWIDTH 1000 0
DWIDTH 10 0
BBX 6 5 2 1
BITMAP
C8
48
48
48
7C
ENDCHAR
STARTCHAR char9078
ENCODING 9078
SWIDTH 1000 0
DWIDTH 10 0
BBX 6 5 2 1
BITMAP
CC
48
50
30
20
ENDCHAR
STARTCHAR char9079
ENCODING 9079
SWIDTH 1000 0
DWIDTH 10 0
BBX 8 5 1 1
BITMAP
FF
56
7C
28
28
ENDCHAR
STARTCHAR char9080
ENCODING 9080
SWIDTH 1000 0
DWIDTH 10 0
BBX 5 5 2 1
BITMAP
D8
50
20
50
D8
ENDCHAR
STARTCHAR char9081
ENCODING 9081
SWIDTH 1000 0
DWIDTH 10 0
BBX 6 6 2 0
BITMAP
CC
48
50
30
20
E0
ENDCHAR
STARTCHAR char9082
ENCODING 9082
SWIDTH 1000 0
DWIDTH 10 0
BBX 5 5 2 1
BITMAP
F8
90
20
48
F8
ENDCHAR
STARTCHAR char9083
ENCODING 9083
SWIDTH 1000 0
DWIDTH 10 0
BBX 3 9 6 0
BITMAP
60
40
40
40
C0
40
40
40
20
ENDCHAR
STARTCHAR char9084
ENCODING 9084
SWIDTH 1000 0
DWIDTH 10 0
BBX 1 9 4 0
BITMAP
80
80
80
80
80
80
80
80
80
ENDCHAR
STARTCHAR char9085
ENCODING 9085
SWIDTH 1000 0
DWIDTH 10 0
BBX 3 9 0 0
BITMAP
C0
40
40
40
60
40
40
40
80
ENDCHAR
STARTCHAR char9086
ENCODING 9086
SWIDTH 1000 0
DWIDTH 10 0
BBX 9 1 0 8
BITMAP
FF80
ENDCHAR
STARTCHAR char9249
ENCODING 9249
SWIDTH 1000 0
DWIDTH 10 0
BBX 5 6 2 1
BITMAP
F8
08
08
08
08
08
ENDCHAR
STARTCHAR char9250
ENCODING 9250
SWIDTH 1000 0
DWIDTH 10 0
BBX 8 6 0 1
BITMAP
FF
11
11
11
11
11
ENDCHAR
STARTCHAR char9251
ENCODING 9251
SWIDTH 1000 0
DWIDTH 10 0
BBX 9 6 0 1
BITMAP
F200
1200
1200
1500
1500
1880
ENDCHAR
STARTCHAR char9252
ENCODING 9252
SWIDTH 1000 0
DWIDTH 10 0
BBX 7 5 1 2
BITMAP
C0
40
40
40
7E
ENDCHAR
STARTCHAR char9253
ENCODING 9253
SWIDTH 1000 0
DWIDTH 10 0
BBX 9 5 0 2
BITMAP
CF80
4100
4200
4500
7C80
ENDCHAR
STARTCHAR char9254
ENCODING 9254
SWIDTH 1000 0
DWIDTH 10 0
BBX 9 6 0 1
BITMAP
C700
4F80
4200
4500
7500
0200
ENDCHAR
STARTCHAR char9255
ENCODING 9255
SWIDTH 1000 0
DWIDTH 10 0
BBX 7 5 1 2
BITMAP
FE
40
40
40
7E
ENDCHAR
STARTCHAR char9256
ENCODING 9256
SWIDTH 1000 0
DWIDTH 10 0
BBX 8 5 1 2
BITMAP
FF
88
88
98
FF
ENDCHAR
STARTCHAR char9257
ENCODING 9257
SWIDTH 1000 0
DWIDTH 10 0
BBX 7 6 1 1
BITMAP
FC
04
FC
40
40
7E
ENDCHAR
STARTCHAR char9258
ENCODING 9258
SWIDTH 1000 0
DWIDTH 10 0
BBX 7 6 1 1
BITMAP
FE
12
F2
82
9A
E2
ENDCHAR
STARTCHAR char9259
ENCODING 9259
SWIDTH 1000 0
DWIDTH 10 0
BBX 8 6 0 1
BITMAP
FF
15
F5
45
5F
74
ENDCHAR
STARTCHAR char9260
ENCODING 9260
SWIDTH 1000 0
DWIDTH 10 0
BBX 8 6 0 1
BITMAP
F1
1D
F7
45
5F
74
ENDCHAR
STARTCHAR char9261
ENCODING 9261
SWIDTH 1000 0
DWIDTH 10 0
BBX 9 6 0 1
BITMAP
F200
1200
F300
4700
5D80
7080
ENDCHAR
STARTCHAR char9262
ENCODING 9262
SWIDTH 1000 0
DWIDTH 10 0
BBX 8 6 0 1
BITMAP
FF
14
F7
44
5C
77
ENDCHAR
STARTCHAR char9263
ENCODING 9263
SWIDTH 1000 0
DWIDTH 10 0
BBX 9 6 0 1
BITMAP
FF80
1300
F500
4500
5700
6F80
ENDCHAR
STARTCHAR char9264
ENCODING 9264
SWIDTH 1000 0
DWIDTH 10 0
BBX 9 6 0 1
BITMAP
F700
1F80
F300
4580
5480
6700
ENDCHAR
STARTCHAR char9265
ENCODING 9265
SWIDTH 1000 0
DWIDTH 10 0
BBX 6 6 1 1
BITMAP
FC
44
44
44
7C
40
ENDCHAR
STARTCHAR char9266
ENCODING 9266
SWIDTH 1000 0
DWIDTH 10 0
BBX 5 6 2 1
BITMAP
88
88
F8
88
F8
88
ENDCHAR
STARTCHAR char9267
ENCODING 9267
SWIDTH 1000 0
DWIDTH 10 0
BBX 8 6 0 1
BITMAP
1D
D5
77
55
77
44
ENDCHAR
STARTCHAR char9268
ENCODING 9268
SWIDTH 1000 0
DWIDTH 10 0
BBX 9 6 0 1
BITMAP
D200
5200
7200
5500
7500
4880
ENDCHAR
STARTCHAR char9269
ENCODING 9269
SWIDTH 1000 0
DWIDTH 10 0
BBX 7 6 1 1
BITMAP
10
10
10
28
44
82
ENDCHAR
STARTCHAR char9270
ENCODING 9270
SWIDTH 1000 0
DWIDTH 10 0
BBX 8 6 1 1
BITMAP
24
24
64
5A
89
10
ENDCHAR
STARTCHAR char9271
ENCODING 9271
SWIDTH 1000 0
DWIDTH 10 0
BBX 5 6 2 1
BITMAP
70
D8
88
88
D8
60
ENDCHAR
STARTCHAR char9272
ENCODING 9272
SWIDTH 1000 0
DWIDTH 10 0
BBX 7 6 1 1
BITMAP
7C
08
18
34
66
82
ENDCHAR
STARTCHAR char9273
ENCODING 9273
SWIDTH 1000 0
DWIDTH 10 0
BBX 8 6 1 1
BITMAP
FE
24
6C
5A
99
10
ENDCHAR
STARTCHAR char9274
ENCODING 9274
SWIDTH 1000 0
DWIDTH 10 0
BBX 7 6 1 1
BITMAP
38
7E
08
1C
66
C2
ENDCHAR
STARTCHAR char9275
ENCODING 9275
SWIDTH 1000 0
DWIDTH 10 0
BBX 6 6 1 1
BITMAP
FC
04
FC
04
04
04
ENDCHAR
STARTCHAR char9276
ENCODING 9276
SWIDTH 1000 0
DWIDTH 10 0
BBX 7 6 1 1
BITMAP
FC
40
7C
40
40
7E
ENDCHAR
STARTCHAR char9277
ENCODING 9277
SWIDTH 1000 0
DWIDTH 10 0
BBX 8 5 1 2
BITMAP
FE
4C
24
24
FF
ENDCHAR
STARTCHAR char9278
ENCODING 9278
SWIDTH 1000 0
DWIDTH 10 0
BBX 7 6 1 1
BITMAP
38
FE
00
3C
44
3C
ENDCHAR
STARTCHAR char9279
ENCODING 9279
SWIDTH 1000 0
DWIDTH 10 0
BBX 4 9 3 0
BITMAP
C0
40
40
40
70
40
40
40
40
ENDCHAR
STARTCHAR char9280
ENCODING 9280
SWIDTH 1000 0
DWIDTH 10 0
BBX 4 9 2 0
BITMAP
D0
50
50
50
70
50
50
50
10
ENDCHAR
STARTCHAR char9281
ENCODING 9281
SWIDTH 1000 0
DWIDTH 10 0
BBX 4 9 3 0
BITMAP
C0
40
40
70
40
70
40
40
40
ENDCHAR
STARTCHAR char9282
ENCODING 9282
SWIDTH 1000 0
DWIDTH 10 0
BBX 4 9 2 0
BITMAP
D0
50
50
70
50
70
50
50
10
ENDCHAR
STARTCHAR char9283
ENCODING 9283
SWIDTH 1000 0
DWIDTH 10 0
BBX 4 9 2 0
BITMAP
10
10
10
F0
10
10
10
10
10
ENDCHAR
STARTCHAR char9284
ENCODING 9284
SWIDTH 1000 0
DWIDTH 10 0
BBX 5 9 2 0
BITMAP
28
28
28
28
E8
28
28
28
08
ENDCHAR
STARTCHAR char9285
ENCODING 9285
SWIDTH 1000 0
DWIDTH 10 0
BBX 4 9 2 0
BITMAP
10
10
10
F0
10
F0
10
10
10
ENDCHAR
STARTCHAR char9286
ENCODING 9286
SWIDTH 1000 0
DWIDTH 10 0
BBX 5 9 2 0
BITMAP
28
28
28
E8
28
E8
28
28
08
ENDCHAR
STARTCHAR char9287
ENCODING 9287
SWIDTH 1000 0
DWIDTH 10 0
BBX 9 4 0 2
BITMAP
0800
0800
0800
FF80
ENDCHAR
STARTCHAR char9288
ENCODING 9288
SWIDTH 1000 0
DWIDTH 10 0
BBX 9 9 0 0
BITMAP
0200
0200
0200
3200
1380
1E00
F200
0200
0200
ENDCHAR
STARTCHAR char9289
ENCODING 9289
SWIDTH 1000 0
DWIDTH 10 0
BBX 8 9 0 0
BITMAP
05
05
05
25
27
3D
E5
05
01
ENDCHAR
STARTCHAR char9290
ENCODING 9290
SWIDTH 1000 0
DWIDTH 10 0
BBX 7 9 0 0
BITMAP
02
02
02
32
12
1E
F2
02
02
ENDCHAR
STARTCHAR char9291
ENCODING 9291
SWIDTH 1000 0
DWIDTH 10 0
BBX 9 4 0 2
BITMAP
0600
1200
1200
FF80
ENDCHAR
STARTCHAR char9292
ENCODING 9292
SWIDTH 1000 0
DWIDTH 10 0
BBX 9 6 0 0
BITMAP
FF80
0800
0800
0800
0800
0800
ENDCHAR
STARTCHAR char9293
ENCODING 9293
SWIDTH 1000 0
DWIDTH 10 0
BBX 8 9 0 0
BITMAP
03
01
01
1F
F1
1F
11
11
01
ENDCHAR
STARTCHAR char9294
ENCODING 9294
SWIDTH 1000 0
DWIDTH 10 0
BBX 9 9 0 0
BITMAP
0780
0280
0280
3E80
E280
2E80
2280
2280
0080
ENDCHAR
STARTCHAR char9295
ENCODING 9295
SWIDTH 1000 0
DWIDTH 10 0
BBX 8 9 0 0
BITMAP
03
01
01
0F
F1
11
11
11
01
ENDCHAR
STARTCHAR char9296
ENCODING 9296
SWIDTH 1000 0
DWIDTH 10 0
BBX 9 6 0 0
BITMAP
FF80
1200
1200
1200
1200
0200
ENDCHAR
STARTCHAR char9297
ENCODING 9297
SWIDTH 1000 0
DWIDTH 10 0
BBX 9 1 0 4
BITMAP
FF80
ENDCHAR
STARTCHAR char9298
ENCODING 9298
SWIDTH 1000 0
DWIDTH 10 0
BBX 8 9 0 0
BITMAP
03
01
01
01
01
0F
F9
01
01
ENDCHAR
STARTCHAR char9299
ENCODING 9299
SWIDTH 1000 0
DWIDTH 10 0
BBX 1 9 4 0
BITMAP
80
80
80
80
80
80
80
80
80
ENDCHAR
STARTCHAR char9300
ENCODING 9300
SWIDTH 1000 0
DWIDTH 10 0
BBX 0 0 0 0
BITMAP
ENDCHAR
STARTCHAR char9301
ENCODING 9301
SWIDTH 1000 0
DWIDTH 10 0
BBX 9 5 0 2
BITMAP
CC00
4400
4400
4400
7F80
ENDCHAR
STARTCHAR char9302
ENCODING 9302
SWIDTH 1000 0
DWIDTH 10 0
BBX 9 5 0 2
BITMAP
CF80
4400
4400
4400
7F80
ENDCHAR
STARTCHAR char9303
ENCODING 9303
SWIDTH 1000 0
DWIDTH 10 0
BBX 9 6 0 1
BITMAP
C600
4200
4600
4600
7D00
0880
ENDCHAR
STARTCHAR char9304
ENCODING 9304
SWIDTH 1000 0
DWIDTH 10 0
BBX 9 5 0 2
BITMAP
C200
4300
4500
4480
7F80
ENDCHAR
STARTCHAR char9305
ENCODING 9305
SWIDTH 1000 0
DWIDTH 10 0
BBX 9 6 0 1
BITMAP
FF00
2500
E500
4780
5680
6480
ENDCHAR
STARTCHAR char9306
ENCODING 9306
SWIDTH 1000 0
DWIDTH 10 0
BBX 8 6 0 1
BITMAP
FF
14
F4
44
5C
77
ENDCHAR
STARTCHAR char9307
ENCODING 9307
SWIDTH 1000 0
DWIDTH 10 0
BBX 9 6 0 1
BITMAP
EF00
3500
FD00
5780
7E80
7480
ENDCHAR
STARTCHAR char9308
ENCODING 9308
SWIDTH 1000 0
DWIDTH 10 0
BBX 9 6 0 1
BITMAP
F200
1200
F700
4500
5C80
6F80
ENDCHAR
STARTCHAR char9309
ENCODING 9309
SWIDTH 1000 0
DWIDTH 10 0
BBX 9 6 0 1
BITMAP
FF80
1000
F700
4480
5D80
7300
ENDCHAR
STARTCHAR char9310
ENCODING 9310
SWIDTH 1000 0
DWIDTH 10 0
BBX 9 6 0 1
BITMAP
F580
5480
5780
5480
7780
4400
ENDCHAR
STARTCHAR char9311
ENCODING 9311
SWIDTH 1000 0
DWIDTH 10 0
BBX 9 6 0 1
BITMAP
F200
5200
5200
5700
7580
4880
ENDCHAR
STARTCHAR char9312
ENCODING 9312
SWIDTH 1000 0
DWIDTH 10 0
BBX 9 6 0 1
BITMAP
F200
5300
5500
5480
7F80
4000
ENDCHAR
STARTCHAR char9313
ENCODING 9313
SWIDTH 1000 0
DWIDTH 10 0
BBX 6 8 1 0
BITMAP
FC
44
7C
50
38
44
44
38
ENDCHAR
STARTCHAR char9314
ENCODING 9314
SWIDTH 1000 0
DWIDTH 10 0
BBX 7 6 1 1
BITMAP
BE
92
F2
92
F2
82
ENDCHAR
STARTCHAR char9315
ENCODING 9315
SWIDTH 1000 0
DWIDTH 10 0
BBX 9 6 0 1
BITMAP
DF80
5400
7400
5400
7400
4780
ENDCHAR
STARTCHAR char9316
ENCODING 9316
SWIDTH 1000 0
DWIDTH 10 0
BBX 9 6 0 1
BITMAP
AB80
A880
E880
AC80
F680
B280
ENDCHAR
STARTCHAR char9317
ENCODING 9317
SWIDTH 1000 0
DWIDTH 10 0
BBX 9 6 0 1
BITMAP
AB80
AA00
EA00
AE00
F600
B380
ENDCHAR
STARTCHAR char9318
ENCODING 9318
SWIDTH 1000 0
DWIDTH 10 0
BBX 9 6 0 1
BITMAP
D780
5100
7100
5380
7480
4880
ENDCHAR
STARTCHAR char9319
ENCODING 9319
SWIDTH 1000 0
DWIDTH 10 0
BBX 9 6 0 1
BITMAP
DF80
5400
7780
5400
7780
4000
ENDCHAR
STARTCHAR char9320
ENCODING 9320
SWIDTH 1000 0
DWIDTH 10 0
BBX 5 9 2 0
BITMAP
08
88
F8
F8
A0
70
88
88
70
ENDCHAR
STARTCHAR char9321
ENCODING 9321
SWIDTH 1000 0
DWIDTH 10 0
BBX 7 9 1 0
BITMAP
06
D2
7E
5E
7A
38
44
44
38
ENDCHAR
STARTCHAR char9322
ENCODING 9322
SWIDTH 1000 0
DWIDTH 10 0
BBX 9 6 0 1
BITMAP
2F80
2100
2100
5100
5100
8900
ENDCHAR
STARTCHAR char9323
ENCODING 9323
SWIDTH 1000 0
DWIDTH 10 0
BBX 9 6 0 1
BITMAP
2400
2400
3400
7400
5C00
8B80
ENDCHAR
STARTCHAR char9324
ENCODING 9324
SWIDTH 1000 0
DWIDTH 10 0
BBX 9 6 0 1
BITMAP
2780
2400
2400
5400
5400
8B80
ENDCHAR
STARTCHAR char9325
ENCODING 9325
SWIDTH 1000 0
DWIDTH 10 0
BBX 9 6 0 1
BITMAP
2580
2480
3780
7480
5F80
8800
ENDCHAR
STARTCHAR char9326
ENCODING 9326
SWIDTH 1000 0
DWIDTH 10 0
BBX 9 6 0 1
BITMAP
2300
2100
3300
7380
5C80
8080
ENDCHAR
STARTCHAR char9327
ENCODING 9327
SWIDTH 1000 0
DWIDTH 10 0
BBX 6 7 2 1
BITMAP
20
30
70
58
C8
8C
FC
ENDCHAR
STARTCHAR char9328
ENCODING 9328
SWIDTH 1000 0
DWIDTH 10 0
BBX 8 6 1 1
BITMAP
46
E7
99
99
BD
66
ENDCHAR
STARTCHAR char9329
ENCODING 9329
SWIDTH 1000 0
DWIDTH 10 0
BBX 5 6 2 1
BITMAP
20
78
88
88
C8
70
ENDCHAR
STARTCHAR char9330
ENCODING 9330
SWIDTH 1000 0
DWIDTH 10 0
BBX 9 6 0 1
BITMAP
6200
7200
9300
9700
D580
6880
ENDCHAR
STARTCHAR char9331
ENCODING 9331
SWIDTH 1000 0
DWIDTH 10 0
BBX 9 6 0 1
BITMAP
6200
7300
9700
9580
DC80
6F80
ENDCHAR
STARTCHAR char9332
ENCODING 9332
SWIDTH 1000 0
DWIDTH 10 0
BBX 6 8 2 0
BITMAP
FC
58
FC
20
70
C8
88
70
ENDCHAR
STARTCHAR char9333
ENCODING 9333
SWIDTH 1000 0
DWIDTH 10 0
BBX 9 6 0 1
BITMAP
7300
FF80
2300
5480
5480
2300
ENDCHAR
STARTCHAR char9334
ENCODING 9334
SWIDTH 1000 0
DWIDTH 10 0
BBX 7 6 1 1
BITMAP
FE
00
38
44
6C
30
ENDCHAR
STARTCHAR char9335
ENCODING 9335
SWIDTH 1000 0
DWIDTH 10 0
BBX 9 9 0 0
BITMAP
0200
0200
1A00
6B80
2A00
3F80
F200
0200
0200
ENDCHAR
STARTCHAR char9336
ENCODING 9336
SWIDTH 1000 0
DWIDTH 10 0
BBX 8 9 0 0
BITMAP
07
05
15
57
55
5F
E5
05
01
ENDCHAR
STARTCHAR char9337
ENCODING 9337
SWIDTH 1000 0
DWIDTH 10 0
BBX 7 9 0 0
BITMAP
02
02
1A
6A
2A
3E
F2
02
02
ENDCHAR
STARTCHAR char9338
ENCODING 9338
SWIDTH 1000 0
DWIDTH 10 0
BBX 8 9 0 0
BITMAP
03
01
01
1F
F7
21
27
21
01
ENDCHAR
STARTCHAR char9339
ENCODING 9339
SWIDTH 1000 0
DWIDTH 10 0
BBX 9 9 0 0
BITMAP
0780
0280
0280
3E80
FE80
5280
5E80
1280
0080
ENDCHAR
STARTCHAR char9340
ENCODING 9340
SWIDTH 1000 0
DWIDTH 10 0
BBX 8 9 0 0
BITMAP
03
01
01
0F
F9
29
29
29
01
ENDCHAR
STARTCHAR char9341
ENCODING 9341
SWIDTH 1000 0
DWIDTH 10 0
BBX 1 1 4 4
BITMAP
80
ENDCHAR
STARTCHAR char9342
ENCODING 9342
SWIDTH 1000 0
DWIDTH 10 0
BBX 5 9 2 0
BITMAP
08
08
08
08
88
08
08
08
08
ENDCHAR
STARTCHAR char9505
ENCODING 9505
SWIDTH 1000 0
DWIDTH 10 0
BBX 2 7 3 1
BITMAP
40
00
C0
40
40
40
C0
ENDCHAR
STARTCHAR char9506
ENCODING 9506
SWIDTH 1000 0
DWIDTH 10 0
BBX 6 7 2 1
BITMAP
48
00
C8
48
48
48
CC
ENDCHAR
STARTCHAR char9507
ENCODING 9507
SWIDTH 1000 0
DWIDTH 10 0
BBX 7 7 1 1
BITMAP
52
00
D6
52
52
52
DE
ENDCHAR
STARTCHAR char9508
ENCODING 9508
SWIDTH 1000 0
DWIDTH 10 0
BBX 7 7 2 1
BITMAP
80
00
B6
B4
94
98
C8
ENDCHAR
STARTCHAR char9509
ENCODING 9509
SWIDTH 1000 0
DWIDTH 10 0
BBX 5 5 2 1
BITMAP
D8
58
50
30
20
ENDCHAR
STARTCHAR char9510
ENCODING 9510
SWIDTH 1000 0
DWIDTH 10 0
BBX 7 7 1 1
BITMAP
02
00
DE
D2
52
62
26
ENDCHAR
STARTCHAR char9511
ENCODING 9511
SWIDTH 1000 0
DWIDTH 10 0
BBX 9 7 0 1
BITMAP
0280
0000
DF80
5280
5280
3280
2780
ENDCHAR
STARTCHAR char9512
ENCODING 9512
SWIDTH 1000 0
DWIDTH 10 0
BBX 9 7 0 1
BITMAP
0680
0000
FF80
5680
6680
6680
2F80
ENDCHAR
STARTCHAR char9513
ENCODING 9513
SWIDTH 1000 0
DWIDTH 10 0
BBX 7 7 1 1
BITMAP
40
00
F6
5C
48
5C
F6
ENDCHAR
STARTCHAR char9514
ENCODING 9514
SWIDTH 1000 0
DWIDTH 10 0
BBX 5 5 2 1
BITMAP
D8
70
20
70
D8
ENDCHAR
STARTCHAR char9515
ENCODING 9515
SWIDTH 1000 0
DWIDTH 10 0
BBX 0 0 0 0
BITMAP
ENDCHAR
STARTCHAR char9516
ENCODING 9516
SWIDTH 1000 0
DWIDTH 10 0
BBX 0 0 0 0
BITMAP
ENDCHAR
STARTCHAR char9517
ENCODING 9517
SWIDTH 1000 0
DWIDTH 10 0
BBX 0 0 0 0
BITMAP
ENDCHAR
STARTCHAR char9518
ENCODING 9518
SWIDTH 1000 0
DWIDTH 10 0
BBX 0 0 0 0
BITMAP
ENDCHAR
STARTCHAR char9519
ENCODING 9519
SWIDTH 1000 0
DWIDTH 10 0
BBX 0 0 0 0
BITMAP
ENDCHAR
STARTCHAR char9520
ENCODING 9520
SWIDTH 1000 0
DWIDTH 10 0
BBX 3 8 3 1
BITMAP
E0
40
40
40
40
40
40
E0
ENDCHAR
STARTCHAR char9521
ENCODING 9521
SWIDTH 1000 0
DWIDTH 10 0
BBX 6 8 2 1
BITMAP
FC
48
48
48
48
48
48
FC
ENDCHAR
STARTCHAR char9522
ENCODING 9522
SWIDTH 1000 0
DWIDTH 10 0
BBX 8 8 1 1
BITMAP
FF
52
52
52
52
52
52
FF
ENDCHAR
STARTCHAR char9523
ENCODING 9523
SWIDTH 1000 0
DWIDTH 10 0
BBX 8 8 1 1
BITMAP
F3
51
52
5A
4A
4C
4C
E4
ENDCHAR
STARTCHAR char9524
ENCODING 9524
SWIDTH 1000 0
DWIDTH 10 0
BBX 6 8 2 1
BITMAP
CC
88
48
58
50
30
30
20
ENDCHAR
STARTCHAR char9525
ENCODING 9525
SWIDTH 1000 0
DWIDTH 10 0
BBX 9 8 0 1
BITMAP
CF80
4500
4900
6900
2900
3100
3100
1380
ENDCHAR
STARTCHAR char9526
ENCODING 9526
SWIDTH 1000 0
DWIDTH 10 0
BBX 10 8 0 1
BITMAP
CFC0
8A80
4A80
5A80
5280
3280
3280
27C0
ENDCHAR
STARTCHAR char9527
ENCODING 9527
SWIDTH 1000 0
DWIDTH 10 0
BBX 10 8 0 1
BITMAP
CFC0
8D80
4D80
5D80
5580
3580
3580
27C0
ENDCHAR
STARTCHAR char9528
ENCODING 9528
SWIDTH 1000 0
DWIDTH 10 0
BBX 8 8 1 1
BITMAP
FB
53
5A
4C
4C
4E
52
F3
ENDCHAR
STARTCHAR char9529
ENCODING 9529
SWIDTH 1000 0
DWIDTH 10 0
BBX 6 8 2 1
BITMAP
CC
C8
58
30
30
70
48
CC
ENDCHAR
STARTCHAR char9530
ENCODING 9530
SWIDTH 1000 0
DWIDTH 10 0
BBX 0 0 0 0
BITMAP
ENDCHAR
STARTCHAR char9531
ENCODING 9531
SWIDTH 1000 0
DWIDTH 10 0
BBX 0 0 0 0
BITMAP
ENDCHAR
STARTCHAR char9532
ENCODING 9532
SWIDTH 1000 0
DWIDTH 10 0
BBX 0 0 0 0
BITMAP
ENDCHAR
STARTCHAR char9533
ENCODING 9533
SWIDTH 1000 0
DWIDTH 10 0
BBX 0 0 0 0
BITMAP
ENDCHAR
STARTCHAR char9534
ENCODING 9534
SWIDTH 1000 0
DWIDTH 10 0
BBX 0 0 0 0
BITMAP
ENDCHAR
STARTCHAR char9535
ENCODING 9535
SWIDTH 1000 0
DWIDTH 10 0
BBX 0 0 0 0
BITMAP
ENDCHAR
STARTCHAR char9536
ENCODING 9536
SWIDTH 1000 0
DWIDTH 10 0
BBX 0 0 0 0
BITMAP
ENDCHAR
STARTCHAR char9537
ENCODING 9537
SWIDTH 1000 0
DWIDTH 10 0
BBX 7 8 1 1
BITMAP
04
0C
0C
14
3C
24
44
EE
ENDCHAR
STARTCHAR char9538
ENCODING 9538
SWIDTH 1000 0
DWIDTH 10 0
BBX 7 8 1 1
BITMAP
3C
12
22
3E
26
42
46
FC
ENDCHAR
STARTCHAR char9539
ENCODING 9539
SWIDTH 1000 0
DWIDTH 10 0
BBX 7 8 1 1
BITMAP
7E
22
22
20
40
40
40
E0
ENDCHAR
STARTCHAR char9540
ENCODING 9540
SWIDTH 1000 0
DWIDTH 10 0
BBX 6 8 1 1
BITMAP
04
0C
0C
14
34
24
44
FC
ENDCHAR
STARTCHAR char9541
ENCODING 9541
SWIDTH 1000 0
DWIDTH 10 0
BBX 7 8 1 1
BITMAP
3E
12
20
24
3C
40
44
F8
ENDCHAR
STARTCHAR char9542
ENCODING 9542
SWIDTH 1000 0
DWIDTH 10 0
BBX 7 8 1 1
BITMAP
3E
66
48
08
10
20
64
FC
ENDCHAR
STARTCHAR char9543
ENCODING 9543
SWIDTH 1000 0
DWIDTH 10 0
BBX 9 8 0 1
BITMAP
3B80
1100
3300
3E00
2200
2200
4400
EE00
ENDCHAR
STARTCHAR char9544
ENCODING 9544
SWIDTH 1000 0
DWIDTH 10 0
BBX 7 8 1 1
BITMAP
38
64
42
AA
BA
86
C4
78
ENDCHAR
STARTCHAR char9545
ENCODING 9545
SWIDTH 1000 0
DWIDTH 10 0
BBX 5 8 2 1
BITMAP
38
10
10
20
20
20
40
E0
ENDCHAR
STARTCHAR char9546
ENCODING 9546
SWIDTH 1000 0
DWIDTH 10 0
BBX 7 8 1 1
BITMAP
6E
28
70
40
50
50
88
CC
ENDCHAR
STARTCHAR char9547
ENCODING 9547
SWIDTH 1000 0
DWIDTH 10 0
BBX 7 8 1 1
BITMAP
04
0C
0C
14
34
24
44
EE
ENDCHAR
STARTCHAR char9548
ENCODING 9548
SWIDTH 1000 0
DWIDTH 10 0
BBX 9 8 0 1
BITMAP
3880
1980
1B80
1B00
2F00
2D00
6B00
EF00
ENDCHAR
STARTCHAR char9549
ENCODING 9549
SWIDTH 1000 0
DWIDTH 10 0
BBX 9 8 0 1
BITMAP
3380
1100
3900
2900
2F00
2600
4600
E200
ENDCHAR
STARTCHAR char9550
ENCODING 9550
SWIDTH 1000 0
DWIDTH 10 0
BBX 8 8 0 1
BITMAP
3F
63
00
22
3C
00
42
FE
ENDCHAR
STARTCHAR char9551
ENCODING 9551
SWIDTH 1000 0
DWIDTH 10 0
BBX 7 8 1 1
BITMAP
38
64
46
82
82
86
44
78
ENDCHAR
STARTCHAR char9552
ENCODING 9552
SWIDTH 1000 0
DWIDTH 10 0
BBX 8 8 0 1
BITMAP
7F
22
22
22
22
66
44
EE
ENDCHAR
STARTCHAR char9553
ENCODING 9553
SWIDTH 1000 0
DWIDTH 10 0
BBX 7 8 1 1
BITMAP
3C
12
22
26
3C
40
40
E0
ENDCHAR
STARTCHAR char9554
ENCODING 9554
SWIDTH 1000 0
DWIDTH 10 0
BBX 6 8 1 1
BITMAP
7C
64
24
10
10
20
44
FC
ENDCHAR
STARTCHAR char9555
ENCODING 9555
SWIDTH 1000 0
DWIDTH 10 0
BBX 8 8 1 1
BITMAP
7F
CB
92
10
10
20
20
70
ENDCHAR
STARTCHAR char9556
ENCODING 9556
SWIDTH 1000 0
DWIDTH 10 0
BBX 8 8 1 1
BITMAP
66
B9
10
10
20
20
20
70
ENDCHAR
STARTCHAR char9557
ENCODING 9557
SWIDTH 1000 0
DWIDTH 10 0
BBX 7 8 1 1
BITMAP
1C
08
7C
D2
94
AC
70
70
ENDCHAR
STARTCHAR char9558
ENCODING 9558
SWIDTH 1000 0
DWIDTH 10 0
BBX 7 8 1 1
BITMAP
EE
6C
28
30
30
38
48
FC
ENDCHAR
STARTCHAR char9559
ENCODING 9559
SWIDTH 1000 0
DWIDTH 10 0
BBX 8 8 1 1
BITMAP
5F
CA
5A
D2
94
7C
20
70
ENDCHAR
STARTCHAR char9560
ENCODING 9560
SWIDTH 1000 0
DWIDTH 10 0
BBX 7 8 1 1
BITMAP
38
64
42
82
86
44
BC
FC
ENDCHAR
STARTCHAR char9561
ENCODING 9561
SWIDTH 1000 0
DWIDTH 10 0
BBX 0 0 0 0
BITMAP
ENDCHAR
STARTCHAR char9562
ENCODING 9562
SWIDTH 1000 0
DWIDTH 10 0
BBX 0 0 0 0
BITMAP
ENDCHAR
STARTCHAR char9563
ENCODING 9563
SWIDTH 1000 0
DWIDTH 10 0
BBX 0 0 0 0
BITMAP
ENDCHAR
STARTCHAR char9564
ENCODING 9564
SWIDTH 1000 0
DWIDTH 10 0
BBX 0 0 0 0
BITMAP
ENDCHAR
STARTCHAR char9565
ENCODING 9565
SWIDTH 1000 0
DWIDTH 10 0
BBX 0 0 0 0
BITMAP
ENDCHAR
STARTCHAR char9566
ENCODING 9566
SWIDTH 1000 0
DWIDTH 10 0
BBX 0 0 0 0
BITMAP
ENDCHAR
STARTCHAR char9567
ENCODING 9567
SWIDTH 1000 0
DWIDTH 10 0
BBX 0 0 0 0
BITMAP
ENDCHAR
STARTCHAR char9568
ENCODING 9568
SWIDTH 1000 0
DWIDTH 10 0
BBX 0 0 0 0
BITMAP
ENDCHAR
STARTCHAR char9569
ENCODING 9569
SWIDTH 1000 0
DWIDTH 10 0
BBX 6 6 2 1
BITMAP
08
78
98
90
90
EC
ENDCHAR
STARTCHAR char9570
ENCODING 9570
SWIDTH 1000 0
DWIDTH 10 0
BBX 5 9 2 0
BITMAP
30
68
48
78
58
88
98
F0
80
ENDCHAR
STARTCHAR char9571
ENCODING 9571
SWIDTH 1000 0
DWIDTH 10 0
BBX 6 6 2 0
BITMAP
EC
B0
20
60
40
40
ENDCHAR
STARTCHAR char9572
ENCODING 9572
SWIDTH 1000 0
DWIDTH 10 0
BBX 5 8 2 1
BITMAP
30
58
28
30
58
88
98
70
ENDCHAR
STARTCHAR char9573
ENCODING 9573
SWIDTH 1000 0
DWIDTH 10 0
BBX 5 5 2 1
BITMAP
78
40
70
80
70
ENDCHAR
STARTCHAR char9574
ENCODING 9574
SWIDTH 1000 0
DWIDTH 10 0
BBX 5 9 2 0
BITMAP
40
58
70
40
80
80
70
10
70
ENDCHAR
STARTCHAR char9575
ENCODING 9575
SWIDTH 1000 0
DWIDTH 10 0
BBX 5 6 2 0
BITMAP
F8
68
48
D8
90
10
ENDCHAR
STARTCHAR char9576
ENCODING 9576
SWIDTH 1000 0
DWIDTH 10 0
BBX 5 8 2 1
BITMAP
30
68
48
88
F8
98
90
E0
ENDCHAR
STARTCHAR char9577
ENCODING 9577
SWIDTH 1000 0
DWIDTH 10 0
BBX 3 5 3 1
BITMAP
60
40
C0
80
E0
ENDCHAR
STARTCHAR char9578
ENCODING 9578
SWIDTH 1000 0
DWIDTH 10 0
BBX 5 5 3 1
BITMAP
50
E0
C0
C0
B8
ENDCHAR
STARTCHAR char9579
ENCODING 9579
SWIDTH 1000 0
DWIDTH 10 0
BBX 5 8 2 1
BITMAP
30
10
10
10
30
30
58
88
ENDCHAR
STARTCHAR char9580
ENCODING 9580
SWIDTH 1000 0
DWIDTH 10 0
BBX 6 6 2 0
BITMAP
48
48
48
90
FC
80
ENDCHAR
STARTCHAR char9581
ENCODING 9581
SWIDTH 1000 0
DWIDTH 10 0
BBX 4 6 3 1
BITMAP
90
90
90
B0
C0
C0
ENDCHAR
STARTCHAR char9582
ENCODING 9582
SWIDTH 1000 0
DWIDTH 10 0
BBX 5 9 2 0
BITMAP
30
60
78
40
78
80
C0
70
70
ENDCHAR
STARTCHAR char9583
ENCODING 9583
SWIDTH 1000 0
DWIDTH 10 0
BBX 5 5 2 1
BITMAP
70
48
88
90
70
ENDCHAR
STARTCHAR char9584
ENCODING 9584
SWIDTH 1000 0
DWIDTH 10 0
BBX 7 6 1 1
BITMAP
02
FE
2C
28
68
4C
ENDCHAR
STARTCHAR char9585
ENCODING 9585
SWIDTH 1000 0
DWIDTH 10 0
BBX 5 6 2 0
BITMAP
38
48
48
D8
B0
80
ENDCHAR
STARTCHAR char9586
ENCODING 9586
SWIDTH 1000 0
DWIDTH 10 0
BBX 6 6 2 1
BITMAP
1C
70
48
88
90
70
ENDCHAR
STARTCHAR char9587
ENCODING 9587
SWIDTH 1000 0
DWIDTH 10 0
BBX 5 6 2 1
BITMAP
08
F8
20
60
40
70
ENDCHAR
STARTCHAR char9588
ENCODING 9588
SWIDTH 1000 0
DWIDTH 10 0
BBX 4 5 3 1
BITMAP
D0
50
90
B0
E0
ENDCHAR
STARTCHAR char9589
ENCODING 9589
SWIDTH 1000 0
DWIDTH 10 0
BBX 6 6 2 0
BITMAP
7C
94
AC
E8
70
40
ENDCHAR
STARTCHAR char9590
ENCODING 9590
SWIDTH 1000 0
DWIDTH 10 0
BBX 7 6 1 0
BITMAP
76
1C
18
10
30
DC
ENDCHAR
STARTCHAR char9591
ENCODING 9591
SWIDTH 1000 0
DWIDTH 10 0
BBX 5 9 2 0
BITMAP
10
10
30
E8
A8
A8
F8
40
40
ENDCHAR
STARTCHAR char9592
ENCODING 9592
SWIDTH 1000 0
DWIDTH 10 0
BBX 7 5 1 1
BITMAP
6E
52
92
92
7C
ENDCHAR
STARTCHAR char9593
ENCODING 9593
SWIDTH 1000 0
DWIDTH 10 0
BBX 0 0 0 0
BITMAP
ENDCHAR
STARTCHAR char9594
ENCODING 9594
SWIDTH 1000 0
DWIDTH 10 0
BBX 0 0 0 0
BITMAP
ENDCHAR
STARTCHAR char9595
ENCODING 9595
SWIDTH 1000 0
DWIDTH 10 0
BBX 0 0 0 0
BITMAP
ENDCHAR
STARTCHAR char9596
ENCODING 9596
SWIDTH 1000 0
DWIDTH 10 0
BBX 0 0 0 0
BITMAP
ENDCHAR
STARTCHAR char9597
ENCODING 9597
SWIDTH 1000 0
DWIDTH 10 0
BBX 0 0 0 0
BITMAP
ENDCHAR
STARTCHAR char9598
ENCODING 9598
SWIDTH 1000 0
DWIDTH 10 0
BBX 0 0 0 0
BITMAP
ENDCHAR
STARTCHAR char9761
ENCODING 9761
SWIDTH 1000 0
DWIDTH 10 0
BBX 10 1 0 4
BITMAP
FFC0
ENDCHAR
STARTCHAR char9762
ENCODING 9762
SWIDTH 1000 0
DWIDTH 10 0
BBX 1 10 4 -1
BITMAP
80
80
80
80
80
80
80
80
80
80
ENDCHAR
STARTCHAR char9763
ENCODING 9763
SWIDTH 1000 0
DWIDTH 10 0
BBX 6 6 4 -1
BITMAP
FC
80
80
80
80
80
ENDCHAR
STARTCHAR char9764
ENCODING 9764
SWIDTH 1000 0
DWIDTH 10 0
BBX 5 6 0 -1
BITMAP
F8
08
08
08
08
08
ENDCHAR
STARTCHAR char9765
ENCODING 9765
SWIDTH 1000 0
DWIDTH 10 0
BBX 5 5 0 4
BITMAP
08
08
08
08
F8
ENDCHAR
STARTCHAR char9766
ENCODING 9766
SWIDTH 1000 0
DWIDTH 10 0
BBX 6 5 4 4
BITMAP
80
80
80
80
FC
ENDCHAR
STARTCHAR char9767
ENCODING 9767
SWIDTH 1000 0
DWIDTH 10 0
BBX 6 10 4 -1
BITMAP
80
80
80
80
FC
80
80
80
80
80
ENDCHAR
STARTCHAR char9768
ENCODING 9768
SWIDTH 1000 0
DWIDTH 10 0
BBX 10 6 0 -1
BITMAP
FFC0
0800
0800
0800
0800
0800
ENDCHAR
STARTCHAR char9769
ENCODING 9769
SWIDTH 1000 0
DWIDTH 10 0
BBX 5 10 0 -1
BITMAP
08
08
08
08
F8
08
08
08
08
08
ENDCHAR
STARTCHAR char9770
ENCODING 9770
SWIDTH 1000 0
DWIDTH 10 0
BBX 10 5 0 4
BITMAP
0800
0800
0800
0800
FFC0
ENDCHAR
STARTCHAR char9771
ENCODING 9771
SWIDTH 1000 0
DWIDTH 10 0
BBX 10 10 0 -1
BITMAP
0800
0800
0800
0800
FFC0
0800
0800
0800
0800
0800
ENDCHAR
STARTCHAR char9772
ENCODING 9772
SWIDTH 1000 0
DWIDTH 10 0
BBX 10 1 0 4
BITMAP
FFC0
ENDCHAR
STARTCHAR char9773
ENCODING 9773
SWIDTH 1000 0
DWIDTH 10 0
BBX 1 10 4 -1
BITMAP
80
80
80
80
80
80
80
80
80
80
ENDCHAR
STARTCHAR char9774
ENCODING 9774
SWIDTH 1000 0
DWIDTH 10 0
BBX 6 6 4 -1
BITMAP
FC
80
80
80
80
80
ENDCHAR
STARTCHAR char9775
ENCODING 9775
SWIDTH 1000 0
DWIDTH 10 0
BBX 5 6 0 -1
BITMAP
F8
08
08
08
08
08
ENDCHAR
STARTCHAR char9776
ENCODING 9776
SWIDTH 1000 0
DWIDTH 10 0
BBX 5 5 0 4
BITMAP
08
08
08
08
F8
ENDCHAR
STARTCHAR char9777
ENCODING 9777
SWIDTH 1000 0
DWIDTH 10 0
BBX 6 5 4 4
BITMAP
80
80
80
80
FC
ENDCHAR
STARTCHAR char9778
ENCODING 9778
SWIDTH 1000 0
DWIDTH 10 0
BBX 6 10 4 -1
BITMAP
80
80
80
80
FC
80
80
80
80
80
ENDCHAR
STARTCHAR char9779
ENCODING 9779
SWIDTH 1000 0
DWIDTH 10 0
BBX 10 6 0 -1
BITMAP
FFC0
0800
0800
0800
0800
0800
ENDCHAR
STARTCHAR char9780
ENCODING 9780
SWIDTH 1000 0
DWIDTH 10 0
BBX 5 10 0 -1
BITMAP
08
08
08
08
F8
08
08
08
08
08
ENDCHAR
STARTCHAR char9781
ENCODING 9781
SWIDTH 1000 0
DWIDTH 10 0
BBX 10 5 0 4
BITMAP
0800
0800
0800
0800
FFC0
ENDCHAR
STARTCHAR char9782
ENCODING 9782
SWIDTH 1000 0
DWIDTH 10 0
BBX 10 10 0 -1
BITMAP
0800
0800
0800
0800
FFC0
0800
0800
0800
0800
0800
ENDCHAR
STARTCHAR char9783
ENCODING 9783
SWIDTH 1000 0
DWIDTH 10 0
BBX 6 10 4 -1
BITMAP
80
80
80
80
FC
80
80
80
80
80
ENDCHAR
STARTCHAR char9784
ENCODING 9784
SWIDTH 1000 0
DWIDTH 10 0
BBX 10 6 0 -1
BITMAP
FFC0
0800
0800
0800
0800
0800
ENDCHAR
STARTCHAR char9785
ENCODING 9785
SWIDTH 1000 0
DWIDTH 10 0
BBX 5 10 0 -1
BITMAP
08
08
08
08
F8
08
08
08
08
08
ENDCHAR
STARTCHAR char9786
ENCODING 9786
SWIDTH 1000 0
DWIDTH 10 0
BBX 10 5 0 4
BITMAP
0800
0800
0800
0800
FFC0
ENDCHAR
STARTCHAR char9787
ENCODING 9787
SWIDTH 1000 0
DWIDTH 10 0
BBX 10 10 0 -1
BITMAP
0800
0800
0800
0800
FFC0
0800
0800
0800
0800
0800
ENDCHAR
STARTCHAR char9788
ENCODING 9788
SWIDTH 1000 0
DWIDTH 10 0
BBX 6 10 4 -1
BITMAP
80
80
80
80
FC
80
80
80
80
80
ENDCHAR
STARTCHAR char9789
ENCODING 9789
SWIDTH 1000 0
DWIDTH 10 0
BBX 10 6 0 -1
BITMAP
FFC0
0800
0800
0800
0800
0800
ENDCHAR
STARTCHAR char9790
ENCODING 9790
SWIDTH 1000 0
DWIDTH 10 0
BBX 5 10 0 -1
BITMAP
08
08
08
08
F8
08
08
08
08
08
ENDCHAR
STARTCHAR char9791
ENCODING 9791
SWIDTH 1000 0
DWIDTH 10 0
BBX 10 5 0 4
BITMAP
0800
0800
0800
0800
FFC0
ENDCHAR
STARTCHAR char9792
ENCODING 9792
SWIDTH 1000 0
DWIDTH 10 0
BBX 10 10 0 -1
BITMAP
0800
0800
0800
0800
FFC0
0800
0800
0800
0800
0800
ENDCHAR
STARTCHAR char9793
ENCODING 9793
SWIDTH 1000 0
DWIDTH 10 0
BBX 5 6 0 -1
BITMAP
F8
08
08
08
08
08
ENDCHAR
STARTCHAR char9794
ENCODING 9794
SWIDTH 1000 0
DWIDTH 10 0
BBX 5 6 0 -1
BITMAP
F8
08
08
08
08
08
ENDCHAR
STARTCHAR char9795
ENCODING 9795
SWIDTH 1000 0
DWIDTH 10 0
BBX 5 5 0 4
BITMAP
08
08
08
08
F8
ENDCHAR
STARTCHAR char9796
ENCODING 9796
SWIDTH 1000 0
DWIDTH 10 0
BBX 5 5 0 4
BITMAP
08
08
08
08
F8
ENDCHAR
STARTCHAR char9797
ENCODING 9797
SWIDTH 1000 0
DWIDTH 10 0
BBX 6 5 4 4
BITMAP
80
80
80
80
FC
ENDCHAR
STARTCHAR char9798
ENCODING 9798
SWIDTH 1000 0
DWIDTH 10 0
BBX 6 5 4 4
BITMAP
80
80
80
80
FC
ENDCHAR
STARTCHAR char9799
ENCODING 9799
SWIDTH 1000 0
DWIDTH 10 0
BBX 6 6 4 -1
BITMAP
FC
80
80
80
80
80
ENDCHAR
STARTCHAR char9800
ENCODING 9800
SWIDTH 1000 0
DWIDTH 10 0
BBX 6 6 4 -1
BITMAP
FC
80
80
80
80
80
ENDCHAR
STARTCHAR char9801
ENCODING 9801
SWIDTH 1000 0
DWIDTH 10 0
BBX 6 10 4 -1
BITMAP
80
80
80
80
FC
80
80
80
80
80
ENDCHAR
STARTCHAR char9802
ENCODING 9802
SWIDTH 1000 0
DWIDTH 10 0
BBX 6 10 4 -1
BITMAP
80
80
80
80
FC
80
80
80
80
80
ENDCHAR
STARTCHAR char9803
ENCODING 9803
SWIDTH 1000 0
DWIDTH 10 0
BBX 6 10 4 -1
BITMAP
80
80
80
80
FC
80
80
80
80
80
ENDCHAR
STARTCHAR char9804
ENCODING 9804
SWIDTH 1000 0
DWIDTH 10 0
BBX 6 10 4 -1
BITMAP
80
80
80
80
FC
80
80
80
80
80
ENDCHAR
STARTCHAR char9805
ENCODING 9805
SWIDTH 1000 0
DWIDTH 10 0
BBX 5 10 0 -1
BITMAP
08
08
08
08
F8
08
08
08
08
08
ENDCHAR
STARTCHAR char9806
ENCODING 9806
SWIDTH 1000 0
DWIDTH 10 0
BBX 5 10 0 -1
BITMAP
08
08
08
08
F8
08
08
08
08
08
ENDCHAR
STARTCHAR char9807
ENCODING 9807
SWIDTH 1000 0
DWIDTH 10 0
BBX 5 10 0 -1
BITMAP
08
08
08
08
F8
08
08
08
08
08
ENDCHAR
STARTCHAR char9808
ENCODING 9808
SWIDTH 1000 0
DWIDTH 10 0
BBX 5 10 0 -1
BITMAP
08
08
08
08
F8
08
08
08
08
08
ENDCHAR
STARTCHAR char9809
ENCODING 9809
SWIDTH 1000 0
DWIDTH 10 0
BBX 10 6 0 -1
BITMAP
FFC0
0800
0800
0800
0800
0800
ENDCHAR
STARTCHAR char9810
ENCODING 9810
SWIDTH 1000 0
DWIDTH 10 0
BBX 10 6 0 -1
BITMAP
FFC0
0800
0800
0800
0800
0800
ENDCHAR
STARTCHAR char9811
ENCODING 9811
SWIDTH 1000 0
DWIDTH 10 0
BBX 10 6 0 -1
BITMAP
FFC0
0800
0800
0800
0800
0800
ENDCHAR
STARTCHAR char9812
ENCODING 9812
SWIDTH 1000 0
DWIDTH 10 0
BBX 10 6 0 -1
BITMAP
FFC0
0800
0800
0800
0800
0800
ENDCHAR
STARTCHAR char9813
ENCODING 9813
SWIDTH 1000 0
DWIDTH 10 0
BBX 10 5 0 4
BITMAP
0800
0800
0800
0800
FFC0
ENDCHAR
STARTCHAR char9814
ENCODING 9814
SWIDTH 1000 0
DWIDTH 10 0
BBX 10 5 0 4
BITMAP
0800
0800
0800
0800
FFC0
ENDCHAR
STARTCHAR char9815
ENCODING 9815
SWIDTH 1000 0
DWIDTH 10 0
BBX 10 5 0 4
BITMAP
0800
0800
0800
0800
FFC0
ENDCHAR
STARTCHAR char9816
ENCODING 9816
SWIDTH 1000 0
DWIDTH 10 0
BBX 10 5 0 4
BITMAP
0800
0800
0800
0800
FFC0
ENDCHAR
STARTCHAR char9817
ENCODING 9817
SWIDTH 1000 0
DWIDTH 10 0
BBX 10 10 0 -1
BITMAP
0800
0800
0800
0800
FFC0
0800
0800
0800
0800
0800
ENDCHAR
STARTCHAR char9818
ENCODING 9818
SWIDTH 1000 0
DWIDTH 10 0
BBX 10 10 0 -1
BITMAP
0800
0800
0800
0800
FFC0
0800
0800
0800
0800
0800
ENDCHAR
STARTCHAR char9819
ENCODING 9819
SWIDTH 1000 0
DWIDTH 10 0
BBX 10 10 0 -1
BITMAP
0800
0800
0800
0800
FFC0
0800
0800
0800
0800
0800
ENDCHAR
STARTCHAR char9820
ENCODING 9820
SWIDTH 1000 0
DWIDTH 10 0
BBX 10 10 0 -1
BITMAP
0800
0800
0800
0800
FFC0
0800
0800
0800
0800
0800
ENDCHAR
STARTCHAR char9821
ENCODING 9821
SWIDTH 1000 0
DWIDTH 10 0
BBX 10 10 0 -1
BITMAP
0800
0800
0800
0800
FFC0
0800
0800
0800
0800
0800
ENDCHAR
STARTCHAR char9822
ENCODING 9822
SWIDTH 1000 0
DWIDTH 10 0
BBX 10 10 0 -1
BITMAP
0800
0800
0800
0800
FFC0
0800
0800
0800
0800
0800
ENDCHAR
STARTCHAR char9823
ENCODING 9823
SWIDTH 1000 0
DWIDTH 10 0
BBX 10 10 0 -1
BITMAP
0800
0800
0800
0800
FFC0
0800
0800
0800
0800
0800
ENDCHAR
STARTCHAR char9824
ENCODING 9824
SWIDTH 1000 0
DWIDTH 10 0
BBX 10 10 0 -1
BITMAP
0800
0800
0800
0800
FFC0
0800
0800
0800
0800
0800
ENDCHAR
STARTCHAR char9825
ENCODING 9825
SWIDTH 1000 0
DWIDTH 10 0
BBX 10 10 0 -1
BITMAP
0800
0800
0800
0800
FFC0
0800
0800
0800
0800
0800
ENDCHAR
STARTCHAR char9826
ENCODING 9826
SWIDTH 1000 0
DWIDTH 10 0
BBX 10 10 0 -1
BITMAP
0800
0800
0800
0800
FFC0
0800
0800
0800
0800
0800
ENDCHAR
STARTCHAR char9827
ENCODING 9827
SWIDTH 1000 0
DWIDTH 10 0
BBX 10 10 0 -1
BITMAP
0800
0800
0800
0800
FFC0
0800
0800
0800
0800
0800
ENDCHAR
STARTCHAR char9828
ENCODING 9828
SWIDTH 1000 0
DWIDTH 10 0
BBX 10 10 0 -1
BITMAP
0800
0800
0800
0800
FFC0
0800
0800
0800
0800
0800
ENDCHAR
STARTCHAR char9829
ENCODING 9829
SWIDTH 1000 0
DWIDTH 10 0
BBX 0 0 0 0
BITMAP
ENDCHAR
STARTCHAR char9830
ENCODING 9830
SWIDTH 1000 0
DWIDTH 10 0
BBX 0 0 0 0
BITMAP
ENDCHAR
STARTCHAR char9831
ENCODING 9831
SWIDTH 1000 0
DWIDTH 10 0
BBX 0 0 0 0
BITMAP
ENDCHAR
STARTCHAR char9832
ENCODING 9832
SWIDTH 1000 0
DWIDTH 10 0
BBX 0 0 0 0
BITMAP
ENDCHAR
STARTCHAR char9833
ENCODING 9833
SWIDTH 1000 0
DWIDTH 10 0
BBX 0 0 0 0
BITMAP
ENDCHAR
STARTCHAR char9834
ENCODING 9834
SWIDTH 1000 0
DWIDTH 10 0
BBX 0 0 0 0
BITMAP
ENDCHAR
STARTCHAR char9835
ENCODING 9835
SWIDTH 1000 0
DWIDTH 10 0
BBX 0 0 0 0
BITMAP
ENDCHAR
STARTCHAR char9836
ENCODING 9836
SWIDTH 1000 0
DWIDTH 10 0
BBX 0 0 0 0
BITMAP
ENDCHAR
STARTCHAR char9837
ENCODING 9837
SWIDTH 1000 0
DWIDTH 10 0
BBX 0 0 0 0
BITMAP
ENDCHAR
STARTCHAR char9838
ENCODING 9838
SWIDTH 1000 0
DWIDTH 10 0
BBX 0 0 0 0
BITMAP
ENDCHAR
STARTCHAR char9839
ENCODING 9839
SWIDTH 1000 0
DWIDTH 10 0
BBX 0 0 0 0
BITMAP
ENDCHAR
STARTCHAR char9840
ENCODING 9840
SWIDTH 1000 0
DWIDTH 10 0
BBX 0 0 0 0
BITMAP
ENDCHAR
STARTCHAR char9841
ENCODING 9841
SWIDTH 1000 0
DWIDTH 10 0
BBX 0 0 0 0
BITMAP
ENDCHAR
STARTCHAR char9842
ENCODING 9842
SWIDTH 1000 0
DWIDTH 10 0
BBX 0 0 0 0
BITMAP
ENDCHAR
STARTCHAR char9843
ENCODING 9843
SWIDTH 1000 0
DWIDTH 10 0
BBX 0 0 0 0
BITMAP
ENDCHAR
STARTCHAR char9844
ENCODING 9844
SWIDTH 1000 0
DWIDTH 10 0
BBX 0 0 0 0
BITMAP
ENDCHAR
STARTCHAR char9845
ENCODING 9845
SWIDTH 1000 0
DWIDTH 10 0
BBX 0 0 0 0
BITMAP
ENDCHAR
STARTCHAR char9846
ENCODING 9846
SWIDTH 1000 0
DWIDTH 10 0
BBX 0 0 0 0
BITMAP
ENDCHAR
STARTCHAR char9847
ENCODING 9847
SWIDTH 1000 0
DWIDTH 10 0
BBX 0 0 0 0
BITMAP
ENDCHAR
STARTCHAR char9848
ENCODING 9848
SWIDTH 1000 0
DWIDTH 10 0
BBX 0 0 0 0
BITMAP
ENDCHAR
STARTCHAR char9849
ENCODING 9849
SWIDTH 1000 0
DWIDTH 10 0
BBX 0 0 0 0
BITMAP
ENDCHAR
STARTCHAR char9850
ENCODING 9850
SWIDTH 1000 0
DWIDTH 10 0
BBX 0 0 0 0
BITMAP
ENDCHAR
STARTCHAR char9851
ENCODING 9851
SWIDTH 1000 0
DWIDTH 10 0
BBX 0 0 0 0
BITMAP
ENDCHAR
STARTCHAR char9852
ENCODING 9852
SWIDTH 1000 0
DWIDTH 10 0
BBX 0 0 0 0
BITMAP
ENDCHAR
STARTCHAR char9853
ENCODING 9853
SWIDTH 1000 0
DWIDTH 10 0
BBX 0 0 0 0
BITMAP
ENDCHAR
STARTCHAR char9854
ENCODING 9854
SWIDTH 1000 0
DWIDTH 10 0
BBX 0 0 0 0
BITMAP
ENDCHAR
STARTCHAR char10017
ENCODING 10017
SWIDTH 1000 0
DWIDTH 10 0
BBX 9 9 0 0
BITMAP
0100
0280
0280
2B00
6B00
4B00
5600
FF80
8000
ENDCHAR
STARTCHAR char10018
ENCODING 10018
SWIDTH 1000 0
DWIDTH 10 0
BBX 9 8 0 1
BITMAP
0100
0280
0280
FB80
6B00
6B00
6E00
FD80
ENDCHAR
STARTCHAR char10019
ENCODING 10019
SWIDTH 1000 0
DWIDTH 10 0
BBX 8 8 1 1
BITMAP
22
25
25
E7
A6
A6
AC
FB
ENDCHAR
STARTCHAR char10020
ENCODING 10020
SWIDTH 1000 0
DWIDTH 10 0
BBX 5 8 2 1
BITMAP
10
28
28
38
30
30
60
98
ENDCHAR
STARTCHAR char10021
ENCODING 10021
SWIDTH 1000 0
DWIDTH 10 0
BBX 9 8 0 1
BITMAP
C100
4280
4280
5B80
7300
6300
5600
DD80
ENDCHAR
STARTCHAR char10022
ENCODING 10022
SWIDTH 1000 0
DWIDTH 10 0
BBX 9 5 0 1
BITMAP
7700
9580
8400
9480
7700
ENDCHAR
STARTCHAR char10023
ENCODING 10023
SWIDTH 1000 0
DWIDTH 10 0
BBX 10 8 0 1
BITMAP
0080
00C0
00C0
FF80
B680
B680
B680
FF80
ENDCHAR
STARTCHAR char10024
ENCODING 10024
SWIDTH 1000 0
DWIDTH 10 0
BBX 10 7 0 1
BITMAP
00C0
00C0
EF80
BB00
8B00
9B00
EF80
ENDCHAR
STARTCHAR char10025
ENCODING 10025
SWIDTH 1000 0
DWIDTH 10 0
BBX 8 7 1 1
BITMAP
03
03
FF
94
94
94
F6
ENDCHAR
STARTCHAR char10026
ENCODING 10026
SWIDTH 1000 0
DWIDTH 10 0
BBX 10 8 0 1
BITMAP
C000
40C0
40C0
7F80
6B00
6B00
7B00
DF80
ENDCHAR
STARTCHAR char10027
ENCODING 10027
SWIDTH 1000 0
DWIDTH 10 0
BBX 9 8 0 1
BITMAP
2000
5000
4000
FF80
4A80
4A80
4A80
7F80
ENDCHAR
STARTCHAR char10028
ENCODING 10028
SWIDTH 1000 0
DWIDTH 10 0
BBX 9 5 0 1
BITMAP
FF80
5680
5680
5680
FF80
ENDCHAR
STARTCHAR char10029
ENCODING 10029
SWIDTH 1000 0
DWIDTH 10 0
BBX 10 6 0 0
BITMAP
4F80
5D80
5580
9580
FFC0
8000
ENDCHAR
STARTCHAR char10030
ENCODING 10030
SWIDTH 1000 0
DWIDTH 10 0
BBX 9 5 0 1
BITMAP
FF80
B680
B680
B680
FF80
ENDCHAR
STARTCHAR char10031
ENCODING 10031
SWIDTH 1000 0
DWIDTH 10 0
BBX 9 5 0 1
BITMAP
7F80
9680
8680
9680
7F80
ENDCHAR
STARTCHAR char10032
ENCODING 10032
SWIDTH 1000 0
DWIDTH 10 0
BBX 9 8 0 1
BITMAP
C000
4000
4000
7F00
6B00
6B00
7B00
DF80
ENDCHAR
STARTCHAR char10033
ENCODING 10033
SWIDTH 1000 0
DWIDTH 10 0
BBX 10 8 0 1
BITMAP
0080
00C0
00C0
FF80
B680
B680
B680
FF80
ENDCHAR
STARTCHAR char10034
ENCODING 10034
SWIDTH 1000 0
DWIDTH 10 0
BBX 10 7 0 1
BITMAP
00C0
0080
EFC0
BB00
8B00
9B00
EF80
ENDCHAR
STARTCHAR char10035
ENCODING 10035
SWIDTH 1000 0
DWIDTH 10 0
BBX 8 7 1 1
BITMAP
03
01
FF
94
94
94
F6
ENDCHAR
STARTCHAR char10036
ENCODING 10036
SWIDTH 1000 0
DWIDTH 10 0
BBX 10 8 0 1
BITMAP
C000
40C0
4080
7FC0
6B00
6B00
7B00
DF80
ENDCHAR
STARTCHAR char10037
ENCODING 10037
SWIDTH 1000 0
DWIDTH 10 0
BBX 9 8 0 1
BITMAP
C000
4000
4000
7700
5300
5500
5500
DF80
ENDCHAR
STARTCHAR char10038
ENCODING 10038
SWIDTH 1000 0
DWIDTH 10 0
BBX 10 6 0 0
BITMAP
4BC0
5A80
5300
9380
FC80
8380
ENDCHAR
STARTCHAR char10039
ENCODING 10039
SWIDTH 1000 0
DWIDTH 10 0
BBX 10 6 0 0
BITMAP
FBC0
6A80
6B00
6B80
FC80
0380
ENDCHAR
STARTCHAR char10040
ENCODING 10040
SWIDTH 1000 0
DWIDTH 10 0
BBX 9 9 0 0
BITMAP
C000
4000
4000
7F80
6500
6700
5700
DC80
0700
ENDCHAR
STARTCHAR char10041
ENCODING 10041
SWIDTH 1000 0
DWIDTH 10 0
BBX 9 8 0 1
BITMAP
C000
4200
4200
7700
6200
6200
5200
DB80
ENDCHAR
STARTCHAR char10042
ENCODING 10042
SWIDTH 1000 0
DWIDTH 10 0
BBX 9 8 0 1
BITMAP
0180
0080
0080
EC80
B280
8E80
B280
FF80
ENDCHAR
STARTCHAR char10043
ENCODING 10043
SWIDTH 1000 0
DWIDTH 10 0
BBX 9 8 0 1
BITMAP
8180
8080
8080
FE80
D280
D680
F680
FF80
ENDCHAR
STARTCHAR char10044
ENCODING 10044
SWIDTH 1000 0
DWIDTH 10 0
BBX 8 8 0 1
BITMAP
3E
15
15
77
95
95
95
7F
ENDCHAR
STARTCHAR char10045
ENCODING 10045
SWIDTH 1000 0
DWIDTH 10 0
BBX 9 8 0 0
BITMAP
0400
0400
F780
B680
B780
BC80
FB80
0800
ENDCHAR
STARTCHAR char10046
ENCODING 10046
SWIDTH 1000 0
DWIDTH 10 0
BBX 10 9 0 0
BITMAP
0080
04C0
04C0
F780
B680
B700
BC80
FB80
0800
ENDCHAR
STARTCHAR char10047
ENCODING 10047
SWIDTH 1000 0
DWIDTH 10 0
BBX 9 6 0 0
BITMAP
F380
4E80
4B80
5880
7780
C000
ENDCHAR
STARTCHAR char10048
ENCODING 10048
SWIDTH 1000 0
DWIDTH 10 0
BBX 9 5 0 1
BITMAP
F380
5680
5380
5480
DF80
ENDCHAR
STARTCHAR char10049
ENCODING 10049
SWIDTH 1000 0
DWIDTH 10 0
BBX 9 6 0 0
BITMAP
4B80
5E80
5380
9480
FF80
8000
ENDCHAR
STARTCHAR char10050
ENCODING 10050
SWIDTH 1000 0
DWIDTH 10 0
BBX 9 5 0 1
BITMAP
FB80
6E80
6B80
6C80
FF80
ENDCHAR
STARTCHAR char10051
ENCODING 10051
SWIDTH 1000 0
DWIDTH 10 0
BBX 10 9 0 0
BITMAP
0CC0
0880
0480
F580
4D00
4B00
5B00
7200
C000
ENDCHAR
STARTCHAR char10052
ENCODING 10052
SWIDTH 1000 0
DWIDTH 10 0
BBX 10 8 0 1
BITMAP
0CC0
0880
0480
F580
5500
5300
5300
DA00
ENDCHAR
STARTCHAR char10053
ENCODING 10053
SWIDTH 1000 0
DWIDTH 10 0
BBX 10 9 0 0
BITMAP
0CC0
0880
0480
4D80
5D00
5300
9300
FA00
8000
ENDCHAR
STARTCHAR char10054
ENCODING 10054
SWIDTH 1000 0
DWIDTH 10 0
BBX 10 8 0 1
BITMAP
0CC0
0880
0480
FD80
6D00
6B00
6B00
FA00
ENDCHAR
STARTCHAR char10055
ENCODING 10055
SWIDTH 1000 0
DWIDTH 10 0
BBX 10 8 0 1
BITMAP
CCC0
4880
4480
5D80
7500
6300
5300
DA00
ENDCHAR
STARTCHAR char10056
ENCODING 10056
SWIDTH 1000 0
DWIDTH 10 0
BBX 10 8 0 1
BITMAP
9CC0
9880
D480
F580
F500
B300
B300
DA00
ENDCHAR
STARTCHAR char10057
ENCODING 10057
SWIDTH 1000 0
DWIDTH 10 0
BBX 10 9 0 0
BITMAP
0100
0100
0300
F380
4A80
4F80
5C80
76C0
C000
ENDCHAR
STARTCHAR char10058
ENCODING 10058
SWIDTH 1000 0
DWIDTH 10 0
BBX 9 8 0 1
BITMAP
0200
0200
0300
F700
9500
9780
9480
FD80
ENDCHAR
STARTCHAR char10059
ENCODING 10059
SWIDTH 1000 0
DWIDTH 10 0
BBX 10 9 0 0
BITMAP
0100
0100
0300
4B80
5A80
5780
9480
FEC0
8000
ENDCHAR
STARTCHAR char10060
ENCODING 10060
SWIDTH 1000 0
DWIDTH 10 0
BBX 9 8 0 1
BITMAP
0200
0200
0300
F700
B500
B780
B480
FD80
ENDCHAR
STARTCHAR char10061
ENCODING 10061
SWIDTH 1000 0
DWIDTH 10 0
BBX 9 8 0 1
BITMAP
8200
8200
8300
B700
A500
E780
B480
DD80
ENDCHAR
STARTCHAR char10062
ENCODING 10062
SWIDTH 1000 0
DWIDTH 10 0
BBX 10 9 0 0
BITMAP
0FC0
0A80
0A80
FF80
9780
9780
D500
E500
C000
ENDCHAR
STARTCHAR char10063
ENCODING 10063
SWIDTH 1000 0
DWIDTH 10 0
BBX 10 8 0 1
BITMAP
0FC0
0A80
0A80
FF80
5780
5780
5500
DD00
ENDCHAR
STARTCHAR char10064
ENCODING 10064
SWIDTH 1000 0
DWIDTH 10 0
BBX 10 9 0 0
BITMAP
0FC0
0A80
0A80
4F80
5F80
5780
9500
FD00
8000
ENDCHAR
STARTCHAR char10065
ENCODING 10065
SWIDTH 1000 0
DWIDTH 10 0
BBX 10 8 0 1
BITMAP
0FC0
0A80
0A80
FF80
B780
B780
B500
FD00
ENDCHAR
STARTCHAR char10066
ENCODING 10066
SWIDTH 1000 0
DWIDTH 10 0
BBX 10 8 0 1
BITMAP
8FC0
8A80
8A80
BF80
A780
E780
B500
DD00
ENDCHAR
STARTCHAR char10067
ENCODING 10067
SWIDTH 1000 0
DWIDTH 10 0
BBX 10 8 0 1
BITMAP
9FC0
9A80
DA80
FF80
F780
B780
B500
DD00
ENDCHAR
STARTCHAR char10068
ENCODING 10068
SWIDTH 1000 0
DWIDTH 10 0
BBX 9 8 0 1
BITMAP
D800
9000
9000
F780
9500
9300
9280
DF80
ENDCHAR
STARTCHAR char10069
ENCODING 10069
SWIDTH 1000 0
DWIDTH 10 0
BBX 9 8 0 1
BITMAP
9E00
9400
9400
BF80
F680
D500
B580
FF80
ENDCHAR
STARTCHAR char10070
ENCODING 10070
SWIDTH 1000 0
DWIDTH 10 0
BBX 10 8 0 1
BITMAP
BE00
AA00
EA00
EFC0
EB80
EA80
AB40
FFC0
ENDCHAR
STARTCHAR char10071
ENCODING 10071
SWIDTH 1000 0
DWIDTH 10 0
BBX 10 8 0 1
BITMAP
7E00
AA00
8A00
FFC0
AB80
AA80
AB40
FFC0
ENDCHAR
STARTCHAR char10072
ENCODING 10072
SWIDTH 1000 0
DWIDTH 10 0
BBX 10 8 0 1
BITMAP
FE00
DA00
4A00
4FC0
4B80
4A80
4B40
7FC0
ENDCHAR
STARTCHAR char10073
ENCODING 10073
SWIDTH 1000 0
DWIDTH 10 0
BBX 8 8 1 1
BITMAP
3C
46
82
82
C2
64
A9
EF
ENDCHAR
STARTCHAR char10074
ENCODING 10074
SWIDTH 1000 0
DWIDTH 10 0
BBX 9 8 0 1
BITMAP
8700
8D80
8880
B880
E880
C500
AD80
FD80
ENDCHAR
STARTCHAR char10075
ENCODING 10075
SWIDTH 1000 0
DWIDTH 10 0
BBX 10 8 0 1
BITMAP
9B00
9480
D480
F480
F480
B780
BB40
DFC0
ENDCHAR
STARTCHAR char10076
ENCODING 10076
SWIDTH 1000 0
DWIDTH 10 0
BBX 9 9 0 0
BITMAP
0F80
0480
0500
F700
4D00
4C00
5C00
7600
C000
ENDCHAR
STARTCHAR char10077
ENCODING 10077
SWIDTH 1000 0
DWIDTH 10 0
BBX 9 8 0 1
BITMAP
0F80
0480
0500
F700
5500
5400
5400
DE00
ENDCHAR
STARTCHAR char10078
ENCODING 10078
SWIDTH 1000 0
DWIDTH 10 0
BBX 10 9 0 0
BITMAP
0780
02C0
0280
4B80
5A80
5200
9200
FE00
8000
ENDCHAR
STARTCHAR char10079
ENCODING 10079
SWIDTH 1000 0
DWIDTH 10 0
BBX 10 8 0 1
BITMAP
0080
0080
0080
F780
B580
B580
B580
FFC0
ENDCHAR
STARTCHAR char10080
ENCODING 10080
SWIDTH 1000 0
DWIDTH 10 0
BBX 9 8 0 1
BITMAP
0300
0100
0100
7700
9500
8500
9500
7780
ENDCHAR
STARTCHAR char10081
ENCODING 10081
SWIDTH 1000 0
DWIDTH 10 0
BBX 9 8 0 1
BITMAP
0180
0080
0080
FF80
4E80
5680
5680
DF80
ENDCHAR
STARTCHAR char10082
ENCODING 10082
SWIDTH 1000 0
DWIDTH 10 0
BBX 9 9 0 0
BITMAP
0200
FE00
7E00
FF80
0300
0D00
3280
C180
0380
ENDCHAR
STARTCHAR char10083
ENCODING 10083
SWIDTH 1000 0
DWIDTH 10 0
BBX 10 9 0 0
BITMAP
0200
FE00
7E00
FF80
0380
0E40
32C0
C300
0300
ENDCHAR
STARTCHAR char10084
ENCODING 10084
SWIDTH 1000 0
DWIDTH 10 0
BBX 8 5 1 1
BITMAP
FF
94
64
94
EC
ENDCHAR
STARTCHAR char10085
ENCODING 10085
SWIDTH 1000 0
DWIDTH 10 0
BBX 10 8 0 1
BITMAP
F000
5800
4800
4F00
5880
7780
4480
C7C0
ENDCHAR
STARTCHAR char10086
ENCODING 10086
SWIDTH 1000 0
DWIDTH 10 0
BBX 10 8 0 1
BITMAP
9C00
8E00
8A00
BB80
EE80
CB80
AA80
FFC0
ENDCHAR
STARTCHAR char10087
ENCODING 10087
SWIDTH 1000 0
DWIDTH 10 0
BBX 10 8 0 1
BITMAP
BC00
AE00
EA00
EB80
EE80
EB80
AA80
FFC0
ENDCHAR
STARTCHAR char10088
ENCODING 10088
SWIDTH 1000 0
DWIDTH 10 0
BBX 10 8 0 1
BITMAP
5C00
AE00
8A00
8B80
FE80
AB80
AA80
FFC0
ENDCHAR
STARTCHAR char10089
ENCODING 10089
SWIDTH 1000 0
DWIDTH 10 0
BBX 9 8 0 1
BITMAP
DE00
4A00
6A00
6B80
7A80
7A80
5280
5380
ENDCHAR
STARTCHAR char10090
ENCODING 10090
SWIDTH 1000 0
DWIDTH 10 0
BBX 8 8 1 1
BITMAP
80
80
80
BF
95
95
95
FF
ENDCHAR
STARTCHAR char10091
ENCODING 10091
SWIDTH 1000 0
DWIDTH 10 0
BBX 8 8 1 1
BITMAP
80
80
80
B3
9E
8C
92
F3
ENDCHAR
STARTCHAR char10092
ENCODING 10092
SWIDTH 1000 0
DWIDTH 10 0
BBX 9 9 0 0
BITMAP
E000
9000
9000
F780
9480
9480
9580
F380
0180
ENDCHAR
STARTCHAR char10093
ENCODING 10093
SWIDTH 1000 0
DWIDTH 10 0
BBX 10 9 0 0
BITMAP
7000
D000
9000
86C0
BC80
9380
9300
7400
0400
ENDCHAR
STARTCHAR char10094
ENCODING 10094
SWIDTH 1000 0
DWIDTH 10 0
BBX 9 8 0 1
BITMAP
7800
D800
8800
6D80
3580
0D00
8B00
F200
ENDCHAR
STARTCHAR char10095
ENCODING 10095
SWIDTH 1000 0
DWIDTH 10 0
BBX 10 9 0 0
BITMAP
0800
E800
9800
9FC0
9D80
9D80
FD80
2B40
2FC0
ENDCHAR
STARTCHAR char10096
ENCODING 10096
SWIDTH 1000 0
DWIDTH 10 0
BBX 0 0 0 0
BITMAP
ENDCHAR
STARTCHAR char10097
ENCODING 10097
SWIDTH 1000 0
DWIDTH 10 0
BBX 0 0 0 0
BITMAP
ENDCHAR
STARTCHAR char10098
ENCODING 10098
SWIDTH 1000 0
DWIDTH 10 0
BBX 0 0 0 0
BITMAP
ENDCHAR
STARTCHAR char10099
ENCODING 10099
SWIDTH 1000 0
DWIDTH 10 0
BBX 0 0 0 0
BITMAP
ENDCHAR
STARTCHAR char10100
ENCODING 10100
SWIDTH 1000 0
DWIDTH 10 0
BBX 0 0 0 0
BITMAP
ENDCHAR
STARTCHAR char10101
ENCODING 10101
SWIDTH 1000 0
DWIDTH 10 0
BBX 0 0 0 0
BITMAP
ENDCHAR
STARTCHAR char10102
ENCODING 10102
SWIDTH 1000 0
DWIDTH 10 0
BBX 0 0 0 0
BITMAP
ENDCHAR
STARTCHAR char10103
ENCODING 10103
SWIDTH 1000 0
DWIDTH 10 0
BBX 0 0 0 0
BITMAP
ENDCHAR
STARTCHAR char10104
ENCODING 10104
SWIDTH 1000 0
DWIDTH 10 0
BBX 0 0 0 0
BITMAP
ENDCHAR
STARTCHAR char10105
ENCODING 10105
SWIDTH 1000 0
DWIDTH 10 0
BBX 0 0 0 0
BITMAP
ENDCHAR
STARTCHAR char10106
ENCODING 10106
SWIDTH 1000 0
DWIDTH 10 0
BBX 0 0 0 0
BITMAP
ENDCHAR
STARTCHAR char10107
ENCODING 10107
SWIDTH 1000 0
DWIDTH 10 0
BBX 0 0 0 0
BITMAP
ENDCHAR
STARTCHAR char10108
ENCODING 10108
SWIDTH 1000 0
DWIDTH 10 0
BBX 0 0 0 0
BITMAP
ENDCHAR
STARTCHAR char10109
ENCODING 10109
SWIDTH 1000 0
DWIDTH 10 0
BBX 0 0 0 0
BITMAP
ENDCHAR
STARTCHAR char10110
ENCODING 10110
SWIDTH 1000 0
DWIDTH 10 0
BBX 0 0 0 0
BITMAP
ENDCHAR
STARTCHAR char10273
ENCODING 10273
SWIDTH 1000 0
DWIDTH 10 0
BBX 9 8 0 1
BITMAP
1F00
1980
1880
3900
3F00
6900
4880
DF00
ENDCHAR
STARTCHAR char10274
ENCODING 10274
SWIDTH 1000 0
DWIDTH 10 0
BBX 8 8 0 1
BITMAP
7C
22
23
F9
21
21
22
7E
ENDCHAR
STARTCHAR char10275
ENCODING 10275
SWIDTH 1000 0
DWIDTH 10 0
BBX 4 7 3 1
BITMAP
E0
90
F0
90
F0
00
F0
ENDCHAR
STARTCHAR char10276
ENCODING 10276
SWIDTH 1000 0
DWIDTH 10 0
BBX 9 7 0 1
BITMAP
7700
FF80
2200
3E00
2200
2200
7700
ENDCHAR
STARTCHAR char10277
ENCODING 10277
SWIDTH 1000 0
DWIDTH 10 0
BBX 0 0 0 0
BITMAP
ENDCHAR
STARTCHAR char10278
ENCODING 10278
SWIDTH 1000 0
DWIDTH 10 0
BBX 7 8 1 1
BITMAP
EE
44
44
44
44
44
54
FC
ENDCHAR
STARTCHAR char10279
ENCODING 10279
SWIDTH 1000 0
DWIDTH 10 0
BBX 0 0 0 0
BITMAP
ENDCHAR
STARTCHAR char10280
ENCODING 10280
SWIDTH 1000 0
DWIDTH 10 0
BBX 7 8 1 1
BITMAP
E0
40
40
46
40
40
42
FE
ENDCHAR
STARTCHAR char10281
ENCODING 10281
SWIDTH 1000 0
DWIDTH 10 0
BBX 8 8 0 1
BITMAP
70
22
2C
30
E0
20
21
7F
ENDCHAR
STARTCHAR char10282
ENCODING 10282
SWIDTH 1000 0
DWIDTH 10 0
BBX 9 9 0 0
BITMAP
1C80
2300
4300
4500
4900
5100
6300
7E00
8000
ENDCHAR
STARTCHAR char10283
ENCODING 10283
SWIDTH 1000 0
DWIDTH 10 0
BBX 9 8 0 1
BITMAP
7F80
C880
8C80
8500
8700
8500
8880
7F80
ENDCHAR
STARTCHAR char10284
ENCODING 10284
SWIDTH 1000 0
DWIDTH 10 0
BBX 5 7 2 1
BITMAP
70
C8
88
88
78
00
F8
ENDCHAR
STARTCHAR char10285
ENCODING 10285
SWIDTH 1000 0
DWIDTH 10 0
BBX 6 8 2 1
BITMAP
E0
40
78
4C
44
48
70
E0
ENDCHAR
STARTCHAR char10286
ENCODING 10286
SWIDTH 1000 0
DWIDTH 10 0
BBX 8 7 1 1
BITMAP
FE
91
10
7C
10
10
38
ENDCHAR
STARTCHAR char10287
ENCODING 10287
SWIDTH 1000 0
DWIDTH 10 0
BBX 6 8 1 1
BITMAP
E0
40
78
64
44
44
44
EC
ENDCHAR
STARTCHAR char10288
ENCODING 10288
SWIDTH 1000 0
DWIDTH 10 0
BBX 0 0 0 0
BITMAP
ENDCHAR
STARTCHAR char10289
ENCODING 10289
SWIDTH 1000 0
DWIDTH 10 0
BBX 9 9 0 0
BITMAP
3E00
4100
BE80
8480
8480
8480
8480
4100
3E00
ENDCHAR
STARTCHAR char10290
ENCODING 10290
SWIDTH 1000 0
DWIDTH 10 0
BBX 9 9 0 0
BITMAP
3E00
4100
B080
9080
9080
9E80
8080
4100
3E00
ENDCHAR
STARTCHAR char10291
ENCODING 10291
SWIDTH 1000 0
DWIDTH 10 0
BBX 9 9 0 0
BITMAP
3E00
4100
BE80
9080
9080
9E80
8080
4100
3E00
ENDCHAR
STARTCHAR char10292
ENCODING 10292
SWIDTH 1000 0
DWIDTH 10 0
BBX 9 9 0 0
BITMAP
3E00
4100
BE80
8480
BC80
9080
9E80
4100
3E00
ENDCHAR
STARTCHAR char10293
ENCODING 10293
SWIDTH 1000 0
DWIDTH 10 0
BBX 9 9 0 0
BITMAP
3E00
4100
BE80
9280
9280
9E80
9080
4100
3E00
ENDCHAR
STARTCHAR char10294
ENCODING 10294
SWIDTH 1000 0
DWIDTH 10 0
BBX 9 9 0 0
BITMAP
3E00
4100
B680
9280
9E80
9280
9E80
4100
3E00
ENDCHAR
STARTCHAR char10295
ENCODING 10295
SWIDTH 1000 0
DWIDTH 10 0
BBX 9 9 0 0
BITMAP
3E00
4100
8880
8880
8C80
9280
A280
4100
3E00
ENDCHAR
STARTCHAR char10296
ENCODING 10296
SWIDTH 1000 0
DWIDTH 10 0
BBX 9 9 0 0
BITMAP
3E00
4100
9C80
B680
A280
B680
9880
4100
3E00
ENDCHAR
STARTCHAR char10297
ENCODING 10297
SWIDTH 1000 0
DWIDTH 10 0
BBX 9 9 0 0
BITMAP
3E00
4100
BE80
8480
8C80
9280
A280
4100
3E00
ENDCHAR
STARTCHAR char10298
ENCODING 10298
SWIDTH 1000 0
DWIDTH 10 0
BBX 9 9 0 0
BITMAP
3E00
5900
8C80
BE80
8C80
9A80
A280
4100
3E00
ENDCHAR
STARTCHAR char10299
ENCODING 10299
SWIDTH 1000 0
DWIDTH 10 0
BBX 9 9 0 0
BITMAP
3E00
4100
BE80
8480
BC80
8480
8480
4100
3E00
ENDCHAR
STARTCHAR char10300
ENCODING 10300
SWIDTH 1000 0
DWIDTH 10 0
BBX 9 9 0 0
BITMAP
3E00
4100
BE80
9080
9E80
9080
9E80
4100
3E00
ENDCHAR
STARTCHAR char10301
ENCODING 10301
SWIDTH 1000 0
DWIDTH 10 0
BBX 9 9 0 0
BITMAP
3E00
4100
BE80
8480
B480
9480
FF80
4100
3E00
ENDCHAR
STARTCHAR char10302
ENCODING 10302
SWIDTH 1000 0
DWIDTH 10 0
BBX 9 9 0 0
BITMAP
3E00
5100
8C80
BE80
9C80
9280
9C80
4100
3E00
ENDCHAR
STARTCHAR char10303
ENCODING 10303
SWIDTH 1000 0
DWIDTH 10 0
BBX 9 9 0 0
BITMAP
3E00
4700
BA80
8A80
9380
B280
C280
4300
3E00
ENDCHAR
STARTCHAR char10304
ENCODING 10304
SWIDTH 1000 0
DWIDTH 10 0
BBX 9 9 0 0
BITMAP
3E00
4700
A280
A280
A380
BE80
8280
4300
3E00
ENDCHAR
STARTCHAR char10305
ENCODING 10305
SWIDTH 1000 0
DWIDTH 10 0
BBX 9 9 0 0
BITMAP
3E00
4700
FA80
A280
A380
BE80
8280
4300
3E00
ENDCHAR
STARTCHAR char10306
ENCODING 10306
SWIDTH 1000 0
DWIDTH 10 0
BBX 9 9 0 0
BITMAP
3E00
4700
FA80
8A80
FB80
A680
BA80
4300
3E00
ENDCHAR
STARTCHAR char10307
ENCODING 10307
SWIDTH 1000 0
DWIDTH 10 0
BBX 9 9 0 0
BITMAP
3E00
4700
FA80
AA80
AB80
BA80
A280
4300
3E00
ENDCHAR
STARTCHAR char10308
ENCODING 10308
SWIDTH 1000 0
DWIDTH 10 0
BBX 9 9 0 0
BITMAP
3E00
4700
9A80
EA80
BB80
BA80
A280
4300
3E00
ENDCHAR
STARTCHAR char10309
ENCODING 10309
SWIDTH 1000 0
DWIDTH 10 0
BBX 9 9 0 0
BITMAP
3E00
4700
9A80
9A80
9380
EE80
8280
4300
3E00
ENDCHAR
STARTCHAR char10310
ENCODING 10310
SWIDTH 1000 0
DWIDTH 10 0
BBX 9 9 0 0
BITMAP
3E00
4700
B280
EA80
CB80
BA80
8280
4300
3E00
ENDCHAR
STARTCHAR char10311
ENCODING 10311
SWIDTH 1000 0
DWIDTH 10 0
BBX 9 9 0 0
BITMAP
3E00
4700
BA80
9280
9B80
EE80
8280
4300
3E00
ENDCHAR
STARTCHAR char10312
ENCODING 10312
SWIDTH 1000 0
DWIDTH 10 0
BBX 9 9 0 0
BITMAP
3E00
7700
9A80
BA80
9B80
EE80
8280
4300
3E00
ENDCHAR
STARTCHAR char10313
ENCODING 10313
SWIDTH 1000 0
DWIDTH 10 0
BBX 9 9 0 0
BITMAP
3E00
4700
BA80
8A80
BB80
B280
C280
4300
3E00
ENDCHAR
STARTCHAR char10314
ENCODING 10314
SWIDTH 1000 0
DWIDTH 10 0
BBX 9 9 0 0
BITMAP
3E00
4700
FA80
A280
BB80
A680
BA80
4300
3E00
ENDCHAR
STARTCHAR char10315
ENCODING 10315
SWIDTH 1000 0
DWIDTH 10 0
BBX 9 9 0 0
BITMAP
3E00
4700
FA80
9A80
AB80
BE80
FA80
4300
3E00
ENDCHAR
STARTCHAR char10316
ENCODING 10316
SWIDTH 1000 0
DWIDTH 10 0
BBX 9 9 0 0
BITMAP
3E00
6700
B280
FA80
BB80
AA80
B280
4300
3E00
ENDCHAR
STARTCHAR char10317
ENCODING 10317
SWIDTH 1000 0
DWIDTH 10 0
BBX 9 9 0 0
BITMAP
3E00
4100
9C80
9480
9C80
9480
9E80
4100
3E00
ENDCHAR
STARTCHAR char10318
ENCODING 10318
SWIDTH 1000 0
DWIDTH 10 0
BBX 9 9 0 0
BITMAP
3E00
7100
9080
9C80
9280
9280
9C80
4100
3E00
ENDCHAR
STARTCHAR char10319
ENCODING 10319
SWIDTH 1000 0
DWIDTH 10 0
BBX 9 9 0 0
BITMAP
3E00
4100
9C80
B480
A080
B480
9C80
4100
3E00
ENDCHAR
STARTCHAR char10320
ENCODING 10320
SWIDTH 1000 0
DWIDTH 10 0
BBX 9 9 0 0
BITMAP
3E00
4500
8480
9C80
A480
A480
9E80
4100
3E00
ENDCHAR
STARTCHAR char10321
ENCODING 10321
SWIDTH 1000 0
DWIDTH 10 0
BBX 9 9 0 0
BITMAP
3E00
4100
9880
B480
BC80
A480
9C80
4100
3E00
ENDCHAR
STARTCHAR char10322
ENCODING 10322
SWIDTH 1000 0
DWIDTH 10 0
BBX 9 9 0 0
BITMAP
3E00
4D00
8C80
9C80
8880
8880
9880
4100
3E00
ENDCHAR
STARTCHAR char10323
ENCODING 10323
SWIDTH 1000 0
DWIDTH 10 0
BBX 9 9 0 0
BITMAP
3E00
4100
9E80
9480
9C80
9E80
B280
5D00
3E00
ENDCHAR
STARTCHAR char10324
ENCODING 10324
SWIDTH 1000 0
DWIDTH 10 0
BBX 9 9 0 0
BITMAP
3E00
7100
9080
9E80
9280
9280
B680
4100
3E00
ENDCHAR
STARTCHAR char10325
ENCODING 10325
SWIDTH 1000 0
DWIDTH 10 0
BBX 9 9 0 0
BITMAP
3E00
4900
8080
9880
8880
8880
9880
4100
3E00
ENDCHAR
STARTCHAR char10326
ENCODING 10326
SWIDTH 1000 0
DWIDTH 10 0
BBX 9 9 0 0
BITMAP
3E00
4900
8080
8880
8880
8880
A880
5900
3E00
ENDCHAR
STARTCHAR char10327
ENCODING 10327
SWIDTH 1000 0
DWIDTH 10 0
BBX 9 9 0 0
BITMAP
3E00
7100
9080
9C80
9880
9C80
B680
4100
3E00
ENDCHAR
STARTCHAR char10328
ENCODING 10328
SWIDTH 1000 0
DWIDTH 10 0
BBX 9 9 0 0
BITMAP
3E00
4900
9880
8880
8880
8880
9880
4100
3E00
ENDCHAR
STARTCHAR char10329
ENCODING 10329
SWIDTH 1000 0
DWIDTH 10 0
BBX 9 9 0 0
BITMAP
3E00
4100
BE80
AA80
AA80
AA80
BF80
4100
3E00
ENDCHAR
STARTCHAR char10330
ENCODING 10330
SWIDTH 1000 0
DWIDTH 10 0
BBX 9 9 0 0
BITMAP
3E00
4100
BC80
9480
9480
9480
B680
4100
3E00
ENDCHAR
STARTCHAR char10331
ENCODING 10331
SWIDTH 1000 0
DWIDTH 10 0
BBX 9 9 0 0
BITMAP
3E00
4100
9C80
B680
A280
B680
9880
4100
3E00
ENDCHAR
STARTCHAR char10332
ENCODING 10332
SWIDTH 1000 0
DWIDTH 10 0
BBX 9 9 0 0
BITMAP
3E00
4100
BC80
9280
9280
9C80
9080
7100
3E00
ENDCHAR
STARTCHAR char10333
ENCODING 10333
SWIDTH 1000 0
DWIDTH 10 0
BBX 9 9 0 0
BITMAP
3E00
4100
9C80
A480
A480
9C80
8480
4700
3E00
ENDCHAR
STARTCHAR char10334
ENCODING 10334
SWIDTH 1000 0
DWIDTH 10 0
BBX 9 9 0 0
BITMAP
3E00
4100
9C80
9A80
9080
9080
9880
4100
3E00
ENDCHAR
STARTCHAR char10335
ENCODING 10335
SWIDTH 1000 0
DWIDTH 10 0
BBX 9 9 0 0
BITMAP
3E00
4100
9C80
A480
9C80
B480
9C80
4100
3E00
ENDCHAR
STARTCHAR char10336
ENCODING 10336
SWIDTH 1000 0
DWIDTH 10 0
BBX 9 9 0 0
BITMAP
3E00
4900
8880
9C80
8880
8880
8C80
4100
3E00
ENDCHAR
STARTCHAR char10337
ENCODING 10337
SWIDTH 1000 0
DWIDTH 10 0
BBX 9 9 0 0
BITMAP
3E00
4100
9480
B480
9480
9480
9E80
4100
3E00
ENDCHAR
STARTCHAR char10338
ENCODING 10338
SWIDTH 1000 0
DWIDTH 10 0
BBX 9 9 0 0
BITMAP
3E00
4100
8080
B680
9480
8C80
8880
4100
3E00
ENDCHAR
STARTCHAR char10339
ENCODING 10339
SWIDTH 1000 0
DWIDTH 10 0
BBX 9 9 0 0
BITMAP
3E00
4100
8080
BF80
BA80
9E80
9480
4100
3E00
ENDCHAR
STARTCHAR char10340
ENCODING 10340
SWIDTH 1000 0
DWIDTH 10 0
BBX 9 9 0 0
BITMAP
3E00
4100
B680
9480
8880
9480
B680
4100
3E00
ENDCHAR
STARTCHAR char10341
ENCODING 10341
SWIDTH 1000 0
DWIDTH 10 0
BBX 9 9 0 0
BITMAP
3E00
4100
B680
9680
9C80
8880
9880
5100
3E00
ENDCHAR
STARTCHAR char10342
ENCODING 10342
SWIDTH 1000 0
DWIDTH 10 0
BBX 9 9 0 0
BITMAP
3E00
4100
9E80
B480
8880
9680
9C80
4100
3E00
ENDCHAR
STARTCHAR char10343
ENCODING 10343
SWIDTH 1000 0
DWIDTH 10 0
BBX 9 9 0 0
BITMAP
3E00
4100
9880
8880
8880
8880
9C80
4100
3E00
ENDCHAR
STARTCHAR char10344
ENCODING 10344
SWIDTH 1000 0
DWIDTH 10 0
BBX 9 9 0 0
BITMAP
3E00
4100
9C80
9280
8C80
9A80
9C80
4100
3E00
ENDCHAR
STARTCHAR char10345
ENCODING 10345
SWIDTH 1000 0
DWIDTH 10 0
BBX 9 9 0 0
BITMAP
3E00
4100
9C80
9680
8C80
9280
9C80
4100
3E00
ENDCHAR
STARTCHAR char10346
ENCODING 10346
SWIDTH 1000 0
DWIDTH 10 0
BBX 9 9 0 0
BITMAP
3E00
4100
8C80
9C80
A480
BE80
8C80
4100
3E00
ENDCHAR
STARTCHAR char10347
ENCODING 10347
SWIDTH 1000 0
DWIDTH 10 0
BBX 9 9 0 0
BITMAP
3E00
4100
9C80
9C80
9680
8280
9C80
4100
3E00
ENDCHAR
STARTCHAR char10348
ENCODING 10348
SWIDTH 1000 0
DWIDTH 10 0
BBX 9 9 0 0
BITMAP
3E00
4100
9E80
9C80
9680
9280
9C80
4100
3E00
ENDCHAR
STARTCHAR char10349
ENCODING 10349
SWIDTH 1000 0
DWIDTH 10 0
BBX 9 9 0 0
BITMAP
3E00
4100
9E80
A480
8480
8C80
8880
4100
3E00
ENDCHAR
STARTCHAR char10350
ENCODING 10350
SWIDTH 1000 0
DWIDTH 10 0
BBX 9 9 0 0
BITMAP
3E00
4100
9C80
9680
9C80
9280
9C80
4100
3E00
ENDCHAR
STARTCHAR char10351
ENCODING 10351
SWIDTH 1000 0
DWIDTH 10 0
BBX 9 9 0 0
BITMAP
3E00
4100
9C80
9280
9680
8E80
9C80
4100
3E00
ENDCHAR
STARTCHAR char10352
ENCODING 10352
SWIDTH 1000 0
DWIDTH 10 0
BBX 9 9 0 0
BITMAP
3E00
4100
A680
A980
A980
A980
B680
4100
3E00
ENDCHAR
STARTCHAR char10353
ENCODING 10353
SWIDTH 1000 0
DWIDTH 10 0
BBX 9 9 0 0
BITMAP
3E00
4100
A480
A480
A480
A480
B680
4100
3E00
ENDCHAR
STARTCHAR char10354
ENCODING 10354
SWIDTH 1000 0
DWIDTH 10 0
BBX 9 9 0 0
BITMAP
3E00
4100
AE80
AA80
A680
A880
BE80
4100
3E00
ENDCHAR
STARTCHAR char10355
ENCODING 10355
SWIDTH 1000 0
DWIDTH 10 0
BBX 9 9 0 0
BITMAP
3E00
4100
AE80
A280
A680
AA80
BE80
4100
3E00
ENDCHAR
STARTCHAR char10356
ENCODING 10356
SWIDTH 1000 0
DWIDTH 10 0
BBX 9 9 0 0
BITMAP
3E00
4100
A680
A680
AA80
AE80
B680
4100
3E00
ENDCHAR
STARTCHAR char10357
ENCODING 10357
SWIDTH 1000 0
DWIDTH 10 0
BBX 9 9 0 0
BITMAP
3E00
4100
AE80
AE80
AA80
AA80
B680
4100
3E00
ENDCHAR
STARTCHAR char10358
ENCODING 10358
SWIDTH 1000 0
DWIDTH 10 0
BBX 8 9 0 0
BITMAP
41
43
44
68
10
27
45
82
07
ENDCHAR
STARTCHAR char10359
ENCODING 10359
SWIDTH 1000 0
DWIDTH 10 0
BBX 8 9 0 0
BITMAP
41
43
44
68
10
27
43
81
07
ENDCHAR
STARTCHAR char10360
ENCODING 10360
SWIDTH 1000 0
DWIDTH 10 0
BBX 9 9 0 0
BITMAP
E080
A100
4200
E400
0800
1700
2300
4100
8700
ENDCHAR
STARTCHAR char10361
ENCODING 10361
SWIDTH 1000 0
DWIDTH 10 0
BBX 8 9 0 0
BITMAP
41
43
44
68
10
23
43
87
03
ENDCHAR
STARTCHAR char10362
ENCODING 10362
SWIDTH 1000 0
DWIDTH 10 0
BBX 8 9 0 0
BITMAP
E1
63
24
E8
10
23
43
87
03
ENDCHAR
STARTCHAR char10363
ENCODING 10363
SWIDTH 1000 0
DWIDTH 10 0
BBX 8 9 0 0
BITMAP
41
43
44
68
10
27
47
85
07
ENDCHAR
STARTCHAR char10364
ENCODING 10364
SWIDTH 1000 0
DWIDTH 10 0
BBX 9 9 0 0
BITMAP
E080
6100
2200
E400
0800
1380
2380
4280
8380
ENDCHAR
STARTCHAR char10365
ENCODING 10365
SWIDTH 1000 0
DWIDTH 10 0
BBX 9 9 0 0
BITMAP
E080
E100
A200
E400
0800
1700
2700
4500
8700
ENDCHAR
STARTCHAR char10366
ENCODING 10366
SWIDTH 1000 0
DWIDTH 10 0
BBX 9 9 0 0
BITMAP
E080
2100
4200
4400
0800
1700
2700
4500
8700
ENDCHAR
STARTCHAR char10529
ENCODING 10529
SWIDTH 1000 0
DWIDTH 10 0
BBX 7 5 1 1
BITMAP
FE
12
7E
92
FE
ENDCHAR
STARTCHAR char10530
ENCODING 10530
SWIDTH 1000 0
DWIDTH 10 0
BBX 6 8 2 1
BITMAP
18
FC
08
78
88
88
98
78
ENDCHAR
STARTCHAR char10531
ENCODING 10531
SWIDTH 1000 0
DWIDTH 10 0
BBX 6 8 2 1
BITMAP
70
DC
38
C8
78
88
88
70
ENDCHAR
STARTCHAR char10532
ENCODING 10532
SWIDTH 1000 0
DWIDTH 10 0
BBX 7 8 1 1
BITMAP
60
FC
20
3C
24
24
24
66
ENDCHAR
STARTCHAR char10533
ENCODING 10533
SWIDTH 1000 0
DWIDTH 10 0
BBX 3 5 3 1
BITMAP
C0
40
40
40
E0
ENDCHAR
STARTCHAR char10534
ENCODING 10534
SWIDTH 1000 0
DWIDTH 10 0
BBX 5 9 2 0
BITMAP
48
48
00
D8
48
48
48
E8
18
ENDCHAR
STARTCHAR char10535
ENCODING 10535
SWIDTH 1000 0
DWIDTH 10 0
BBX 6 8 2 1
BITMAP
40
C0
40
58
70
60
50
DC
ENDCHAR
STARTCHAR char10536
ENCODING 10536
SWIDTH 1000 0
DWIDTH 10 0
BBX 6 8 2 1
BITMAP
40
C0
40
48
4C
40
40
E0
ENDCHAR
STARTCHAR char10537
ENCODING 10537
SWIDTH 1000 0
DWIDTH 10 0
BBX 5 8 2 1
BITMAP
20
68
38
20
60
A0
A0
70
ENDCHAR
STARTCHAR char10538
ENCODING 10538
SWIDTH 1000 0
DWIDTH 10 0
BBX 5 9 2 0
BITMAP
08
10
38
58
E8
B8
70
60
40
ENDCHAR
STARTCHAR char10539
ENCODING 10539
SWIDTH 1000 0
DWIDTH 10 0
BBX 8 5 1 1
BITMAP
FE
91
9F
91
FE
ENDCHAR
STARTCHAR char10540
ENCODING 10540
SWIDTH 1000 0
DWIDTH 10 0
BBX 6 8 2 1
BITMAP
78
48
48
78
48
44
44
F8
ENDCHAR
STARTCHAR char10541
ENCODING 10541
SWIDTH 1000 0
DWIDTH 10 0
BBX 5 8 2 0
BITMAP
C0
40
70
48
48
58
70
E0
ENDCHAR
STARTCHAR char10542
ENCODING 10542
SWIDTH 1000 0
DWIDTH 10 0
BBX 4 7 2 1
BITMAP
50
60
C0
F0
40
40
70
ENDCHAR
STARTCHAR char10543
ENCODING 10543
SWIDTH 1000 0
DWIDTH 10 0
BBX 5 7 2 0
BITMAP
70
C8
48
48
C8
08
78
ENDCHAR
STARTCHAR char10544
ENCODING 10544
SWIDTH 1000 0
DWIDTH 10 0
BBX 7 7 1 1
BITMAP
40
80
7C
24
24
24
66
ENDCHAR
STARTCHAR char10545
ENCODING 10545
SWIDTH 1000 0
DWIDTH 10 0
BBX 9 9 0 0
BITMAP
2200
4100
BE80
8480
8480
8480
8480
4100
2200
ENDCHAR
STARTCHAR char10546
ENCODING 10546
SWIDTH 1000 0
DWIDTH 10 0
BBX 9 9 0 0
BITMAP
2200
4100
B080
9080
9080
9E80
8080
4100
2200
ENDCHAR
STARTCHAR char10547
ENCODING 10547
SWIDTH 1000 0
DWIDTH 10 0
BBX 9 9 0 0
BITMAP
2200
4100
BE80
9080
9080
9E80
8080
4100
2200
ENDCHAR
STARTCHAR char10548
ENCODING 10548
SWIDTH 1000 0
DWIDTH 10 0
BBX 9 9 0 0
BITMAP
2200
4100
BE80
8480
BC80
9080
9E80
4100
2200
ENDCHAR
STARTCHAR char10549
ENCODING 10549
SWIDTH 1000 0
DWIDTH 10 0
BBX 9 9 0 0
BITMAP
2200
4100
BE80
9280
9280
9E80
9080
4100
2200
ENDCHAR
STARTCHAR char10550
ENCODING 10550
SWIDTH 1000 0
DWIDTH 10 0
BBX 9 9 0 0
BITMAP
2200
4100
B680
9280
9E80
9280
9E80
4100
2200
ENDCHAR
STARTCHAR char10551
ENCODING 10551
SWIDTH 1000 0
DWIDTH 10 0
BBX 9 9 0 0
BITMAP
2200
4100
8880
8880
8C80
9280
A280
4100
2200
ENDCHAR
STARTCHAR char10552
ENCODING 10552
SWIDTH 1000 0
DWIDTH 10 0
BBX 9 9 0 0
BITMAP
2200
4100
9C80
B680
A280
B680
9880
4100
2200
ENDCHAR
STARTCHAR char10553
ENCODING 10553
SWIDTH 1000 0
DWIDTH 10 0
BBX 9 9 0 0
BITMAP
2200
4100
BE80
8480
8C80
9280
A280
4100
2200
ENDCHAR
STARTCHAR char10554
ENCODING 10554
SWIDTH 1000 0
DWIDTH 10 0
BBX 9 9 0 0
BITMAP
2200
5900
8C80
BE80
8C80
9A80
A280
4100
2200
ENDCHAR
STARTCHAR char10555
ENCODING 10555
SWIDTH 1000 0
DWIDTH 10 0
BBX 9 9 0 0
BITMAP
2200
4100
BE80
8480
BC80
8480
8480
4100
2200
ENDCHAR
STARTCHAR char10556
ENCODING 10556
SWIDTH 1000 0
DWIDTH 10 0
BBX 9 9 0 0
BITMAP
2200
4100
BE80
9080
9E80
9080
9E80
4100
2200
ENDCHAR
STARTCHAR char10557
ENCODING 10557
SWIDTH 1000 0
DWIDTH 10 0
BBX 9 9 0 0
BITMAP
2200
4100
BE80
8480
B480
9480
FF80
4100
2200
ENDCHAR
STARTCHAR char10558
ENCODING 10558
SWIDTH 1000 0
DWIDTH 10 0
BBX 9 9 0 0
BITMAP
2200
5100
8C80
BE80
9C80
9280
9C80
4100
2200
ENDCHAR
STARTCHAR char10559
ENCODING 10559
SWIDTH 1000 0
DWIDTH 10 0
BBX 9 9 0 0
BITMAP
2200
4700
BA80
8A80
9380
B280
C280
4300
2200
ENDCHAR
STARTCHAR char10560
ENCODING 10560
SWIDTH 1000 0
DWIDTH 10 0
BBX 9 9 0 0
BITMAP
2200
4700
A280
A280
A380
BE80
8280
4300
2200
ENDCHAR
STARTCHAR char10561
ENCODING 10561
SWIDTH 1000 0
DWIDTH 10 0
BBX 9 9 0 0
BITMAP
2200
4700
FA80
A280
A380
BE80
8280
4300
2200
ENDCHAR
STARTCHAR char10562
ENCODING 10562
SWIDTH 1000 0
DWIDTH 10 0
BBX 9 9 0 0
BITMAP
2200
4700
FA80
8A80
FB80
A680
BA80
4300
2200
ENDCHAR
STARTCHAR char10563
ENCODING 10563
SWIDTH 1000 0
DWIDTH 10 0
BBX 9 9 0 0
BITMAP
2200
4700
FA80
AA80
AB80
BA80
A280
4300
2200
ENDCHAR
STARTCHAR char10564
ENCODING 10564
SWIDTH 1000 0
DWIDTH 10 0
BBX 9 9 0 0
BITMAP
2200
4700
9A80
EA80
BB80
BA80
A280
4300
2200
ENDCHAR
STARTCHAR char10565
ENCODING 10565
SWIDTH 1000 0
DWIDTH 10 0
BBX 9 9 0 0
BITMAP
2200
4700
9A80
9A80
9380
EE80
8280
4300
2200
ENDCHAR
STARTCHAR char10566
ENCODING 10566
SWIDTH 1000 0
DWIDTH 10 0
BBX 9 9 0 0
BITMAP
2200
4700
B280
EA80
CB80
BA80
8280
4300
2200
ENDCHAR
STARTCHAR char10567
ENCODING 10567
SWIDTH 1000 0
DWIDTH 10 0
BBX 9 9 0 0
BITMAP
2200
4700
BA80
9A80
9B80
EE80
8280
4300
2200
ENDCHAR
STARTCHAR char10568
ENCODING 10568
SWIDTH 1000 0
DWIDTH 10 0
BBX 9 9 0 0
BITMAP
2200
7700
9A80
BA80
9B80
EE80
8280
4300
2200
ENDCHAR
STARTCHAR char10569
ENCODING 10569
SWIDTH 1000 0
DWIDTH 10 0
BBX 9 9 0 0
BITMAP
2200
4700
BA80
8A80
BB80
B280
C280
4300
2200
ENDCHAR
STARTCHAR char10570
ENCODING 10570
SWIDTH 1000 0
DWIDTH 10 0
BBX 9 9 0 0
BITMAP
2200
4700
FA80
A280
BB80
A680
BA80
4300
2200
ENDCHAR
STARTCHAR char10571
ENCODING 10571
SWIDTH 1000 0
DWIDTH 10 0
BBX 9 9 0 0
BITMAP
2200
4700
FA80
9A80
AB80
BE80
FA80
4300
2200
ENDCHAR
STARTCHAR char10572
ENCODING 10572
SWIDTH 1000 0
DWIDTH 10 0
BBX 9 9 0 0
BITMAP
2200
6700
B280
FA80
BB80
AA80
B280
4300
2200
ENDCHAR
STARTCHAR char10573
ENCODING 10573
SWIDTH 1000 0
DWIDTH 10 0
BBX 9 9 0 0
BITMAP
2200
4100
9C80
9480
9C80
9480
9E80
4100
2200
ENDCHAR
STARTCHAR char10574
ENCODING 10574
SWIDTH 1000 0
DWIDTH 10 0
BBX 9 9 0 0
BITMAP
2200
7100
9080
9C80
9280
9280
9C80
4100
2200
ENDCHAR
STARTCHAR char10575
ENCODING 10575
SWIDTH 1000 0
DWIDTH 10 0
BBX 9 9 0 0
BITMAP
2200
4100
9C80
B480
A080
B480
9C80
4100
2200
ENDCHAR
STARTCHAR char10576
ENCODING 10576
SWIDTH 1000 0
DWIDTH 10 0
BBX 9 9 0 0
BITMAP
2200
4500
8480
9C80
A480
A480
9E80
4100
2200
ENDCHAR
STARTCHAR char10577
ENCODING 10577
SWIDTH 1000 0
DWIDTH 10 0
BBX 9 9 0 0
BITMAP
2200
4100
9880
B480
BC80
A480
9C80
4100
2200
ENDCHAR
STARTCHAR char10578
ENCODING 10578
SWIDTH 1000 0
DWIDTH 10 0
BBX 9 9 0 0
BITMAP
2200
4D00
8C80
9C80
8880
8880
9880
4100
2200
ENDCHAR
STARTCHAR char10579
ENCODING 10579
SWIDTH 1000 0
DWIDTH 10 0
BBX 9 9 0 0
BITMAP
2200
4100
9E80
9480
9C80
9E80
B280
5D00
2200
ENDCHAR
STARTCHAR char10580
ENCODING 10580
SWIDTH 1000 0
DWIDTH 10 0
BBX 9 9 0 0
BITMAP
2200
7100
9080
9E80
9280
9280
B680
4100
2200
ENDCHAR
STARTCHAR char10581
ENCODING 10581
SWIDTH 1000 0
DWIDTH 10 0
BBX 9 9 0 0
BITMAP
2200
4900
8080
9880
8880
8880
9880
4100
2200
ENDCHAR
STARTCHAR char10582
ENCODING 10582
SWIDTH 1000 0
DWIDTH 10 0
BBX 9 9 0 0
BITMAP
2200
4900
8080
8880
8880
8880
A880
5900
2200
ENDCHAR
STARTCHAR char10583
ENCODING 10583
SWIDTH 1000 0
DWIDTH 10 0
BBX 9 9 0 0
BITMAP
2200
7100
9080
9C80
9880
9C80
B680
4100
2200
ENDCHAR
STARTCHAR char10584
ENCODING 10584
SWIDTH 1000 0
DWIDTH 10 0
BBX 9 9 0 0
BITMAP
2200
4900
9880
8880
8880
8880
9880
4100
2200
ENDCHAR
STARTCHAR char10585
ENCODING 10585
SWIDTH 1000 0
DWIDTH 10 0
BBX 9 9 0 0
BITMAP
2200
4100
BE80
AA80
AA80
AA80
BF80
4100
2200
ENDCHAR
STARTCHAR char10586
ENCODING 10586
SWIDTH 1000 0
DWIDTH 10 0
BBX 9 9 0 0
BITMAP
2200
4100
BC80
9480
9480
9480
B680
4100
2200
ENDCHAR
STARTCHAR char10587
ENCODING 10587
SWIDTH 1000 0
DWIDTH 10 0
BBX 9 9 0 0
BITMAP
2200
4100
9C80
B680
A280
B680
9880
4100
2200
ENDCHAR
STARTCHAR char10588
ENCODING 10588
SWIDTH 1000 0
DWIDTH 10 0
BBX 9 9 0 0
BITMAP
2200
4100
BC80
9280
9280
9C80
9080
7100
2200
ENDCHAR
STARTCHAR char10589
ENCODING 10589
SWIDTH 1000 0
DWIDTH 10 0
BBX 9 9 0 0
BITMAP
2200
4100
9C80
A480
A480
9C80
8480
4700
2200
ENDCHAR
STARTCHAR char10590
ENCODING 10590
SWIDTH 1000 0
DWIDTH 10 0
BBX 9 9 0 0
BITMAP
2200
4100
9C80
9A80
9080
9080
9880
4100
2200
ENDCHAR
STARTCHAR char10591
ENCODING 10591
SWIDTH 1000 0
DWIDTH 10 0
BBX 9 9 0 0
BITMAP
2200
4100
9C80
A480
9C80
B480
9C80
4100
2200
ENDCHAR
STARTCHAR char10592
ENCODING 10592
SWIDTH 1000 0
DWIDTH 10 0
BBX 9 9 0 0
BITMAP
2200
4900
8880
9C80
8880
8880
8C80
4100
2200
ENDCHAR
STARTCHAR char10593
ENCODING 10593
SWIDTH 1000 0
DWIDTH 10 0
BBX 9 9 0 0
BITMAP
2200
4100
9480
B480
9480
9480
9E80
4100
2200
ENDCHAR
STARTCHAR char10594
ENCODING 10594
SWIDTH 1000 0
DWIDTH 10 0
BBX 9 9 0 0
BITMAP
2200
4100
8080
B680
9480
8C80
8880
4100
2200
ENDCHAR
STARTCHAR char10595
ENCODING 10595
SWIDTH 1000 0
DWIDTH 10 0
BBX 9 9 0 0
BITMAP
2200
4100
8080
BF80
BA80
9E80
9480
4100
2200
ENDCHAR
STARTCHAR char10596
ENCODING 10596
SWIDTH 1000 0
DWIDTH 10 0
BBX 9 9 0 0
BITMAP
2200
4100
B680
9480
8880
9480
B680
4100
2200
ENDCHAR
STARTCHAR char10597
ENCODING 10597
SWIDTH 1000 0
DWIDTH 10 0
BBX 9 9 0 0
BITMAP
2200
4100
B680
9680
9C80
8880
9880
5100
2200
ENDCHAR
STARTCHAR char10598
ENCODING 10598
SWIDTH 1000 0
DWIDTH 10 0
BBX 9 9 0 0
BITMAP
2200
4100
9E80
B480
8880
9680
9C80
4100
2200
ENDCHAR
STARTCHAR char10599
ENCODING 10599
SWIDTH 1000 0
DWIDTH 10 0
BBX 9 9 0 0
BITMAP
2200
4900
9880
8880
8880
8880
9C80
4100
2200
ENDCHAR
STARTCHAR char10600
ENCODING 10600
SWIDTH 1000 0
DWIDTH 10 0
BBX 9 9 0 0
BITMAP
2200
4D00
9680
9480
8880
9280
9C80
4100
2200
ENDCHAR
STARTCHAR char10601
ENCODING 10601
SWIDTH 1000 0
DWIDTH 10 0
BBX 9 9 0 0
BITMAP
2200
4D00
9680
8C80
8680
9280
9C80
4100
2200
ENDCHAR
STARTCHAR char10602
ENCODING 10602
SWIDTH 1000 0
DWIDTH 10 0
BBX 9 9 0 0
BITMAP
2200
4500
8C80
9480
B480
BE80
8C80
4100
2200
ENDCHAR
STARTCHAR char10603
ENCODING 10603
SWIDTH 1000 0
DWIDTH 10 0
BBX 9 9 0 0
BITMAP
2200
5D00
9080
9C80
9680
8280
9C80
4100
2200
ENDCHAR
STARTCHAR char10604
ENCODING 10604
SWIDTH 1000 0
DWIDTH 10 0
BBX 9 9 0 0
BITMAP
2200
4D00
9680
9C80
9680
9280
9C80
4100
2200
ENDCHAR
STARTCHAR char10605
ENCODING 10605
SWIDTH 1000 0
DWIDTH 10 0
BBX 9 9 0 0
BITMAP
2200
5F00
B280
8480
8480
8C80
8880
4100
2200
ENDCHAR
STARTCHAR char10606
ENCODING 10606
SWIDTH 1000 0
DWIDTH 10 0
BBX 9 9 0 0
BITMAP
2200
4D00
9680
9C80
9680
9280
9C80
4100
2200
ENDCHAR
STARTCHAR char10607
ENCODING 10607
SWIDTH 1000 0
DWIDTH 10 0
BBX 9 9 0 0
BITMAP
2200
4D00
9680
9280
9E80
9280
9C80
4100
2200
ENDCHAR
STARTCHAR char10608
ENCODING 10608
SWIDTH 1000 0
DWIDTH 10 0
BBX 9 9 0 0
BITMAP
2200
6500
AA80
AA80
AA80
AA80
BE80
4100
2200
ENDCHAR
STARTCHAR char10609
ENCODING 10609
SWIDTH 1000 0
DWIDTH 10 0
BBX 9 9 0 0
BITMAP
2200
6500
A480
A480
A480
A480
B680
4100
2200
ENDCHAR
STARTCHAR char10610
ENCODING 10610
SWIDTH 1000 0
DWIDTH 10 0
BBX 9 9 0 0
BITMAP
2200
6700
AA80
A280
A680
A880
BE80
4100
2200
ENDCHAR
STARTCHAR char10611
ENCODING 10611
SWIDTH 1000 0
DWIDTH 10 0
BBX 9 9 0 0
BITMAP
2200
6700
AA80
A280
A680
AA80
BE80
4100
2200
ENDCHAR
STARTCHAR char10612
ENCODING 10612
SWIDTH 1000 0
DWIDTH 10 0
BBX 9 9 0 0
BITMAP
2200
6300
A680
A680
AA80
AE80
B680
4100
2200
ENDCHAR
STARTCHAR char10613
ENCODING 10613
SWIDTH 1000 0
DWIDTH 10 0
BBX 9 9 0 0
BITMAP
2200
6F00
A880
AE80
AA80
AA80
B680
4100
2200
ENDCHAR
STARTCHAR char10614
ENCODING 10614
SWIDTH 1000 0
DWIDTH 10 0
BBX 2 4 1 5
BITMAP
80
80
80
C0
ENDCHAR
STARTCHAR char10615
ENCODING 10615
SWIDTH 1000 0
DWIDTH 10 0
BBX 3 4 0 5
BITMAP
E0
A0
40
E0
ENDCHAR
STARTCHAR char10616
ENCODING 10616
SWIDTH 1000 0
DWIDTH 10 0
BBX 3 4 0 5
BITMAP
E0
60
20
E0
ENDCHAR
STARTCHAR char10617
ENCODING 10617
SWIDTH 1000 0
DWIDTH 10 0
BBX 3 4 0 5
BITMAP
60
60
E0
60
ENDCHAR
STARTCHAR char10618
ENCODING 10618
SWIDTH 1000 0
DWIDTH 10 0
BBX 4 4 0 5
BITMAP
E0
A0
A0
F0
ENDCHAR
STARTCHAR char10619
ENCODING 10619
SWIDTH 1000 0
DWIDTH 10 0
BBX 2 4 1 0
BITMAP
80
80
80
C0
ENDCHAR
STARTCHAR char10620
ENCODING 10620
SWIDTH 1000 0
DWIDTH 10 0
BBX 3 4 0 0
BITMAP
E0
A0
40
E0
ENDCHAR
STARTCHAR char10621
ENCODING 10621
SWIDTH 1000 0
DWIDTH 10 0
BBX 3 4 0 0
BITMAP
E0
60
20
E0
ENDCHAR
STARTCHAR char10622
ENCODING 10622
SWIDTH 1000 0
DWIDTH 10 0
BBX 3 4 0 0
BITMAP
60
60
E0
60
ENDCHAR
STARTCHAR char10785
ENCODING 10785
SWIDTH 1000 0
DWIDTH 10 0
BBX 7 8 1 0
BITMAP
20
5C
70
3C
5A
92
D4
18
ENDCHAR
STARTCHAR char10786
ENCODING 10786
SWIDTH 1000 0
DWIDTH 10 0
BBX 7 9 1 0
BITMAP
30
1C
78
1C
6E
F2
B2
EA
0C
ENDCHAR
STARTCHAR char10787
ENCODING 10787
SWIDTH 1000 0
DWIDTH 10 0
BBX 7 5 1 1
BITMAP
C0
44
46
54
20
ENDCHAR
STARTCHAR char10788
ENCODING 10788
SWIDTH 1000 0
DWIDTH 10 0
BBX 7 7 1 1
BITMAP
80
80
84
84
82
D2
60
ENDCHAR
STARTCHAR char10789
ENCODING 10789
SWIDTH 1000 0
DWIDTH 10 0
BBX 4 8 3 0
BITMAP
40
60
60
90
10
30
40
40
ENDCHAR
STARTCHAR char10790
ENCODING 10790
SWIDTH 1000 0
DWIDTH 10 0
BBX 5 9 2 0
BITMAP
40
30
00
F8
08
08
18
20
40
ENDCHAR
STARTCHAR char10791
ENCODING 10791
SWIDTH 1000 0
DWIDTH 10 0
BBX 6 8 2 0
BITMAP
40
20
40
F0
20
60
E4
98
ENDCHAR
STARTCHAR char10792
ENCODING 10792
SWIDTH 1000 0
DWIDTH 10 0
BBX 7 9 1 0
BITMAP
20
18
10
7C
18
20
60
92
1E
ENDCHAR
STARTCHAR char10793
ENCODING 10793
SWIDTH 1000 0
DWIDTH 10 0
BBX 7 7 1 1
BITMAP
20
20
BE
62
3C
E4
F8
ENDCHAR
STARTCHAR char10794
ENCODING 10794
SWIDTH 1000 0
DWIDTH 10 0
BBX 8 9 1 0
BITMAP
20
22
2B
F0
3C
32
E2
EE
64
ENDCHAR
STARTCHAR char10795
ENCODING 10795
SWIDTH 1000 0
DWIDTH 10 0
BBX 8 9 1 0
BITMAP
20
10
30
FA
2B
48
48
B8
10
ENDCHAR
STARTCHAR char10796
ENCODING 10796
SWIDTH 1000 0
DWIDTH 10 0
BBX 8 9 1 0
BITMAP
20
11
33
FE
2A
48
48
B8
10
ENDCHAR
STARTCHAR char10797
ENCODING 10797
SWIDTH 1000 0
DWIDTH 10 0
BBX 6 9 2 0
BITMAP
40
70
E0
F8
18
7C
80
68
38
ENDCHAR
STARTCHAR char10798
ENCODING 10798
SWIDTH 1000 0
DWIDTH 10 0
BBX 7 9 2 0
BITMAP
42
76
E0
F8
18
7C
80
68
38
ENDCHAR
STARTCHAR char10799
ENCODING 10799
SWIDTH 1000 0
DWIDTH 10 0
BBX 4 9 2 0
BITMAP
30
20
40
80
80
40
20
30
10
ENDCHAR
STARTCHAR char10800
ENCODING 10800
SWIDTH 1000 0
DWIDTH 10 0
BBX 7 9 2 0
BITMAP
36
24
40
80
80
40
20
30
10
ENDCHAR
STARTCHAR char10801
ENCODING 10801
SWIDTH 1000 0
DWIDTH 10 0
BBX 7 9 1 0
BITMAP
88
44
C6
BC
84
A4
CC
C8
10
ENDCHAR
STARTCHAR char10802
ENCODING 10802
SWIDTH 1000 0
DWIDTH 10 0
BBX 9 9 1 0
BITMAP
8B80
4500
C600
BC00
8400
A400
CC00
C800
1000
ENDCHAR
STARTCHAR char10803
ENCODING 10803
SWIDTH 1000 0
DWIDTH 10 0
BBX 7 6 1 1
BITMAP
7C
10
00
00
C2
3E
ENDCHAR
STARTCHAR char10804
ENCODING 10804
SWIDTH 1000 0
DWIDTH 10 0
BBX 8 8 1 1
BITMAP
01
03
7C
10
00
00
C2
3E
ENDCHAR
STARTCHAR char10805
ENCODING 10805
SWIDTH 1000 0
DWIDTH 10 0
BBX 6 9 1 0
BITMAP
20
3C
F8
08
1C
64
40
60
38
ENDCHAR
STARTCHAR char10806
ENCODING 10806
SWIDTH 1000 0
DWIDTH 10 0
BBX 8 9 1 0
BITMAP
23
3C
F0
08
1C
64
40
60
38
ENDCHAR
STARTCHAR char10807
ENCODING 10807
SWIDTH 1000 0
DWIDTH 10 0
BBX 6 9 2 0
BITMAP
80
C0
80
80
80
80
84
58
70
ENDCHAR
STARTCHAR char10808
ENCODING 10808
SWIDTH 1000 0
DWIDTH 10 0
BBX 6 9 2 0
BITMAP
80
C4
8C
80
80
80
84
58
70
ENDCHAR
STARTCHAR char10809
ENCODING 10809
SWIDTH 1000 0
DWIDTH 10 0
BBX 7 9 1 0
BITMAP
18
10
FE
10
30
30
30
10
30
ENDCHAR
STARTCHAR char10810
ENCODING 10810
SWIDTH 1000 0
DWIDTH 10 0
BBX 9 9 1 0
BITMAP
1900
1380
FE00
1000
3000
3000
3000
1000
3000
ENDCHAR
STARTCHAR char10811
ENCODING 10811
SWIDTH 1000 0
DWIDTH 10 0
BBX 9 8 0 1
BITMAP
0400
2200
1200
1F80
F200
1E00
1400
1F00
ENDCHAR
STARTCHAR char10812
ENCODING 10812
SWIDTH 1000 0
DWIDTH 10 0
BBX 9 8 0 1
BITMAP
0480
2380
1200
1F80
F200
1E00
1400
1F00
ENDCHAR
STARTCHAR char10813
ENCODING 10813
SWIDTH 1000 0
DWIDTH 10 0
BBX 7 9 1 0
BITMAP
58
38
20
4E
F0
20
20
10
0C
ENDCHAR
STARTCHAR char10814
ENCODING 10814
SWIDTH 1000 0
DWIDTH 10 0
BBX 8 9 1 0
BITMAP
5B
3A
20
4E
F0
20
20
10
0C
ENDCHAR
STARTCHAR char10815
ENCODING 10815
SWIDTH 1000 0
DWIDTH 10 0
BBX 8 8 1 0
BITMAP
20
38
FF
64
40
D0
98
0F
ENDCHAR
STARTCHAR char10816
ENCODING 10816
SWIDTH 1000 0
DWIDTH 10 0
BBX 8 9 1 0
BITMAP
01
23
38
FF
64
40
D0
98
0F
ENDCHAR
STARTCHAR char10817
ENCODING 10817
SWIDTH 1000 0
DWIDTH 10 0
BBX 7 9 1 0
BITMAP
20
B8
F0
20
3C
72
42
06
18
ENDCHAR
STARTCHAR char10818
ENCODING 10818
SWIDTH 1000 0
DWIDTH 10 0
BBX 8 9 1 0
BITMAP
23
BA
F0
20
3C
72
42
06
18
ENDCHAR
STARTCHAR char10819
ENCODING 10819
SWIDTH 1000 0
DWIDTH 10 0
BBX 7 5 1 0
BITMAP
BC
C2
06
08
18
ENDCHAR
STARTCHAR char10820
ENCODING 10820
SWIDTH 1000 0
DWIDTH 10 0
BBX 9 6 0 1
BITMAP
1F00
E180
0080
0180
0300
0C00
ENDCHAR
STARTCHAR char10821
ENCODING 10821
SWIDTH 1000 0
DWIDTH 10 0
BBX 10 8 0 1
BITMAP
0080
01C0
1F00
E180
0080
0180
0300
0C00
ENDCHAR
STARTCHAR char10822
ENCODING 10822
SWIDTH 1000 0
DWIDTH 10 0
BBX 8 8 0 0
BITMAP
0F
FC
08
18
10
18
0C
02
ENDCHAR
STARTCHAR char10823
ENCODING 10823
SWIDTH 1000 0
DWIDTH 10 0
BBX 10 9 0 0
BITMAP
01C0
0E80
FC00
0800
1800
1000
1800
0C00
0200
ENDCHAR
STARTCHAR char10824
ENCODING 10824
SWIDTH 1000 0
DWIDTH 10 0
BBX 6 8 2 0
BITMAP
60
20
3C
60
C0
80
80
78
ENDCHAR
STARTCHAR char10825
ENCODING 10825
SWIDTH 1000 0
DWIDTH 10 0
BBX 8 8 2 0
BITMAP
67
22
3C
60
C0
80
80
78
ENDCHAR
STARTCHAR char10826
ENCODING 10826
SWIDTH 1000 0
DWIDTH 10 0
BBX 7 9 1 0
BITMAP
30
2C
F0
46
4C
C8
08
7E
7A
ENDCHAR
STARTCHAR char10827
ENCODING 10827
SWIDTH 1000 0
DWIDTH 10 0
BBX 7 7 1 1
BITMAP
80
9E
88
80
E0
F0
9E
ENDCHAR
STARTCHAR char10828
ENCODING 10828
SWIDTH 1000 0
DWIDTH 10 0
BBX 9 8 0 1
BITMAP
1000
0800
4C00
7B00
7900
F080
B780
5780
ENDCHAR
STARTCHAR char10829
ENCODING 10829
SWIDTH 1000 0
DWIDTH 10 0
BBX 8 9 1 0
BITMAP
20
20
A0
FE
61
61
EF
EF
20
ENDCHAR
STARTCHAR char10830
ENCODING 10830
SWIDTH 1000 0
DWIDTH 10 0
BBX 9 7 0 1
BITMAP
1E00
3700
4880
C880
9180
E100
0200
ENDCHAR
STARTCHAR char10831
ENCODING 10831
SWIDTH 1000 0
DWIDTH 10 0
BBX 7 8 1 0
BITMAP
88
88
BE
88
88
FC
AA
B8
ENDCHAR
STARTCHAR char10832
ENCODING 10832
SWIDTH 1000 0
DWIDTH 10 0
BBX 8 9 1 0
BITMAP
03
8A
88
BE
88
88
FC
AA
B8
ENDCHAR
STARTCHAR char10833
ENCODING 10833
SWIDTH 1000 0
DWIDTH 10 0
BBX 8 9 1 0
BITMAP
03
8B
88
BE
88
88
FC
AA
B8
ENDCHAR
STARTCHAR char10834
ENCODING 10834
SWIDTH 1000 0
DWIDTH 10 0
BBX 8 8 1 0
BITMAP
20
E4
66
47
84
88
58
70
ENDCHAR
STARTCHAR char10835
ENCODING 10835
SWIDTH 1000 0
DWIDTH 10 0
BBX 8 9 1 0
BITMAP
01
23
E4
66
47
84
88
58
70
ENDCHAR
STARTCHAR char10836
ENCODING 10836
SWIDTH 1000 0
DWIDTH 10 0
BBX 8 9 1 0
BITMAP
03
23
E4
66
47
84
88
58
70
ENDCHAR
STARTCHAR char10837
ENCODING 10837
SWIDTH 1000 0
DWIDTH 10 0
BBX 9 8 0 0
BITMAP
1800
0C00
0800
0800
0F00
FD80
5400
0800
ENDCHAR
STARTCHAR char10838
ENCODING 10838
SWIDTH 1000 0
DWIDTH 10 0
BBX 9 8 0 0
BITMAP
1800
0D80
0900
0800
0F00
FD80
5400
0800
ENDCHAR
STARTCHAR char10839
ENCODING 10839
SWIDTH 1000 0
DWIDTH 10 0
BBX 9 8 0 0
BITMAP
1800
0D80
0980
0800
0F00
FD80
5400
0800
ENDCHAR
STARTCHAR char10840
ENCODING 10840
SWIDTH 1000 0
DWIDTH 10 0
BBX 9 4 0 3
BITMAP
1000
2800
C600
0380
ENDCHAR
STARTCHAR char10841
ENCODING 10841
SWIDTH 1000 0
DWIDTH 10 0
BBX 9 6 0 3
BITMAP
0080
0180
1000
2800
C600
0380
ENDCHAR
STARTCHAR char10842
ENCODING 10842
SWIDTH 1000 0
DWIDTH 10 0
BBX 9 6 0 3
BITMAP
0180
0180
1000
2800
C600
0380
ENDCHAR
STARTCHAR char10843
ENCODING 10843
SWIDTH 1000 0
DWIDTH 10 0
BBX 8 9 1 0
BITMAP
80
BE
88
BE
C8
C8
DC
AB
98
ENDCHAR
STARTCHAR char10844
ENCODING 10844
SWIDTH 1000 0
DWIDTH 10 0
BBX 9 9 1 0
BITMAP
8380
BD00
8800
BE00
C800
C800
DC00
AB00
9800
ENDCHAR
STARTCHAR char10845
ENCODING 10845
SWIDTH 1000 0
DWIDTH 10 0
BBX 9 9 1 0
BITMAP
8380
BD00
8800
BE00
C800
C800
DC00
AB00
9800
ENDCHAR
STARTCHAR char10846
ENCODING 10846
SWIDTH 1000 0
DWIDTH 10 0
BBX 7 9 1 0
BITMAP
10
18
FE
10
7C
10
78
96
72
ENDCHAR
STARTCHAR char10847
ENCODING 10847
SWIDTH 1000 0
DWIDTH 10 0
BBX 8 8 1 0
BITMAP
78
10
16
22
FE
C7
C5
08
ENDCHAR
STARTCHAR char10848
ENCODING 10848
SWIDTH 1000 0
DWIDTH 10 0
BBX 9 8 0 0
BITMAP
3000
F800
5380
7280
5200
6100
2100
1E00
ENDCHAR
STARTCHAR char10849
ENCODING 10849
SWIDTH 1000 0
DWIDTH 10 0
BBX 9 8 0 0
BITMAP
0400
4400
7F00
6880
F880
B180
C900
0200
ENDCHAR
STARTCHAR char10850
ENCODING 10850
SWIDTH 1000 0
DWIDTH 10 0
BBX 7 9 1 0
BITMAP
10
50
78
A0
78
26
32
12
0C
ENDCHAR
STARTCHAR char10851
ENCODING 10851
SWIDTH 1000 0
DWIDTH 10 0
BBX 7 7 1 0
BITMAP
10
58
5E
E6
34
10
08
ENDCHAR
STARTCHAR char10852
ENCODING 10852
SWIDTH 1000 0
DWIDTH 10 0
BBX 9 8 0 0
BITMAP
2800
4E00
3D80
F580
1300
1800
0800
0800
ENDCHAR
STARTCHAR char10853
ENCODING 10853
SWIDTH 1000 0
DWIDTH 10 0
BBX 7 6 1 0
BITMAP
B0
5C
6A
4A
5C
10
ENDCHAR
STARTCHAR char10854
ENCODING 10854
SWIDTH 1000 0
DWIDTH 10 0
BBX 9 9 0 0
BITMAP
0C00
DF00
5D80
E480
B480
D580
4F00
4800
0800
ENDCHAR
STARTCHAR char10855
ENCODING 10855
SWIDTH 1000 0
DWIDTH 10 0
BBX 5 7 2 0
BITMAP
20
28
38
20
60
B8
68
ENDCHAR
STARTCHAR char10856
ENCODING 10856
SWIDTH 1000 0
DWIDTH 10 0
BBX 7 9 1 0
BITMAP
10
18
16
1C
10
10
F8
D6
60
ENDCHAR
STARTCHAR char10857
ENCODING 10857
SWIDTH 1000 0
DWIDTH 10 0
BBX 6 9 2 0
BITMAP
40
20
20
C0
B8
EC
84
0C
30
ENDCHAR
STARTCHAR char10858
ENCODING 10858
SWIDTH 1000 0
DWIDTH 10 0
BBX 5 9 2 0
BITMAP
B0
C8
C8
88
88
98
10
10
20
ENDCHAR
STARTCHAR char10859
ENCODING 10859
SWIDTH 1000 0
DWIDTH 10 0
BBX 7 8 1 0
BITMAP
7C
18
20
7C
C2
3A
2C
38
ENDCHAR
STARTCHAR char10860
ENCODING 10860
SWIDTH 1000 0
DWIDTH 10 0
BBX 8 9 1 0
BITMAP
60
20
2C
F2
62
66
E4
A7
62
ENDCHAR
STARTCHAR char10861
ENCODING 10861
SWIDTH 1000 0
DWIDTH 10 0
BBX 7 9 1 0
BITMAP
58
38
10
38
66
82
02
0C
18
ENDCHAR
STARTCHAR char10862
ENCODING 10862
SWIDTH 1000 0
DWIDTH 10 0
BBX 7 8 1 0
BITMAP
20
30
30
FE
22
62
A4
20
ENDCHAR
STARTCHAR char10863
ENCODING 10863
SWIDTH 1000 0
DWIDTH 10 0
BBX 9 9 0 0
BITMAP
3000
1000
1000
7F00
3180
3080
5100
B200
1000
ENDCHAR
STARTCHAR char10864
ENCODING 10864
SWIDTH 1000 0
DWIDTH 10 0
BBX 7 9 1 0
BITMAP
08
78
10
18
66
E2
CE
92
0C
ENDCHAR
STARTCHAR char10865
ENCODING 10865
SWIDTH 1000 0
DWIDTH 10 0
BBX 9 9 0 0
BITMAP
0400
3C00
0C00
1200
3A00
1E00
3800
6780
9180
ENDCHAR
STARTCHAR char10866
ENCODING 10866
SWIDTH 1000 0
DWIDTH 10 0
BBX 7 9 1 0
BITMAP
30
1C
E0
7E
98
28
58
62
3C
ENDCHAR
STARTCHAR char10867
ENCODING 10867
SWIDTH 1000 0
DWIDTH 10 0
BBX 8 9 1 0
BITMAP
10
10
10
20
70
68
C9
8A
0C
ENDCHAR
STARTCHAR char10868
ENCODING 10868
SWIDTH 1000 0
DWIDTH 10 0
BBX 0 0 0 0
BITMAP
ENDCHAR
STARTCHAR char10869
ENCODING 10869
SWIDTH 1000 0
DWIDTH 10 0
BBX 0 0 0 0
BITMAP
ENDCHAR
STARTCHAR char10870
ENCODING 10870
SWIDTH 1000 0
DWIDTH 10 0
BBX 0 0 0 0
BITMAP
ENDCHAR
STARTCHAR char10871
ENCODING 10871
SWIDTH 1000 0
DWIDTH 10 0
BBX 0 0 0 0
BITMAP
ENDCHAR
STARTCHAR char10872
ENCODING 10872
SWIDTH 1000 0
DWIDTH 10 0
BBX 0 0 0 0
BITMAP
ENDCHAR
STARTCHAR char10873
ENCODING 10873
SWIDTH 1000 0
DWIDTH 10 0
BBX 0 0 0 0
BITMAP
ENDCHAR
STARTCHAR char10874
ENCODING 10874
SWIDTH 1000 0
DWIDTH 10 0
BBX 0 0 0 0
BITMAP
ENDCHAR
STARTCHAR char10875
ENCODING 10875
SWIDTH 1000 0
DWIDTH 10 0
BBX 0 0 0 0
BITMAP
ENDCHAR
STARTCHAR char10876
ENCODING 10876
SWIDTH 1000 0
DWIDTH 10 0
BBX 0 0 0 0
BITMAP
ENDCHAR
STARTCHAR char10877
ENCODING 10877
SWIDTH 1000 0
DWIDTH 10 0
BBX 0 0 0 0
BITMAP
ENDCHAR
STARTCHAR char10878
ENCODING 10878
SWIDTH 1000 0
DWIDTH 10 0
BBX 0 0 0 0
BITMAP
ENDCHAR
STARTCHAR char11041
ENCODING 11041
SWIDTH 1000 0
DWIDTH 10 0
BBX 7 6 1 0
BITMAP
BE
5C
08
10
10
30
ENDCHAR
STARTCHAR char11042
ENCODING 11042
SWIDTH 1000 0
DWIDTH 10 0
BBX 8 8 1 0
BITMAP
9F
E2
1C
08
18
10
10
20
ENDCHAR
STARTCHAR char11043
ENCODING 11043
SWIDTH 1000 0
DWIDTH 10 0
BBX 4 6 2 0
BITMAP
10
30
60
E0
20
20
ENDCHAR
STARTCHAR char11044
ENCODING 11044
SWIDTH 1000 0
DWIDTH 10 0
BBX 6 9 1 0
BITMAP
04
04
08
10
30
D0
10
10
10
ENDCHAR
STARTCHAR char11045
ENCODING 11045
SWIDTH 1000 0
DWIDTH 10 0
BBX 6 7 2 0
BITMAP
20
28
FC
48
48
10
60
ENDCHAR
STARTCHAR char11046
ENCODING 11046
SWIDTH 1000 0
DWIDTH 10 0
BBX 7 9 1 0
BITMAP
20
10
9E
E2
86
84
0C
08
30
ENDCHAR
STARTCHAR char11047
ENCODING 11047
SWIDTH 1000 0
DWIDTH 10 0
BBX 7 4 1 1
BITMAP
7C
10
10
FE
ENDCHAR
STARTCHAR char11048
ENCODING 11048
SWIDTH 1000 0
DWIDTH 10 0
BBX 8 5 1 2
BITMAP
4C
78
10
10
FF
ENDCHAR
STARTCHAR char11049
ENCODING 11049
SWIDTH 1000 0
DWIDTH 10 0
BBX 5 6 2 0
BITMAP
20
F8
60
E0
A0
20
ENDCHAR
STARTCHAR char11050
ENCODING 11050
SWIDTH 1000 0
DWIDTH 10 0
BBX 8 9 1 0
BITMAP
18
08
8F
78
38
48
88
38
08
ENDCHAR
STARTCHAR char11051
ENCODING 11051
SWIDTH 1000 0
DWIDTH 10 0
BBX 7 9 1 0
BITMAP
18
08
18
FE
22
22
64
9C
08
ENDCHAR
STARTCHAR char11052
ENCODING 11052
SWIDTH 1000 0
DWIDTH 10 0
BBX 8 9 1 0
BITMAP
11
13
10
FC
24
64
44
98
10
ENDCHAR
STARTCHAR char11053
ENCODING 11053
SWIDTH 1000 0
DWIDTH 10 0
BBX 7 9 1 0
BITMAP
20
20
1C
F0
1E
F8
08
08
08
ENDCHAR
STARTCHAR char11054
ENCODING 11054
SWIDTH 1000 0
DWIDTH 10 0
BBX 9 9 1 0
BITMAP
2100
2380
1C00
F000
1E00
F800
0800
0800
0800
ENDCHAR
STARTCHAR char11055
ENCODING 11055
SWIDTH 1000 0
DWIDTH 10 0
BBX 6 8 2 0
BITMAP
3C
24
48
88
10
30
40
C0
ENDCHAR
STARTCHAR char11056
ENCODING 11056
SWIDTH 1000 0
DWIDTH 10 0
BBX 9 9 1 0
BITMAP
0100
3F80
3400
4400
8800
0800
1000
2000
C000
ENDCHAR
STARTCHAR char11057
ENCODING 11057
SWIDTH 1000 0
DWIDTH 10 0
BBX 9 7 0 1
BITMAP
1800
1000
3F80
C600
0400
0C00
1800
ENDCHAR
STARTCHAR char11058
ENCODING 11058
SWIDTH 1000 0
DWIDTH 10 0
BBX 9 8 0 1
BITMAP
0180
1900
1000
3F80
C600
0400
0C00
1800
ENDCHAR
STARTCHAR char11059
ENCODING 11059
SWIDTH 1000 0
DWIDTH 10 0
BBX 7 6 1 1
BITMAP
9E
62
04
04
04
7E
ENDCHAR
STARTCHAR char11060
ENCODING 11060
SWIDTH 1000 0
DWIDTH 10 0
BBX 8 8 1 1
BITMAP
01
03
BC
E4
04
04
04
FC
ENDCHAR
STARTCHAR char11061
ENCODING 11061
SWIDTH 1000 0
DWIDTH 10 0
BBX 9 9 0 0
BITMAP
0600
3200
1380
FE00
1200
1600
0400
0400
0800
ENDCHAR
STARTCHAR char11062
ENCODING 11062
SWIDTH 1000 0
DWIDTH 10 0
BBX 10 9 0 0
BITMAP
07C0
3200
1380
FE00
1200
1600
0400
0400
0800
ENDCHAR
STARTCHAR char11063
ENCODING 11063
SWIDTH 1000 0
DWIDTH 10 0
BBX 8 7 1 1
BITMAP
E0
01
82
C4
08
B0
E0
ENDCHAR
STARTCHAR char11064
ENCODING 11064
SWIDTH 1000 0
DWIDTH 10 0
BBX 8 8 1 1
BITMAP
03
E2
01
82
C4
08
B0
E0
ENDCHAR
STARTCHAR char11065
ENCODING 11065
SWIDTH 1000 0
DWIDTH 10 0
BBX 8 7 0 1
BITMAP
06
3E
04
08
1C
26
C3
ENDCHAR
STARTCHAR char11066
ENCODING 11066
SWIDTH 1000 0
DWIDTH 10 0
BBX 9 8 0 1
BITMAP
0180
0700
3E00
0400
0800
1C00
2600
C300
ENDCHAR
STARTCHAR char11067
ENCODING 11067
SWIDTH 1000 0
DWIDTH 10 0
BBX 8 7 0 1
BITMAP
10
10
1F
F3
54
10
1F
ENDCHAR
STARTCHAR char11068
ENCODING 11068
SWIDTH 1000 0
DWIDTH 10 0
BBX 9 8 0 1
BITMAP
0080
1180
1000
1F00
F300
5400
1000
1F00
ENDCHAR
STARTCHAR char11069
ENCODING 11069
SWIDTH 1000 0
DWIDTH 10 0
BBX 6 8 2 0
BITMAP
0C
84
C8
08
10
20
40
80
ENDCHAR
STARTCHAR char11070
ENCODING 11070
SWIDTH 1000 0
DWIDTH 10 0
BBX 9 9 1 0
BITMAP
0380
0500
4600
6400
0C00
1000
2000
4000
8000
ENDCHAR
STARTCHAR char11071
ENCODING 11071
SWIDTH 1000 0
DWIDTH 10 0
BBX 7 9 1 0
BITMAP
10
1E
12
24
5C
0C
12
20
C0
ENDCHAR
STARTCHAR char11072
ENCODING 11072
SWIDTH 1000 0
DWIDTH 10 0
BBX 9 9 1 0
BITMAP
1380
1E00
1200
2400
5C00
0C00
1200
2000
C000
ENDCHAR
STARTCHAR char11073
ENCODING 11073
SWIDTH 1000 0
DWIDTH 10 0
BBX 8 9 1 0
BITMAP
08
0C
30
52
FF
10
10
10
20
ENDCHAR
STARTCHAR char11074
ENCODING 11074
SWIDTH 1000 0
DWIDTH 10 0
BBX 8 9 1 0
BITMAP
09
0F
30
52
FF
10
10
10
20
ENDCHAR
STARTCHAR char11075
ENCODING 11075
SWIDTH 1000 0
DWIDTH 10 0
BBX 7 5 1 0
BITMAP
B6
56
04
08
30
ENDCHAR
STARTCHAR char11076
ENCODING 11076
SWIDTH 1000 0
DWIDTH 10 0
BBX 7 8 1 0
BITMAP
04
A2
D6
04
0C
10
20
40
ENDCHAR
STARTCHAR char11077
ENCODING 11077
SWIDTH 1000 0
DWIDTH 10 0
BBX 9 9 1 0
BITMAP
0380
0500
B200
D600
0400
0C00
1000
2000
4000
ENDCHAR
STARTCHAR char11078
ENCODING 11078
SWIDTH 1000 0
DWIDTH 10 0
BBX 7 8 1 0
BITMAP
7C
00
FE
08
18
10
30
20
ENDCHAR
STARTCHAR char11079
ENCODING 11079
SWIDTH 1000 0
DWIDTH 10 0
BBX 9 8 1 0
BITMAP
7900
0380
FE00
1000
1000
1000
2000
6000
ENDCHAR
STARTCHAR char11080
ENCODING 11080
SWIDTH 1000 0
DWIDTH 10 0
BBX 4 9 3 0
BITMAP
80
C0
80
80
F0
90
80
80
80
ENDCHAR
STARTCHAR char11081
ENCODING 11081
SWIDTH 1000 0
DWIDTH 10 0
BBX 6 9 3 0
BITMAP
9C
C8
80
80
F0
90
80
80
80
ENDCHAR
STARTCHAR char11082
ENCODING 11082
SWIDTH 1000 0
DWIDTH 10 0
BBX 7 9 1 0
BITMAP
10
18
10
FE
10
10
10
10
20
ENDCHAR
STARTCHAR char11083
ENCODING 11083
SWIDTH 1000 0
DWIDTH 10 0
BBX 9 5 0 2
BITMAP
2E00
3000
0000
0000
FF80
ENDCHAR
STARTCHAR char11084
ENCODING 11084
SWIDTH 1000 0
DWIDTH 10 0
BBX 7 8 1 0
BITMAP
3E
04
24
18
18
34
40
80
ENDCHAR
STARTCHAR char11085
ENCODING 11085
SWIDTH 1000 0
DWIDTH 10 0
BBX 8 9 0 0
BITMAP
18
0C
5E
28
18
3A
CB
08
08
ENDCHAR
STARTCHAR char11086
ENCODING 11086
SWIDTH 1000 0
DWIDTH 10 0
BBX 7 8 1 0
BITMAP
06
06
04
0C
10
20
40
80
ENDCHAR
STARTCHAR char11087
ENCODING 11087
SWIDTH 1000 0
DWIDTH 10 0
BBX 8 4 1 2
BITMAP
68
64
82
81
ENDCHAR
STARTCHAR char11088
ENCODING 11088
SWIDTH 1000 0
DWIDTH 10 0
BBX 8 6 1 2
BITMAP
03
02
68
64
82
81
ENDCHAR
STARTCHAR char11089
ENCODING 11089
SWIDTH 1000 0
DWIDTH 10 0
BBX 8 6 1 2
BITMAP
03
03
68
64
82
81
ENDCHAR
STARTCHAR char11090
ENCODING 11090
SWIDTH 1000 0
DWIDTH 10 0
BBX 7 8 1 1
BITMAP
80
40
44
78
40
40
40
3E
ENDCHAR
STARTCHAR char11091
ENCODING 11091
SWIDTH 1000 0
DWIDTH 10 0
BBX 8 8 1 1
BITMAP
81
43
44
78
40
40
40
3E
ENDCHAR
STARTCHAR char11092
ENCODING 11092
SWIDTH 1000 0
DWIDTH 10 0
BBX 8 8 1 1
BITMAP
83
43
44
78
40
40
40
3E
ENDCHAR
STARTCHAR char11093
ENCODING 11093
SWIDTH 1000 0
DWIDTH 10 0
BBX 7 7 1 0
BITMAP
9E
E2
04
04
0C
10
10
ENDCHAR
STARTCHAR char11094
ENCODING 11094
SWIDTH 1000 0
DWIDTH 10 0
BBX 9 9 1 0
BITMAP
0100
0380
9E00
E200
0400
0400
0C00
1000
1000
ENDCHAR
STARTCHAR char11095
ENCODING 11095
SWIDTH 1000 0
DWIDTH 10 0
BBX 9 9 1 0
BITMAP
0100
0380
9E00
E200
0400
0400
0C00
1000
1000
ENDCHAR
STARTCHAR char11096
ENCODING 11096
SWIDTH 1000 0
DWIDTH 10 0
BBX 9 4 0 2
BITMAP
0800
1400
E200
0180
ENDCHAR
STARTCHAR char11097
ENCODING 11097
SWIDTH 1000 0
DWIDTH 10 0
BBX 9 6 0 2
BITMAP
0080
0180
0800
1400
E200
0180
ENDCHAR
STARTCHAR char11098
ENCODING 11098
SWIDTH 1000 0
DWIDTH 10 0
BBX 9 6 0 2
BITMAP
0180
0180
0800
1400
E200
0180
ENDCHAR
STARTCHAR char11099
ENCODING 11099
SWIDTH 1000 0
DWIDTH 10 0
BBX 7 8 1 0
BITMAP
10
10
FE
54
56
92
30
10
ENDCHAR
STARTCHAR char11100
ENCODING 11100
SWIDTH 1000 0
DWIDTH 10 0
BBX 9 8 1 0
BITMAP
1380
1100
FE00
5400
5600
9200
3000
1000
ENDCHAR
STARTCHAR char11101
ENCODING 11101
SWIDTH 1000 0
DWIDTH 10 0
BBX 9 8 1 0
BITMAP
1380
1100
FE00
5400
5600
9200
3000
1000
ENDCHAR
STARTCHAR char11102
ENCODING 11102
SWIDTH 1000 0
DWIDTH 10 0
BBX 8 6 1 1
BITMAP
02
FF
06
38
18
08
ENDCHAR
STARTCHAR char11103
ENCODING 11103
SWIDTH 1000 0
DWIDTH 10 0
BBX 4 7 3 1
BITMAP
C0
30
80
E0
00
80
E0
ENDCHAR
STARTCHAR char11104
ENCODING 11104
SWIDTH 1000 0
DWIDTH 10 0
BBX 8 7 1 1
BITMAP
10
18
10
34
24
6E
F1
ENDCHAR
STARTCHAR char11105
ENCODING 11105
SWIDTH 1000 0
DWIDTH 10 0
BBX 7 8 1 0
BITMAP
06
04
34
18
1C
24
40
80
ENDCHAR
STARTCHAR char11106
ENCODING 11106
SWIDTH 1000 0
DWIDTH 10 0
BBX 8 7 1 1
BITMAP
5C
70
10
FF
50
10
1E
ENDCHAR
STARTCHAR char11107
ENCODING 11107
SWIDTH 1000 0
DWIDTH 10 0
BBX 7 6 1 0
BITMAP
20
3E
F4
14
10
08
ENDCHAR
STARTCHAR char11108
ENCODING 11108
SWIDTH 1000 0
DWIDTH 10 0
BBX 9 8 0 0
BITMAP
6000
3380
1F00
F200
1800
0800
0800
0800
ENDCHAR
STARTCHAR char11109
ENCODING 11109
SWIDTH 1000 0
DWIDTH 10 0
BBX 7 4 1 1
BITMAP
7C
08
88
FE
ENDCHAR
STARTCHAR char11110
ENCODING 11110
SWIDTH 1000 0
DWIDTH 10 0
BBX 8 5 0 2
BITMAP
3E
04
04
04
FF
ENDCHAR
STARTCHAR char11111
ENCODING 11111
SWIDTH 1000 0
DWIDTH 10 0
BBX 5 5 2 1
BITMAP
F8
08
F8
18
F8
ENDCHAR
STARTCHAR char11112
ENCODING 11112
SWIDTH 1000 0
DWIDTH 10 0
BBX 6 7 2 1
BITMAP
84
FC
04
F8
08
88
FC
ENDCHAR
STARTCHAR char11113
ENCODING 11113
SWIDTH 1000 0
DWIDTH 10 0
BBX 6 9 2 0
BITMAP
40
38
04
FC
0C
08
10
20
40
ENDCHAR
STARTCHAR char11114
ENCODING 11114
SWIDTH 1000 0
DWIDTH 10 0
BBX 5 9 2 0
BITMAP
90
48
48
48
48
48
58
10
20
ENDCHAR
STARTCHAR char11115
ENCODING 11115
SWIDTH 1000 0
DWIDTH 10 0
BBX 9 7 0 1
BITMAP
0C00
2400
2400
2400
2580
6700
8400
ENDCHAR
STARTCHAR char11116
ENCODING 11116
SWIDTH 1000 0
DWIDTH 10 0
BBX 6 7 2 1
BITMAP
C0
80
80
84
98
F0
80
ENDCHAR
STARTCHAR char11117
ENCODING 11117
SWIDTH 1000 0
DWIDTH 10 0
BBX 7 6 1 1
BITMAP
C0
7E
44
44
7E
40
ENDCHAR
STARTCHAR char11118
ENCODING 11118
SWIDTH 1000 0
DWIDTH 10 0
BBX 6 6 2 0
BITMAP
DC
68
48
08
10
30
ENDCHAR
STARTCHAR char11119
ENCODING 11119
SWIDTH 1000 0
DWIDTH 10 0
BBX 6 8 2 0
BITMAP
9C
E4
8C
88
08
10
20
40
ENDCHAR
STARTCHAR char11120
ENCODING 11120
SWIDTH 1000 0
DWIDTH 10 0
BBX 8 9 1 0
BITMAP
18
08
88
7E
68
FF
08
08
08
ENDCHAR
STARTCHAR char11121
ENCODING 11121
SWIDTH 1000 0
DWIDTH 10 0
BBX 8 6 1 2
BITMAP
04
FC
28
10
10
FF
ENDCHAR
STARTCHAR char11122
ENCODING 11122
SWIDTH 1000 0
DWIDTH 10 0
BBX 7 8 1 0
BITMAP
FE
02
9C
64
08
10
20
40
ENDCHAR
STARTCHAR char11123
ENCODING 11123
SWIDTH 1000 0
DWIDTH 10 0
BBX 8 6 1 1
BITMAP
61
22
04
08
B0
60
ENDCHAR
STARTCHAR char11124
ENCODING 11124
SWIDTH 1000 0
DWIDTH 10 0
BBX 8 9 1 0
BITMAP
01
23
A4
FC
84
88
08
10
60
ENDCHAR
STARTCHAR char11125
ENCODING 11125
SWIDTH 1000 0
DWIDTH 10 0
BBX 6 7 1 0
BITMAP
10
10
7C
14
14
34
C8
ENDCHAR
STARTCHAR char11126
ENCODING 11126
SWIDTH 1000 0
DWIDTH 10 0
BBX 5 6 2 0
BITMAP
40
78
D0
B0
20
C0
ENDCHAR
STARTCHAR char11127
ENCODING 11127
SWIDTH 1000 0
DWIDTH 10 0
BBX 0 0 0 0
BITMAP
ENDCHAR
STARTCHAR char11128
ENCODING 11128
SWIDTH 1000 0
DWIDTH 10 0
BBX 0 0 0 0
BITMAP
ENDCHAR
STARTCHAR char11129
ENCODING 11129
SWIDTH 1000 0
DWIDTH 10 0
BBX 0 0 0 0
BITMAP
ENDCHAR
STARTCHAR char11130
ENCODING 11130
SWIDTH 1000 0
DWIDTH 10 0
BBX 0 0 0 0
BITMAP
ENDCHAR
STARTCHAR char11131
ENCODING 11131
SWIDTH 1000 0
DWIDTH 10 0
BBX 0 0 0 0
BITMAP
ENDCHAR
STARTCHAR char11132
ENCODING 11132
SWIDTH 1000 0
DWIDTH 10 0
BBX 0 0 0 0
BITMAP
ENDCHAR
STARTCHAR char11133
ENCODING 11133
SWIDTH 1000 0
DWIDTH 10 0
BBX 0 0 0 0
BITMAP
ENDCHAR
STARTCHAR char11134
ENCODING 11134
SWIDTH 1000 0
DWIDTH 10 0
BBX 0 0 0 0
BITMAP
ENDCHAR
STARTCHAR char11297
ENCODING 11297
SWIDTH 1000 0
DWIDTH 10 0
BBX 8 8 1 1
BITMAP
10
18
38
28
24
7C
46
C7
ENDCHAR
STARTCHAR char11298
ENCODING 11298
SWIDTH 1000 0
DWIDTH 10 0
BBX 7 8 1 1
BITMAP
FC
26
22
38
24
22
26
FC
ENDCHAR
STARTCHAR char11299
ENCODING 11299
SWIDTH 1000 0
DWIDTH 10 0
BBX 7 8 1 1
BITMAP
F8
24
24
3C
26
22
22
FC
ENDCHAR
STARTCHAR char11300
ENCODING 11300
SWIDTH 1000 0
DWIDTH 10 0
BBX 7 8 1 1
BITMAP
FC
26
22
20
20
20
20
F0
ENDCHAR
STARTCHAR char11301
ENCODING 11301
SWIDTH 1000 0
DWIDTH 10 0
BBX 7 9 1 0
BITMAP
7E
24
24
24
24
64
44
FE
82
ENDCHAR
STARTCHAR char11302
ENCODING 11302
SWIDTH 1000 0
DWIDTH 10 0
BBX 7 8 1 1
BITMAP
FC
26
22
24
3C
24
22
FC
ENDCHAR
STARTCHAR char11303
ENCODING 11303
SWIDTH 1000 0
DWIDTH 10 0
BBX 7 8 1 1
BITMAP
2C
FC
22
24
3C
24
22
FC
ENDCHAR
STARTCHAR char11304
ENCODING 11304
SWIDTH 1000 0
DWIDTH 10 0
BBX 9 8 0 1
BITMAP
7D80
AA80
1A00
1C00
1E00
2A00
2900
DD80
ENDCHAR
STARTCHAR char11305
ENCODING 11305
SWIDTH 1000 0
DWIDTH 10 0
BBX 5 8 2 1
BITMAP
B0
C8
88
38
08
08
88
78
ENDCHAR
STARTCHAR char11306
ENCODING 11306
SWIDTH 1000 0
DWIDTH 10 0
BBX 7 8 1 1
BITMAP
EE
44
4C
5C
54
64
64
EE
ENDCHAR
STARTCHAR char11307
ENCODING 11307
SWIDTH 1000 0
DWIDTH 10 0
BBX 7 8 1 1
BITMAP
38
EE
4C
4C
54
64
64
EE
ENDCHAR
STARTCHAR char11308
ENCODING 11308
SWIDTH 1000 0
DWIDTH 10 0
BBX 7 8 1 1
BITMAP
E6
48
50
70
60
58
4C
E6
ENDCHAR
STARTCHAR char11309
ENCODING 11309
SWIDTH 1000 0
DWIDTH 10 0
BBX 8 8 0 1
BITMAP
3F
12
12
12
12
12
92
E7
ENDCHAR
STARTCHAR char11310
ENCODING 11310
SWIDTH 1000 0
DWIDTH 10 0
BBX 9 8 0 1
BITMAP
C180
6100
6300
5300
5500
4D00
4900
E380
ENDCHAR
STARTCHAR char11311
ENCODING 11311
SWIDTH 1000 0
DWIDTH 10 0
BBX 7 8 1 1
BITMAP
EE
44
44
44
7C
44
44
EE
ENDCHAR
STARTCHAR char11312
ENCODING 11312
SWIDTH 1000 0
DWIDTH 10 0
BBX 7 8 1 1
BITMAP
38
64
42
82
82
C2
46
3C
ENDCHAR
STARTCHAR char11313
ENCODING 11313
SWIDTH 1000 0
DWIDTH 10 0
BBX 7 8 1 1
BITMAP
FE
44
44
44
44
44
44
EE
ENDCHAR
STARTCHAR char11314
ENCODING 11314
SWIDTH 1000 0
DWIDTH 10 0
BBX 6 8 2 1
BITMAP
F8
44
44
44
78
40
40
E0
ENDCHAR
STARTCHAR char11315
ENCODING 11315
SWIDTH 1000 0
DWIDTH 10 0
BBX 7 8 1 1
BITMAP
3A
46
82
80
80
82
C6
7C
ENDCHAR
STARTCHAR char11316
ENCODING 11316
SWIDTH 1000 0
DWIDTH 10 0
BBX 7 8 1 1
BITMAP
7E
D2
92
10
10
10
10
38
ENDCHAR
STARTCHAR char11317
ENCODING 11317
SWIDTH 1000 0
DWIDTH 10 0
BBX 8 8 1 1
BITMAP
E7
42
24
24
18
18
10
70
ENDCHAR
STARTCHAR char11318
ENCODING 11318
SWIDTH 1000 0
DWIDTH 10 0
BBX 8 8 1 1
BITMAP
3C
10
7E
93
91
D2
7C
3C
ENDCHAR
STARTCHAR char11319
ENCODING 11319
SWIDTH 1000 0
DWIDTH 10 0
BBX 7 8 1 1
BITMAP
E6
44
2C
18
18
38
24
E6
ENDCHAR
STARTCHAR char11320
ENCODING 11320
SWIDTH 1000 0
DWIDTH 10 0
BBX 8 9 1 0
BITMAP
EE
44
44
44
44
44
44
FF
03
ENDCHAR
STARTCHAR char11321
ENCODING 11321
SWIDTH 1000 0
DWIDTH 10 0
BBX 7 8 1 1
BITMAP
EE
44
44
44
44
7C
04
0E
ENDCHAR
STARTCHAR char11322
ENCODING 11322
SWIDTH 1000 0
DWIDTH 10 0
BBX 9 8 0 1
BITMAP
FF80
4900
4900
4900
4900
4900
4900
FF80
ENDCHAR
STARTCHAR char11323
ENCODING 11323
SWIDTH 1000 0
DWIDTH 10 0
BBX 9 9 0 0
BITMAP
FF80
4900
4900
4900
4900
4900
4900
FF80
0080
ENDCHAR
STARTCHAR char11324
ENCODING 11324
SWIDTH 1000 0
DWIDTH 10 0
BBX 7 8 1 1
BITMAP
F8
A0
A0
3C
22
22
22
7E
ENDCHAR
STARTCHAR char11325
ENCODING 11325
SWIDTH 1000 0
DWIDTH 10 0
BBX 9 8 0 1
BITMAP
E380
4100
4100
7100
4900
4500
4D00
FB80
ENDCHAR
STARTCHAR char11326
ENCODING 11326
SWIDTH 1000 0
DWIDTH 10 0
BBX 6 8 2 1
BITMAP
E0
40
40
70
48
44
4C
F8
ENDCHAR
STARTCHAR char11327
ENCODING 11327
SWIDTH 1000 0
DWIDTH 10 0
BBX 7 8 1 1
BITMAP
B8
C4
82
02
3E
82
C6
7C
ENDCHAR
STARTCHAR char11328
ENCODING 11328
SWIDTH 1000 0
DWIDTH 10 0
BBX 9 8 0 1
BITMAP
E300
4580
4C80
7880
4880
4880
4480
E700
ENDCHAR
STARTCHAR char11329
ENCODING 11329
SWIDTH 1000 0
DWIDTH 10 0
BBX 7 8 1 1
BITMAP
3E
64
44
64
3C
24
44
CE
ENDCHAR
STARTCHAR char11330
ENCODING 11330
SWIDTH 1000 0
DWIDTH 10 0
BBX 0 0 0 0
BITMAP
ENDCHAR
STARTCHAR char11331
ENCODING 11331
SWIDTH 1000 0
DWIDTH 10 0
BBX 0 0 0 0
BITMAP
ENDCHAR
STARTCHAR char11332
ENCODING 11332
SWIDTH 1000 0
DWIDTH 10 0
BBX 0 0 0 0
BITMAP
ENDCHAR
STARTCHAR char11333
ENCODING 11333
SWIDTH 1000 0
DWIDTH 10 0
BBX 0 0 0 0
BITMAP
ENDCHAR
STARTCHAR char11334
ENCODING 11334
SWIDTH 1000 0
DWIDTH 10 0
BBX 0 0 0 0
BITMAP
ENDCHAR
STARTCHAR char11335
ENCODING 11335
SWIDTH 1000 0
DWIDTH 10 0
BBX 0 0 0 0
BITMAP
ENDCHAR
STARTCHAR char11336
ENCODING 11336
SWIDTH 1000 0
DWIDTH 10 0
BBX 0 0 0 0
BITMAP
ENDCHAR
STARTCHAR char11337
ENCODING 11337
SWIDTH 1000 0
DWIDTH 10 0
BBX 0 0 0 0
BITMAP
ENDCHAR
STARTCHAR char11338
ENCODING 11338
SWIDTH 1000 0
DWIDTH 10 0
BBX 0 0 0 0
BITMAP
ENDCHAR
STARTCHAR char11339
ENCODING 11339
SWIDTH 1000 0
DWIDTH 10 0
BBX 0 0 0 0
BITMAP
ENDCHAR
STARTCHAR char11340
ENCODING 11340
SWIDTH 1000 0
DWIDTH 10 0
BBX 0 0 0 0
BITMAP
ENDCHAR
STARTCHAR char11341
ENCODING 11341
SWIDTH 1000 0
DWIDTH 10 0
BBX 0 0 0 0
BITMAP
ENDCHAR
STARTCHAR char11342
ENCODING 11342
SWIDTH 1000 0
DWIDTH 10 0
BBX 0 0 0 0
BITMAP
ENDCHAR
STARTCHAR char11343
ENCODING 11343
SWIDTH 1000 0
DWIDTH 10 0
BBX 0 0 0 0
BITMAP
ENDCHAR
STARTCHAR char11344
ENCODING 11344
SWIDTH 1000 0
DWIDTH 10 0
BBX 0 0 0 0
BITMAP
ENDCHAR
STARTCHAR char11345
ENCODING 11345
SWIDTH 1000 0
DWIDTH 10 0
BBX 6 5 2 1
BITMAP
70
88
78
88
7C
ENDCHAR
STARTCHAR char11346
ENCODING 11346
SWIDTH 1000 0
DWIDTH 10 0
BBX 5 8 2 1
BITMAP
08
70
C0
F0
88
88
88
70
ENDCHAR
STARTCHAR char11347
ENCODING 11347
SWIDTH 1000 0
DWIDTH 10 0
BBX 5 5 2 1
BITMAP
F8
48
78
48
F8
ENDCHAR
STARTCHAR char11348
ENCODING 11348
SWIDTH 1000 0
DWIDTH 10 0
BBX 5 5 2 1
BITMAP
F8
48
40
40
E0
ENDCHAR
STARTCHAR char11349
ENCODING 11349
SWIDTH 1000 0
DWIDTH 10 0
BBX 5 6 2 0
BITMAP
78
48
48
48
F8
88
ENDCHAR
STARTCHAR char11350
ENCODING 11350
SWIDTH 1000 0
DWIDTH 10 0
BBX 4 5 3 1
BITMAP
F0
90
F0
80
F0
ENDCHAR
STARTCHAR char11351
ENCODING 11351
SWIDTH 1000 0
DWIDTH 10 0
BBX 4 7 3 1
BITMAP
F0
00
F0
90
F0
80
F0
ENDCHAR
STARTCHAR char11352
ENCODING 11352
SWIDTH 1000 0
DWIDTH 10 0
BBX 8 5 1 1
BITMAP
DF
38
38
74
DB
ENDCHAR
STARTCHAR char11353
ENCODING 11353
SWIDTH 1000 0
DWIDTH 10 0
BBX 5 5 2 1
BITMAP
F0
98
30
88
70
ENDCHAR
STARTCHAR char11354
ENCODING 11354
SWIDTH 1000 0
DWIDTH 10 0
BBX 6 5 2 1
BITMAP
CC
58
68
68
CC
ENDCHAR
STARTCHAR char11355
ENCODING 11355
SWIDTH 1000 0
DWIDTH 10 0
BBX 6 7 2 1
BITMAP
28
30
CC
58
68
68
CC
ENDCHAR
STARTCHAR char11356
ENCODING 11356
SWIDTH 1000 0
DWIDTH 10 0
BBX 6 5 2 1
BITMAP
F8
60
60
50
EC
ENDCHAR
STARTCHAR char11357
ENCODING 11357
SWIDTH 1000 0
DWIDTH 10 0
BBX 5 5 2 1
BITMAP
F8
48
48
48
D8
ENDCHAR
STARTCHAR char11358
ENCODING 11358
SWIDTH 1000 0
DWIDTH 10 0
BBX 7 5 1 1
BITMAP
E6
6C
7C
54
F6
ENDCHAR
STARTCHAR char11359
ENCODING 11359
SWIDTH 1000 0
DWIDTH 10 0
BBX 6 5 2 1
BITMAP
CC
48
78
48
CC
ENDCHAR
STARTCHAR char11360
ENCODING 11360
SWIDTH 1000 0
DWIDTH 10 0
BBX 5 5 2 1
BITMAP
70
88
88
88
70
ENDCHAR
STARTCHAR char11361
ENCODING 11361
SWIDTH 1000 0
DWIDTH 10 0
BBX 7 5 1 1
BITMAP
FE
44
44
44
EE
ENDCHAR
STARTCHAR char11362
ENCODING 11362
SWIDTH 1000 0
DWIDTH 10 0
BBX 5 6 2 0
BITMAP
F8
48
48
48
70
E0
ENDCHAR
STARTCHAR char11363
ENCODING 11363
SWIDTH 1000 0
DWIDTH 10 0
BBX 5 5 2 1
BITMAP
78
88
80
88
70
ENDCHAR
STARTCHAR char11364
ENCODING 11364
SWIDTH 1000 0
DWIDTH 10 0
BBX 7 5 1 1
BITMAP
7E
92
10
10
38
ENDCHAR
STARTCHAR char11365
ENCODING 11365
SWIDTH 1000 0
DWIDTH 10 0
BBX 6 6 2 0
BITMAP
FC
48
78
30
20
C0
ENDCHAR
STARTCHAR char11366
ENCODING 11366
SWIDTH 1000 0
DWIDTH 10 0
BBX 7 9 1 0
BITMAP
10
10
10
7E
92
92
DA
7C
18
ENDCHAR
STARTCHAR char11367
ENCODING 11367
SWIDTH 1000 0
DWIDTH 10 0
BBX 6 5 2 1
BITMAP
DC
70
20
70
DC
ENDCHAR
STARTCHAR char11368
ENCODING 11368
SWIDTH 1000 0
DWIDTH 10 0
BBX 7 6 1 0
BITMAP
EE
44
44
44
FE
06
ENDCHAR
STARTCHAR char11369
ENCODING 11369
SWIDTH 1000 0
DWIDTH 10 0
BBX 6 5 2 1
BITMAP
D8
88
D8
78
1C
ENDCHAR
STARTCHAR char11370
ENCODING 11370
SWIDTH 1000 0
DWIDTH 10 0
BBX 7 5 1 1
BITMAP
DE
52
52
52
FE
ENDCHAR
STARTCHAR char11371
ENCODING 11371
SWIDTH 1000 0
DWIDTH 10 0
BBX 8 6 1 0
BITMAP
DE
52
52
52
FF
03
ENDCHAR
STARTCHAR char11372
ENCODING 11372
SWIDTH 1000 0
DWIDTH 10 0
BBX 5 5 2 1
BITMAP
F0
B0
28
28
78
ENDCHAR
STARTCHAR char11373
ENCODING 11373
SWIDTH 1000 0
DWIDTH 10 0
BBX 7 5 1 1
BITMAP
E6
74
5C
4C
F6
ENDCHAR
STARTCHAR char11374
ENCODING 11374
SWIDTH 1000 0
DWIDTH 10 0
BBX 4 5 3 1
BITMAP
E0
60
50
50
F0
ENDCHAR
STARTCHAR char11375
ENCODING 11375
SWIDTH 1000 0
DWIDTH 10 0
BBX 4 5 3 1
BITMAP
F0
90
70
90
F0
ENDCHAR
STARTCHAR char11376
ENCODING 11376
SWIDTH 1000 0
DWIDTH 10 0
BBX 8 5 1 1
BITMAP
CE
51
71
51
CE
ENDCHAR
STARTCHAR char11377
ENCODING 11377
SWIDTH 1000 0
DWIDTH 10 0
BBX 6 5 2 1
BITMAP
7C
48
78
48
DC
ENDCHAR
STARTCHAR char11378
ENCODING 11378
SWIDTH 1000 0
DWIDTH 10 0
BBX 0 0 0 0
BITMAP
ENDCHAR
STARTCHAR char11379
ENCODING 11379
SWIDTH 1000 0
DWIDTH 10 0
BBX 0 0 0 0
BITMAP
ENDCHAR
STARTCHAR char11380
ENCODING 11380
SWIDTH 1000 0
DWIDTH 10 0
BBX 0 0 0 0
BITMAP
ENDCHAR
STARTCHAR char11381
ENCODING 11381
SWIDTH 1000 0
DWIDTH 10 0
BBX 0 0 0 0
BITMAP
ENDCHAR
STARTCHAR char11382
ENCODING 11382
SWIDTH 1000 0
DWIDTH 10 0
BBX 0 0 0 0
BITMAP
ENDCHAR
STARTCHAR char11383
ENCODING 11383
SWIDTH 1000 0
DWIDTH 10 0
BBX 0 0 0 0
BITMAP
ENDCHAR
STARTCHAR char11384
ENCODING 11384
SWIDTH 1000 0
DWIDTH 10 0
BBX 0 0 0 0
BITMAP
ENDCHAR
STARTCHAR char11385
ENCODING 11385
SWIDTH 1000 0
DWIDTH 10 0
BBX 0 0 0 0
BITMAP
ENDCHAR
STARTCHAR char11386
ENCODING 11386
SWIDTH 1000 0
DWIDTH 10 0
BBX 0 0 0 0
BITMAP
ENDCHAR
STARTCHAR char11387
ENCODING 11387
SWIDTH 1000 0
DWIDTH 10 0
BBX 0 0 0 0
BITMAP
ENDCHAR
STARTCHAR char11388
ENCODING 11388
SWIDTH 1000 0
DWIDTH 10 0
BBX 0 0 0 0
BITMAP
ENDCHAR
STARTCHAR char11389
ENCODING 11389
SWIDTH 1000 0
DWIDTH 10 0
BBX 0 0 0 0
BITMAP
ENDCHAR
STARTCHAR char11390
ENCODING 11390
SWIDTH 1000 0
DWIDTH 10 0
BBX 0 0 0 0
BITMAP
ENDCHAR
STARTCHAR char11553
ENCODING 11553
SWIDTH 1000 0
DWIDTH 10 0
BBX 0 0 0 0
BITMAP
ENDCHAR
STARTCHAR char11554
ENCODING 11554
SWIDTH 1000 0
DWIDTH 10 0
BBX 0 0 0 0
BITMAP
ENDCHAR
STARTCHAR char11555
ENCODING 11555
SWIDTH 1000 0
DWIDTH 10 0
BBX 0 0 0 0
BITMAP
ENDCHAR
STARTCHAR char11556
ENCODING 11556
SWIDTH 1000 0
DWIDTH 10 0
BBX 0 0 0 0
BITMAP
ENDCHAR
STARTCHAR char11557
ENCODING 11557
SWIDTH 1000 0
DWIDTH 10 0
BBX 0 0 0 0
BITMAP
ENDCHAR
STARTCHAR char11558
ENCODING 11558
SWIDTH 1000 0
DWIDTH 10 0
BBX 0 0 0 0
BITMAP
ENDCHAR
STARTCHAR char11559
ENCODING 11559
SWIDTH 1000 0
DWIDTH 10 0
BBX 0 0 0 0
BITMAP
ENDCHAR
STARTCHAR char11560
ENCODING 11560
SWIDTH 1000 0
DWIDTH 10 0
BBX 0 0 0 0
BITMAP
ENDCHAR
STARTCHAR char11561
ENCODING 11561
SWIDTH 1000 0
DWIDTH 10 0
BBX 0 0 0 0
BITMAP
ENDCHAR
STARTCHAR char11562
ENCODING 11562
SWIDTH 1000 0
DWIDTH 10 0
BBX 0 0 0 0
BITMAP
ENDCHAR
STARTCHAR char11563
ENCODING 11563
SWIDTH 1000 0
DWIDTH 10 0
BBX 0 0 0 0
BITMAP
ENDCHAR
STARTCHAR char11564
ENCODING 11564
SWIDTH 1000 0
DWIDTH 10 0
BBX 0 0 0 0
BITMAP
ENDCHAR
STARTCHAR char11565
ENCODING 11565
SWIDTH 1000 0
DWIDTH 10 0
BBX 0 0 0 0
BITMAP
ENDCHAR
STARTCHAR char11566
ENCODING 11566
SWIDTH 1000 0
DWIDTH 10 0
BBX 0 0 0 0
BITMAP
ENDCHAR
STARTCHAR char11567
ENCODING 11567
SWIDTH 1000 0
DWIDTH 10 0
BBX 0 0 0 0
BITMAP
ENDCHAR
STARTCHAR char11568
ENCODING 11568
SWIDTH 1000 0
DWIDTH 10 0
BBX 0 0 0 0
BITMAP
ENDCHAR
STARTCHAR char11569
ENCODING 11569
SWIDTH 1000 0
DWIDTH 10 0
BBX 0 0 0 0
BITMAP
ENDCHAR
STARTCHAR char11570
ENCODING 11570
SWIDTH 1000 0
DWIDTH 10 0
BBX 0 0 0 0
BITMAP
ENDCHAR
STARTCHAR char11571
ENCODING 11571
SWIDTH 1000 0
DWIDTH 10 0
BBX 0 0 0 0
BITMAP
ENDCHAR
STARTCHAR char11572
ENCODING 11572
SWIDTH 1000 0
DWIDTH 10 0
BBX 0 0 0 0
BITMAP
ENDCHAR
STARTCHAR char11573
ENCODING 11573
SWIDTH 1000 0
DWIDTH 10 0
BBX 0 0 0 0
BITMAP
ENDCHAR
STARTCHAR char11574
ENCODING 11574
SWIDTH 1000 0
DWIDTH 10 0
BBX 0 0 0 0
BITMAP
ENDCHAR
STARTCHAR char11575
ENCODING 11575
SWIDTH 1000 0
DWIDTH 10 0
BBX 0 0 0 0
BITMAP
ENDCHAR
STARTCHAR char11576
ENCODING 11576
SWIDTH 1000 0
DWIDTH 10 0
BBX 0 0 0 0
BITMAP
ENDCHAR
STARTCHAR char11577
ENCODING 11577
SWIDTH 1000 0
DWIDTH 10 0
BBX 0 0 0 0
BITMAP
ENDCHAR
STARTCHAR char11578
ENCODING 11578
SWIDTH 1000 0
DWIDTH 10 0
BBX 0 0 0 0
BITMAP
ENDCHAR
STARTCHAR char11579
ENCODING 11579
SWIDTH 1000 0
DWIDTH 10 0
BBX 0 0 0 0
BITMAP
ENDCHAR
STARTCHAR char11580
ENCODING 11580
SWIDTH 1000 0
DWIDTH 10 0
BBX 0 0 0 0
BITMAP
ENDCHAR
STARTCHAR char11581
ENCODING 11581
SWIDTH 1000 0
DWIDTH 10 0
BBX 0 0 0 0
BITMAP
ENDCHAR
STARTCHAR char11582
ENCODING 11582
SWIDTH 1000 0
DWIDTH 10 0
BBX 0 0 0 0
BITMAP
ENDCHAR
STARTCHAR char11583
ENCODING 11583
SWIDTH 1000 0
DWIDTH 10 0
BBX 0 0 0 0
BITMAP
ENDCHAR
STARTCHAR char11584
ENCODING 11584
SWIDTH 1000 0
DWIDTH 10 0
BBX 0 0 0 0
BITMAP
ENDCHAR
STARTCHAR char11585
ENCODING 11585
SWIDTH 1000 0
DWIDTH 10 0
BBX 0 0 0 0
BITMAP
ENDCHAR
STARTCHAR char11586
ENCODING 11586
SWIDTH 1000 0
DWIDTH 10 0
BBX 0 0 0 0
BITMAP
ENDCHAR
STARTCHAR char11587
ENCODING 11587
SWIDTH 1000 0
DWIDTH 10 0
BBX 0 0 0 0
BITMAP
ENDCHAR
STARTCHAR char11588
ENCODING 11588
SWIDTH 1000 0
DWIDTH 10 0
BBX 0 0 0 0
BITMAP
ENDCHAR
STARTCHAR char11589
ENCODING 11589
SWIDTH 1000 0
DWIDTH 10 0
BBX 0 0 0 0
BITMAP
ENDCHAR
STARTCHAR char11590
ENCODING 11590
SWIDTH 1000 0
DWIDTH 10 0
BBX 0 0 0 0
BITMAP
ENDCHAR
STARTCHAR char11591
ENCODING 11591
SWIDTH 1000 0
DWIDTH 10 0
BBX 0 0 0 0
BITMAP
ENDCHAR
STARTCHAR char11592
ENCODING 11592
SWIDTH 1000 0
DWIDTH 10 0
BBX 0 0 0 0
BITMAP
ENDCHAR
STARTCHAR char11593
ENCODING 11593
SWIDTH 1000 0
DWIDTH 10 0
BBX 0 0 0 0
BITMAP
ENDCHAR
STARTCHAR char11594
ENCODING 11594
SWIDTH 1000 0
DWIDTH 10 0
BBX 0 0 0 0
BITMAP
ENDCHAR
STARTCHAR char11595
ENCODING 11595
SWIDTH 1000 0
DWIDTH 10 0
BBX 0 0 0 0
BITMAP
ENDCHAR
STARTCHAR char11596
ENCODING 11596
SWIDTH 1000 0
DWIDTH 10 0
BBX 0 0 0 0
BITMAP
ENDCHAR
STARTCHAR char11597
ENCODING 11597
SWIDTH 1000 0
DWIDTH 10 0
BBX 0 0 0 0
BITMAP
ENDCHAR
STARTCHAR char11598
ENCODING 11598
SWIDTH 1000 0
DWIDTH 10 0
BBX 0 0 0 0
BITMAP
ENDCHAR
STARTCHAR char11599
ENCODING 11599
SWIDTH 1000 0
DWIDTH 10 0
BBX 0 0 0 0
BITMAP
ENDCHAR
STARTCHAR char11600
ENCODING 11600
SWIDTH 1000 0
DWIDTH 10 0
BBX 0 0 0 0
BITMAP
ENDCHAR
STARTCHAR char11601
ENCODING 11601
SWIDTH 1000 0
DWIDTH 10 0
BBX 0 0 0 0
BITMAP
ENDCHAR
STARTCHAR char11602
ENCODING 11602
SWIDTH 1000 0
DWIDTH 10 0
BBX 0 0 0 0
BITMAP
ENDCHAR
STARTCHAR char11603
ENCODING 11603
SWIDTH 1000 0
DWIDTH 10 0
BBX 0 0 0 0
BITMAP
ENDCHAR
STARTCHAR char11604
ENCODING 11604
SWIDTH 1000 0
DWIDTH 10 0
BBX 0 0 0 0
BITMAP
ENDCHAR
STARTCHAR char11605
ENCODING 11605
SWIDTH 1000 0
DWIDTH 10 0
BBX 0 0 0 0
BITMAP
ENDCHAR
STARTCHAR char11606
ENCODING 11606
SWIDTH 1000 0
DWIDTH 10 0
BBX 0 0 0 0
BITMAP
ENDCHAR
STARTCHAR char11607
ENCODING 11607
SWIDTH 1000 0
DWIDTH 10 0
BBX 0 0 0 0
BITMAP
ENDCHAR
STARTCHAR char11608
ENCODING 11608
SWIDTH 1000 0
DWIDTH 10 0
BBX 0 0 0 0
BITMAP
ENDCHAR
STARTCHAR char11609
ENCODING 11609
SWIDTH 1000 0
DWIDTH 10 0
BBX 0 0 0 0
BITMAP
ENDCHAR
STARTCHAR char11610
ENCODING 11610
SWIDTH 1000 0
DWIDTH 10 0
BBX 0 0 0 0
BITMAP
ENDCHAR
STARTCHAR char11611
ENCODING 11611
SWIDTH 1000 0
DWIDTH 10 0
BBX 0 0 0 0
BITMAP
ENDCHAR
STARTCHAR char11612
ENCODING 11612
SWIDTH 1000 0
DWIDTH 10 0
BBX 0 0 0 0
BITMAP
ENDCHAR
STARTCHAR char11613
ENCODING 11613
SWIDTH 1000 0
DWIDTH 10 0
BBX 0 0 0 0
BITMAP
ENDCHAR
STARTCHAR char11614
ENCODING 11614
SWIDTH 1000 0
DWIDTH 10 0
BBX 0 0 0 0
BITMAP
ENDCHAR
STARTCHAR char11615
ENCODING 11615
SWIDTH 1000 0
DWIDTH 10 0
BBX 0 0 0 0
BITMAP
ENDCHAR
STARTCHAR char11616
ENCODING 11616
SWIDTH 1000 0
DWIDTH 10 0
BBX 0 0 0 0
BITMAP
ENDCHAR
STARTCHAR char11617
ENCODING 11617
SWIDTH 1000 0
DWIDTH 10 0
BBX 0 0 0 0
BITMAP
ENDCHAR
STARTCHAR char11618
ENCODING 11618
SWIDTH 1000 0
DWIDTH 10 0
BBX 0 0 0 0
BITMAP
ENDCHAR
STARTCHAR char11619
ENCODING 11619
SWIDTH 1000 0
DWIDTH 10 0
BBX 0 0 0 0
BITMAP
ENDCHAR
STARTCHAR char11620
ENCODING 11620
SWIDTH 1000 0
DWIDTH 10 0
BBX 0 0 0 0
BITMAP
ENDCHAR
STARTCHAR char11621
ENCODING 11621
SWIDTH 1000 0
DWIDTH 10 0
BBX 0 0 0 0
BITMAP
ENDCHAR
STARTCHAR char11622
ENCODING 11622
SWIDTH 1000 0
DWIDTH 10 0
BBX 0 0 0 0
BITMAP
ENDCHAR
STARTCHAR char11623
ENCODING 11623
SWIDTH 1000 0
DWIDTH 10 0
BBX 0 0 0 0
BITMAP
ENDCHAR
STARTCHAR char11624
ENCODING 11624
SWIDTH 1000 0
DWIDTH 10 0
BBX 0 0 0 0
BITMAP
ENDCHAR
STARTCHAR char11625
ENCODING 11625
SWIDTH 1000 0
DWIDTH 10 0
BBX 0 0 0 0
BITMAP
ENDCHAR
STARTCHAR char11626
ENCODING 11626
SWIDTH 1000 0
DWIDTH 10 0
BBX 0 0 0 0
BITMAP
ENDCHAR
STARTCHAR char11627
ENCODING 11627
SWIDTH 1000 0
DWIDTH 10 0
BBX 0 0 0 0
BITMAP
ENDCHAR
STARTCHAR char11628
ENCODING 11628
SWIDTH 1000 0
DWIDTH 10 0
BBX 0 0 0 0
BITMAP
ENDCHAR
STARTCHAR char11629
ENCODING 11629
SWIDTH 1000 0
DWIDTH 10 0
BBX 0 0 0 0
BITMAP
ENDCHAR
STARTCHAR char11630
ENCODING 11630
SWIDTH 1000 0
DWIDTH 10 0
BBX 0 0 0 0
BITMAP
ENDCHAR
STARTCHAR char11631
ENCODING 11631
SWIDTH 1000 0
DWIDTH 10 0
BBX 0 0 0 0
BITMAP
ENDCHAR
STARTCHAR char11632
ENCODING 11632
SWIDTH 1000 0
DWIDTH 10 0
BBX 0 0 0 0
BITMAP
ENDCHAR
STARTCHAR char11633
ENCODING 11633
SWIDTH 1000 0
DWIDTH 10 0
BBX 0 0 0 0
BITMAP
ENDCHAR
STARTCHAR char11634
ENCODING 11634
SWIDTH 1000 0
DWIDTH 10 0
BBX 0 0 0 0
BITMAP
ENDCHAR
STARTCHAR char11635
ENCODING 11635
SWIDTH 1000 0
DWIDTH 10 0
BBX 0 0 0 0
BITMAP
ENDCHAR
STARTCHAR char11636
ENCODING 11636
SWIDTH 1000 0
DWIDTH 10 0
BBX 0 0 0 0
BITMAP
ENDCHAR
STARTCHAR char11637
ENCODING 11637
SWIDTH 1000 0
DWIDTH 10 0
BBX 0 0 0 0
BITMAP
ENDCHAR
STARTCHAR char11638
ENCODING 11638
SWIDTH 1000 0
DWIDTH 10 0
BBX 0 0 0 0
BITMAP
ENDCHAR
STARTCHAR char11639
ENCODING 11639
SWIDTH 1000 0
DWIDTH 10 0
BBX 0 0 0 0
BITMAP
ENDCHAR
STARTCHAR char11640
ENCODING 11640
SWIDTH 1000 0
DWIDTH 10 0
BBX 0 0 0 0
BITMAP
ENDCHAR
STARTCHAR char11641
ENCODING 11641
SWIDTH 1000 0
DWIDTH 10 0
BBX 0 0 0 0
BITMAP
ENDCHAR
STARTCHAR char11642
ENCODING 11642
SWIDTH 1000 0
DWIDTH 10 0
BBX 0 0 0 0
BITMAP
ENDCHAR
STARTCHAR char11643
ENCODING 11643
SWIDTH 1000 0
DWIDTH 10 0
BBX 0 0 0 0
BITMAP
ENDCHAR
STARTCHAR char11644
ENCODING 11644
SWIDTH 1000 0
DWIDTH 10 0
BBX 0 0 0 0
BITMAP
ENDCHAR
STARTCHAR char11645
ENCODING 11645
SWIDTH 1000 0
DWIDTH 10 0
BBX 0 0 0 0
BITMAP
ENDCHAR
STARTCHAR char11646
ENCODING 11646
SWIDTH 1000 0
DWIDTH 10 0
BBX 0 0 0 0
BITMAP
ENDCHAR
STARTCHAR char11809
ENCODING 11809
SWIDTH 1000 0
DWIDTH 10 0
BBX 0 0 0 0
BITMAP
ENDCHAR
STARTCHAR char11810
ENCODING 11810
SWIDTH 1000 0
DWIDTH 10 0
BBX 0 0 0 0
BITMAP
ENDCHAR
STARTCHAR char11811
ENCODING 11811
SWIDTH 1000 0
DWIDTH 10 0
BBX 0 0 0 0
BITMAP
ENDCHAR
STARTCHAR char11812
ENCODING 11812
SWIDTH 1000 0
DWIDTH 10 0
BBX 0 0 0 0
BITMAP
ENDCHAR
STARTCHAR char11813
ENCODING 11813
SWIDTH 1000 0
DWIDTH 10 0
BBX 0 0 0 0
BITMAP
ENDCHAR
STARTCHAR char11814
ENCODING 11814
SWIDTH 1000 0
DWIDTH 10 0
BBX 0 0 0 0
BITMAP
ENDCHAR
STARTCHAR char11815
ENCODING 11815
SWIDTH 1000 0
DWIDTH 10 0
BBX 0 0 0 0
BITMAP
ENDCHAR
STARTCHAR char11816
ENCODING 11816
SWIDTH 1000 0
DWIDTH 10 0
BBX 0 0 0 0
BITMAP
ENDCHAR
STARTCHAR char11817
ENCODING 11817
SWIDTH 1000 0
DWIDTH 10 0
BBX 0 0 0 0
BITMAP
ENDCHAR
STARTCHAR char11818
ENCODING 11818
SWIDTH 1000 0
DWIDTH 10 0
BBX 0 0 0 0
BITMAP
ENDCHAR
STARTCHAR char11819
ENCODING 11819
SWIDTH 1000 0
DWIDTH 10 0
BBX 0 0 0 0
BITMAP
ENDCHAR
STARTCHAR char11820
ENCODING 11820
SWIDTH 1000 0
DWIDTH 10 0
BBX 0 0 0 0
BITMAP
ENDCHAR
STARTCHAR char11821
ENCODING 11821
SWIDTH 1000 0
DWIDTH 10 0
BBX 0 0 0 0
BITMAP
ENDCHAR
STARTCHAR char11822
ENCODING 11822
SWIDTH 1000 0
DWIDTH 10 0
BBX 0 0 0 0
BITMAP
ENDCHAR
STARTCHAR char11823
ENCODING 11823
SWIDTH 1000 0
DWIDTH 10 0
BBX 0 0 0 0
BITMAP
ENDCHAR
STARTCHAR char11824
ENCODING 11824
SWIDTH 1000 0
DWIDTH 10 0
BBX 0 0 0 0
BITMAP
ENDCHAR
STARTCHAR char11825
ENCODING 11825
SWIDTH 1000 0
DWIDTH 10 0
BBX 0 0 0 0
BITMAP
ENDCHAR
STARTCHAR char11826
ENCODING 11826
SWIDTH 1000 0
DWIDTH 10 0
BBX 0 0 0 0
BITMAP
ENDCHAR
STARTCHAR char11827
ENCODING 11827
SWIDTH 1000 0
DWIDTH 10 0
BBX 0 0 0 0
BITMAP
ENDCHAR
STARTCHAR char11828
ENCODING 11828
SWIDTH 1000 0
DWIDTH 10 0
BBX 0 0 0 0
BITMAP
ENDCHAR
STARTCHAR char11829
ENCODING 11829
SWIDTH 1000 0
DWIDTH 10 0
BBX 0 0 0 0
BITMAP
ENDCHAR
STARTCHAR char11830
ENCODING 11830
SWIDTH 1000 0
DWIDTH 10 0
BBX 0 0 0 0
BITMAP
ENDCHAR
STARTCHAR char11831
ENCODING 11831
SWIDTH 1000 0
DWIDTH 10 0
BBX 0 0 0 0
BITMAP
ENDCHAR
STARTCHAR char11832
ENCODING 11832
SWIDTH 1000 0
DWIDTH 10 0
BBX 0 0 0 0
BITMAP
ENDCHAR
STARTCHAR char11833
ENCODING 11833
SWIDTH 1000 0
DWIDTH 10 0
BBX 0 0 0 0
BITMAP
ENDCHAR
STARTCHAR char11834
ENCODING 11834
SWIDTH 1000 0
DWIDTH 10 0
BBX 0 0 0 0
BITMAP
ENDCHAR
STARTCHAR char11835
ENCODING 11835
SWIDTH 1000 0
DWIDTH 10 0
BBX 0 0 0 0
BITMAP
ENDCHAR
STARTCHAR char11836
ENCODING 11836
SWIDTH 1000 0
DWIDTH 10 0
BBX 0 0 0 0
BITMAP
ENDCHAR
STARTCHAR char11837
ENCODING 11837
SWIDTH 1000 0
DWIDTH 10 0
BBX 0 0 0 0
BITMAP
ENDCHAR
STARTCHAR char11838
ENCODING 11838
SWIDTH 1000 0
DWIDTH 10 0
BBX 0 0 0 0
BITMAP
ENDCHAR
STARTCHAR char11839
ENCODING 11839
SWIDTH 1000 0
DWIDTH 10 0
BBX 0 0 0 0
BITMAP
ENDCHAR
STARTCHAR char11840
ENCODING 11840
SWIDTH 1000 0
DWIDTH 10 0
BBX 0 0 0 0
BITMAP
ENDCHAR
STARTCHAR char11841
ENCODING 11841
SWIDTH 1000 0
DWIDTH 10 0
BBX 0 0 0 0
BITMAP
ENDCHAR
STARTCHAR char11842
ENCODING 11842
SWIDTH 1000 0
DWIDTH 10 0
BBX 0 0 0 0
BITMAP
ENDCHAR
STARTCHAR char11843
ENCODING 11843
SWIDTH 1000 0
DWIDTH 10 0
BBX 0 0 0 0
BITMAP
ENDCHAR
STARTCHAR char11844
ENCODING 11844
SWIDTH 1000 0
DWIDTH 10 0
BBX 0 0 0 0
BITMAP
ENDCHAR
STARTCHAR char11845
ENCODING 11845
SWIDTH 1000 0
DWIDTH 10 0
BBX 0 0 0 0
BITMAP
ENDCHAR
STARTCHAR char11846
ENCODING 11846
SWIDTH 1000 0
DWIDTH 10 0
BBX 0 0 0 0
BITMAP
ENDCHAR
STARTCHAR char11847
ENCODING 11847
SWIDTH 1000 0
DWIDTH 10 0
BBX 0 0 0 0
BITMAP
ENDCHAR
STARTCHAR char11848
ENCODING 11848
SWIDTH 1000 0
DWIDTH 10 0
BBX 0 0 0 0
BITMAP
ENDCHAR
STARTCHAR char11849
ENCODING 11849
SWIDTH 1000 0
DWIDTH 10 0
BBX 0 0 0 0
BITMAP
ENDCHAR
STARTCHAR char11850
ENCODING 11850
SWIDTH 1000 0
DWIDTH 10 0
BBX 0 0 0 0
BITMAP
ENDCHAR
STARTCHAR char11851
ENCODING 11851
SWIDTH 1000 0
DWIDTH 10 0
BBX 0 0 0 0
BITMAP
ENDCHAR
STARTCHAR char11852
ENCODING 11852
SWIDTH 1000 0
DWIDTH 10 0
BBX 0 0 0 0
BITMAP
ENDCHAR
STARTCHAR char11853
ENCODING 11853
SWIDTH 1000 0
DWIDTH 10 0
BBX 0 0 0 0
BITMAP
ENDCHAR
STARTCHAR char11854
ENCODING 11854
SWIDTH 1000 0
DWIDTH 10 0
BBX 0 0 0 0
BITMAP
ENDCHAR
STARTCHAR char11855
ENCODING 11855
SWIDTH 1000 0
DWIDTH 10 0
BBX 0 0 0 0
BITMAP
ENDCHAR
STARTCHAR char11856
ENCODING 11856
SWIDTH 1000 0
DWIDTH 10 0
BBX 0 0 0 0
BITMAP
ENDCHAR
STARTCHAR char11857
ENCODING 11857
SWIDTH 1000 0
DWIDTH 10 0
BBX 0 0 0 0
BITMAP
ENDCHAR
STARTCHAR char11858
ENCODING 11858
SWIDTH 1000 0
DWIDTH 10 0
BBX 0 0 0 0
BITMAP
ENDCHAR
STARTCHAR char11859
ENCODING 11859
SWIDTH 1000 0
DWIDTH 10 0
BBX 0 0 0 0
BITMAP
ENDCHAR
STARTCHAR char11860
ENCODING 11860
SWIDTH 1000 0
DWIDTH 10 0
BBX 0 0 0 0
BITMAP
ENDCHAR
STARTCHAR char11861
ENCODING 11861
SWIDTH 1000 0
DWIDTH 10 0
BBX 0 0 0 0
BITMAP
ENDCHAR
STARTCHAR char11862
ENCODING 11862
SWIDTH 1000 0
DWIDTH 10 0
BBX 0 0 0 0
BITMAP
ENDCHAR
STARTCHAR char11863
ENCODING 11863
SWIDTH 1000 0
DWIDTH 10 0
BBX 0 0 0 0
BITMAP
ENDCHAR
STARTCHAR char11864
ENCODING 11864
SWIDTH 1000 0
DWIDTH 10 0
BBX 0 0 0 0
BITMAP
ENDCHAR
STARTCHAR char11865
ENCODING 11865
SWIDTH 1000 0
DWIDTH 10 0
BBX 0 0 0 0
BITMAP
ENDCHAR
STARTCHAR char11866
ENCODING 11866
SWIDTH 1000 0
DWIDTH 10 0
BBX 0 0 0 0
BITMAP
ENDCHAR
STARTCHAR char11867
ENCODING 11867
SWIDTH 1000 0
DWIDTH 10 0
BBX 0 0 0 0
BITMAP
ENDCHAR
STARTCHAR char11868
ENCODING 11868
SWIDTH 1000 0
DWIDTH 10 0
BBX 0 0 0 0
BITMAP
ENDCHAR
STARTCHAR char11869
ENCODING 11869
SWIDTH 1000 0
DWIDTH 10 0
BBX 0 0 0 0
BITMAP
ENDCHAR
STARTCHAR char11870
ENCODING 11870
SWIDTH 1000 0
DWIDTH 10 0
BBX 0 0 0 0
BITMAP
ENDCHAR
STARTCHAR char11871
ENCODING 11871
SWIDTH 1000 0
DWIDTH 10 0
BBX 0 0 0 0
BITMAP
ENDCHAR
STARTCHAR char11872
ENCODING 11872
SWIDTH 1000 0
DWIDTH 10 0
BBX 0 0 0 0
BITMAP
ENDCHAR
STARTCHAR char11873
ENCODING 11873
SWIDTH 1000 0
DWIDTH 10 0
BBX 0 0 0 0
BITMAP
ENDCHAR
STARTCHAR char11874
ENCODING 11874
SWIDTH 1000 0
DWIDTH 10 0
BBX 0 0 0 0
BITMAP
ENDCHAR
STARTCHAR char11875
ENCODING 11875
SWIDTH 1000 0
DWIDTH 10 0
BBX 0 0 0 0
BITMAP
ENDCHAR
STARTCHAR char11876
ENCODING 11876
SWIDTH 1000 0
DWIDTH 10 0
BBX 0 0 0 0
BITMAP
ENDCHAR
STARTCHAR char11877
ENCODING 11877
SWIDTH 1000 0
DWIDTH 10 0
BBX 0 0 0 0
BITMAP
ENDCHAR
STARTCHAR char11878
ENCODING 11878
SWIDTH 1000 0
DWIDTH 10 0
BBX 0 0 0 0
BITMAP
ENDCHAR
STARTCHAR char11879
ENCODING 11879
SWIDTH 1000 0
DWIDTH 10 0
BBX 0 0 0 0
BITMAP
ENDCHAR
STARTCHAR char11880
ENCODING 11880
SWIDTH 1000 0
DWIDTH 10 0
BBX 0 0 0 0
BITMAP
ENDCHAR
STARTCHAR char11881
ENCODING 11881
SWIDTH 1000 0
DWIDTH 10 0
BBX 0 0 0 0
BITMAP
ENDCHAR
STARTCHAR char11882
ENCODING 11882
SWIDTH 1000 0
DWIDTH 10 0
BBX 0 0 0 0
BITMAP
ENDCHAR
STARTCHAR char11883
ENCODING 11883
SWIDTH 1000 0
DWIDTH 10 0
BBX 0 0 0 0
BITMAP
ENDCHAR
STARTCHAR char11884
ENCODING 11884
SWIDTH 1000 0
DWIDTH 10 0
BBX 0 0 0 0
BITMAP
ENDCHAR
STARTCHAR char11885
ENCODING 11885
SWIDTH 1000 0
DWIDTH 10 0
BBX 0 0 0 0
BITMAP
ENDCHAR
STARTCHAR char11886
ENCODING 11886
SWIDTH 1000 0
DWIDTH 10 0
BBX 0 0 0 0
BITMAP
ENDCHAR
STARTCHAR char11887
ENCODING 11887
SWIDTH 1000 0
DWIDTH 10 0
BBX 0 0 0 0
BITMAP
ENDCHAR
STARTCHAR char11888
ENCODING 11888
SWIDTH 1000 0
DWIDTH 10 0
BBX 0 0 0 0
BITMAP
ENDCHAR
STARTCHAR char11889
ENCODING 11889
SWIDTH 1000 0
DWIDTH 10 0
BBX 0 0 0 0
BITMAP
ENDCHAR
STARTCHAR char11890
ENCODING 11890
SWIDTH 1000 0
DWIDTH 10 0
BBX 0 0 0 0
BITMAP
ENDCHAR
STARTCHAR char11891
ENCODING 11891
SWIDTH 1000 0
DWIDTH 10 0
BBX 0 0 0 0
BITMAP
ENDCHAR
STARTCHAR char11892
ENCODING 11892
SWIDTH 1000 0
DWIDTH 10 0
BBX 0 0 0 0
BITMAP
ENDCHAR
STARTCHAR char11893
ENCODING 11893
SWIDTH 1000 0
DWIDTH 10 0
BBX 0 0 0 0
BITMAP
ENDCHAR
STARTCHAR char11894
ENCODING 11894
SWIDTH 1000 0
DWIDTH 10 0
BBX 0 0 0 0
BITMAP
ENDCHAR
STARTCHAR char11895
ENCODING 11895
SWIDTH 1000 0
DWIDTH 10 0
BBX 0 0 0 0
BITMAP
ENDCHAR
STARTCHAR char11896
ENCODING 11896
SWIDTH 1000 0
DWIDTH 10 0
BBX 0 0 0 0
BITMAP
ENDCHAR
STARTCHAR char11897
ENCODING 11897
SWIDTH 1000 0
DWIDTH 10 0
BBX 0 0 0 0
BITMAP
ENDCHAR
STARTCHAR char11898
ENCODING 11898
SWIDTH 1000 0
DWIDTH 10 0
BBX 0 0 0 0
BITMAP
ENDCHAR
STARTCHAR char11899
ENCODING 11899
SWIDTH 1000 0
DWIDTH 10 0
BBX 0 0 0 0
BITMAP
ENDCHAR
STARTCHAR char11900
ENCODING 11900
SWIDTH 1000 0
DWIDTH 10 0
BBX 0 0 0 0
BITMAP
ENDCHAR
STARTCHAR char11901
ENCODING 11901
SWIDTH 1000 0
DWIDTH 10 0
BBX 0 0 0 0
BITMAP
ENDCHAR
STARTCHAR char11902
ENCODING 11902
SWIDTH 1000 0
DWIDTH 10 0
BBX 0 0 0 0
BITMAP
ENDCHAR
STARTCHAR char12065
ENCODING 12065
SWIDTH 1000 0
DWIDTH 10 0
BBX 0 0 0 0
BITMAP
ENDCHAR
STARTCHAR char12066
ENCODING 12066
SWIDTH 1000 0
DWIDTH 10 0
BBX 0 0 0 0
BITMAP
ENDCHAR
STARTCHAR char12067
ENCODING 12067
SWIDTH 1000 0
DWIDTH 10 0
BBX 0 0 0 0
BITMAP
ENDCHAR
STARTCHAR char12068
ENCODING 12068
SWIDTH 1000 0
DWIDTH 10 0
BBX 0 0 0 0
BITMAP
ENDCHAR
STARTCHAR char12069
ENCODING 12069
SWIDTH 1000 0
DWIDTH 10 0
BBX 0 0 0 0
BITMAP
ENDCHAR
STARTCHAR char12070
ENCODING 12070
SWIDTH 1000 0
DWIDTH 10 0
BBX 0 0 0 0
BITMAP
ENDCHAR
STARTCHAR char12071
ENCODING 12071
SWIDTH 1000 0
DWIDTH 10 0
BBX 0 0 0 0
BITMAP
ENDCHAR
STARTCHAR char12072
ENCODING 12072
SWIDTH 1000 0
DWIDTH 10 0
BBX 0 0 0 0
BITMAP
ENDCHAR
STARTCHAR char12073
ENCODING 12073
SWIDTH 1000 0
DWIDTH 10 0
BBX 0 0 0 0
BITMAP
ENDCHAR
STARTCHAR char12074
ENCODING 12074
SWIDTH 1000 0
DWIDTH 10 0
BBX 0 0 0 0
BITMAP
ENDCHAR
STARTCHAR char12075
ENCODING 12075
SWIDTH 1000 0
DWIDTH 10 0
BBX 0 0 0 0
BITMAP
ENDCHAR
STARTCHAR char12076
ENCODING 12076
SWIDTH 1000 0
DWIDTH 10 0
BBX 0 0 0 0
BITMAP
ENDCHAR
STARTCHAR char12077
ENCODING 12077
SWIDTH 1000 0
DWIDTH 10 0
BBX 0 0 0 0
BITMAP
ENDCHAR
STARTCHAR char12078
ENCODING 12078
SWIDTH 1000 0
DWIDTH 10 0
BBX 0 0 0 0
BITMAP
ENDCHAR
STARTCHAR char12079
ENCODING 12079
SWIDTH 1000 0
DWIDTH 10 0
BBX 0 0 0 0
BITMAP
ENDCHAR
STARTCHAR char12080
ENCODING 12080
SWIDTH 1000 0
DWIDTH 10 0
BBX 0 0 0 0
BITMAP
ENDCHAR
STARTCHAR char12081
ENCODING 12081
SWIDTH 1000 0
DWIDTH 10 0
BBX 0 0 0 0
BITMAP
ENDCHAR
STARTCHAR char12082
ENCODING 12082
SWIDTH 1000 0
DWIDTH 10 0
BBX 0 0 0 0
BITMAP
ENDCHAR
STARTCHAR char12083
ENCODING 12083
SWIDTH 1000 0
DWIDTH 10 0
BBX 0 0 0 0
BITMAP
ENDCHAR
STARTCHAR char12084
ENCODING 12084
SWIDTH 1000 0
DWIDTH 10 0
BBX 0 0 0 0
BITMAP
ENDCHAR
STARTCHAR char12085
ENCODING 12085
SWIDTH 1000 0
DWIDTH 10 0
BBX 0 0 0 0
BITMAP
ENDCHAR
STARTCHAR char12086
ENCODING 12086
SWIDTH 1000 0
DWIDTH 10 0
BBX 0 0 0 0
BITMAP
ENDCHAR
STARTCHAR char12087
ENCODING 12087
SWIDTH 1000 0
DWIDTH 10 0
BBX 0 0 0 0
BITMAP
ENDCHAR
STARTCHAR char12088
ENCODING 12088
SWIDTH 1000 0
DWIDTH 10 0
BBX 0 0 0 0
BITMAP
ENDCHAR
STARTCHAR char12089
ENCODING 12089
SWIDTH 1000 0
DWIDTH 10 0
BBX 0 0 0 0
BITMAP
ENDCHAR
STARTCHAR char12090
ENCODING 12090
SWIDTH 1000 0
DWIDTH 10 0
BBX 0 0 0 0
BITMAP
ENDCHAR
STARTCHAR char12091
ENCODING 12091
SWIDTH 1000 0
DWIDTH 10 0
BBX 0 0 0 0
BITMAP
ENDCHAR
STARTCHAR char12092
ENCODING 12092
SWIDTH 1000 0
DWIDTH 10 0
BBX 0 0 0 0
BITMAP
ENDCHAR
STARTCHAR char12093
ENCODING 12093
SWIDTH 1000 0
DWIDTH 10 0
BBX 0 0 0 0
BITMAP
ENDCHAR
STARTCHAR char12094
ENCODING 12094
SWIDTH 1000 0
DWIDTH 10 0
BBX 0 0 0 0
BITMAP
ENDCHAR
STARTCHAR char12095
ENCODING 12095
SWIDTH 1000 0
DWIDTH 10 0
BBX 0 0 0 0
BITMAP
ENDCHAR
STARTCHAR char12096
ENCODING 12096
SWIDTH 1000 0
DWIDTH 10 0
BBX 0 0 0 0
BITMAP
ENDCHAR
STARTCHAR char12097
ENCODING 12097
SWIDTH 1000 0
DWIDTH 10 0
BBX 0 0 0 0
BITMAP
ENDCHAR
STARTCHAR char12098
ENCODING 12098
SWIDTH 1000 0
DWIDTH 10 0
BBX 0 0 0 0
BITMAP
ENDCHAR
STARTCHAR char12099
ENCODING 12099
SWIDTH 1000 0
DWIDTH 10 0
BBX 0 0 0 0
BITMAP
ENDCHAR
STARTCHAR char12100
ENCODING 12100
SWIDTH 1000 0
DWIDTH 10 0
BBX 0 0 0 0
BITMAP
ENDCHAR
STARTCHAR char12101
ENCODING 12101
SWIDTH 1000 0
DWIDTH 10 0
BBX 0 0 0 0
BITMAP
ENDCHAR
STARTCHAR char12102
ENCODING 12102
SWIDTH 1000 0
DWIDTH 10 0
BBX 0 0 0 0
BITMAP
ENDCHAR
STARTCHAR char12103
ENCODING 12103
SWIDTH 1000 0
DWIDTH 10 0
BBX 0 0 0 0
BITMAP
ENDCHAR
STARTCHAR char12104
ENCODING 12104
SWIDTH 1000 0
DWIDTH 10 0
BBX 0 0 0 0
BITMAP
ENDCHAR
STARTCHAR char12105
ENCODING 12105
SWIDTH 1000 0
DWIDTH 10 0
BBX 0 0 0 0
BITMAP
ENDCHAR
STARTCHAR char12106
ENCODING 12106
SWIDTH 1000 0
DWIDTH 10 0
BBX 0 0 0 0
BITMAP
ENDCHAR
STARTCHAR char12107
ENCODING 12107
SWIDTH 1000 0
DWIDTH 10 0
BBX 0 0 0 0
BITMAP
ENDCHAR
STARTCHAR char12108
ENCODING 12108
SWIDTH 1000 0
DWIDTH 10 0
BBX 0 0 0 0
BITMAP
ENDCHAR
STARTCHAR char12109
ENCODING 12109
SWIDTH 1000 0
DWIDTH 10 0
BBX 0 0 0 0
BITMAP
ENDCHAR
STARTCHAR char12110
ENCODING 12110
SWIDTH 1000 0
DWIDTH 10 0
BBX 0 0 0 0
BITMAP
ENDCHAR
STARTCHAR char12111
ENCODING 12111
SWIDTH 1000 0
DWIDTH 10 0
BBX 0 0 0 0
BITMAP
ENDCHAR
STARTCHAR char12112
ENCODING 12112
SWIDTH 1000 0
DWIDTH 10 0
BBX 0 0 0 0
BITMAP
ENDCHAR
STARTCHAR char12113
ENCODING 12113
SWIDTH 1000 0
DWIDTH 10 0
BBX 0 0 0 0
BITMAP
ENDCHAR
STARTCHAR char12114
ENCODING 12114
SWIDTH 1000 0
DWIDTH 10 0
BBX 0 0 0 0
BITMAP
ENDCHAR
STARTCHAR char12115
ENCODING 12115
SWIDTH 1000 0
DWIDTH 10 0
BBX 0 0 0 0
BITMAP
ENDCHAR
STARTCHAR char12116
ENCODING 12116
SWIDTH 1000 0
DWIDTH 10 0
BBX 0 0 0 0
BITMAP
ENDCHAR
STARTCHAR char12117
ENCODING 12117
SWIDTH 1000 0
DWIDTH 10 0
BBX 0 0 0 0
BITMAP
ENDCHAR
STARTCHAR char12118
ENCODING 12118
SWIDTH 1000 0
DWIDTH 10 0
BBX 0 0 0 0
BITMAP
ENDCHAR
STARTCHAR char12119
ENCODING 12119
SWIDTH 1000 0
DWIDTH 10 0
BBX 0 0 0 0
BITMAP
ENDCHAR
STARTCHAR char12120
ENCODING 12120
SWIDTH 1000 0
DWIDTH 10 0
BBX 0 0 0 0
BITMAP
ENDCHAR
STARTCHAR char12121
ENCODING 12121
SWIDTH 1000 0
DWIDTH 10 0
BBX 0 0 0 0
BITMAP
ENDCHAR
STARTCHAR char12122
ENCODING 12122
SWIDTH 1000 0
DWIDTH 10 0
BBX 0 0 0 0
BITMAP
ENDCHAR
STARTCHAR char12123
ENCODING 12123
SWIDTH 1000 0
DWIDTH 10 0
BBX 0 0 0 0
BITMAP
ENDCHAR
STARTCHAR char12124
ENCODING 12124
SWIDTH 1000 0
DWIDTH 10 0
BBX 0 0 0 0
BITMAP
ENDCHAR
STARTCHAR char12125
ENCODING 12125
SWIDTH 1000 0
DWIDTH 10 0
BBX 0 0 0 0
BITMAP
ENDCHAR
STARTCHAR char12126
ENCODING 12126
SWIDTH 1000 0
DWIDTH 10 0
BBX 0 0 0 0
BITMAP
ENDCHAR
STARTCHAR char12127
ENCODING 12127
SWIDTH 1000 0
DWIDTH 10 0
BBX 0 0 0 0
BITMAP
ENDCHAR
STARTCHAR char12128
ENCODING 12128
SWIDTH 1000 0
DWIDTH 10 0
BBX 0 0 0 0
BITMAP
ENDCHAR
STARTCHAR char12129
ENCODING 12129
SWIDTH 1000 0
DWIDTH 10 0
BBX 0 0 0 0
BITMAP
ENDCHAR
STARTCHAR char12130
ENCODING 12130
SWIDTH 1000 0
DWIDTH 10 0
BBX 0 0 0 0
BITMAP
ENDCHAR
STARTCHAR char12131
ENCODING 12131
SWIDTH 1000 0
DWIDTH 10 0
BBX 0 0 0 0
BITMAP
ENDCHAR
STARTCHAR char12132
ENCODING 12132
SWIDTH 1000 0
DWIDTH 10 0
BBX 0 0 0 0
BITMAP
ENDCHAR
STARTCHAR char12133
ENCODING 12133
SWIDTH 1000 0
DWIDTH 10 0
BBX 0 0 0 0
BITMAP
ENDCHAR
STARTCHAR char12134
ENCODING 12134
SWIDTH 1000 0
DWIDTH 10 0
BBX 0 0 0 0
BITMAP
ENDCHAR
STARTCHAR char12135
ENCODING 12135
SWIDTH 1000 0
DWIDTH 10 0
BBX 0 0 0 0
BITMAP
ENDCHAR
STARTCHAR char12136
ENCODING 12136
SWIDTH 1000 0
DWIDTH 10 0
BBX 0 0 0 0
BITMAP
ENDCHAR
STARTCHAR char12137
ENCODING 12137
SWIDTH 1000 0
DWIDTH 10 0
BBX 0 0 0 0
BITMAP
ENDCHAR
STARTCHAR char12138
ENCODING 12138
SWIDTH 1000 0
DWIDTH 10 0
BBX 0 0 0 0
BITMAP
ENDCHAR
STARTCHAR char12139
ENCODING 12139
SWIDTH 1000 0
DWIDTH 10 0
BBX 0 0 0 0
BITMAP
ENDCHAR
STARTCHAR char12140
ENCODING 12140
SWIDTH 1000 0
DWIDTH 10 0
BBX 0 0 0 0
BITMAP
ENDCHAR
STARTCHAR char12141
ENCODING 12141
SWIDTH 1000 0
DWIDTH 10 0
BBX 0 0 0 0
BITMAP
ENDCHAR
STARTCHAR char12142
ENCODING 12142
SWIDTH 1000 0
DWIDTH 10 0
BBX 0 0 0 0
BITMAP
ENDCHAR
STARTCHAR char12143
ENCODING 12143
SWIDTH 1000 0
DWIDTH 10 0
BBX 0 0 0 0
BITMAP
ENDCHAR
STARTCHAR char12144
ENCODING 12144
SWIDTH 1000 0
DWIDTH 10 0
BBX 0 0 0 0
BITMAP
ENDCHAR
STARTCHAR char12145
ENCODING 12145
SWIDTH 1000 0
DWIDTH 10 0
BBX 0 0 0 0
BITMAP
ENDCHAR
STARTCHAR char12146
ENCODING 12146
SWIDTH 1000 0
DWIDTH 10 0
BBX 0 0 0 0
BITMAP
ENDCHAR
STARTCHAR char12147
ENCODING 12147
SWIDTH 1000 0
DWIDTH 10 0
BBX 0 0 0 0
BITMAP
ENDCHAR
STARTCHAR char12148
ENCODING 12148
SWIDTH 1000 0
DWIDTH 10 0
BBX 0 0 0 0
BITMAP
ENDCHAR
STARTCHAR char12149
ENCODING 12149
SWIDTH 1000 0
DWIDTH 10 0
BBX 0 0 0 0
BITMAP
ENDCHAR
STARTCHAR char12150
ENCODING 12150
SWIDTH 1000 0
DWIDTH 10 0
BBX 0 0 0 0
BITMAP
ENDCHAR
STARTCHAR char12151
ENCODING 12151
SWIDTH 1000 0
DWIDTH 10 0
BBX 0 0 0 0
BITMAP
ENDCHAR
STARTCHAR char12152
ENCODING 12152
SWIDTH 1000 0
DWIDTH 10 0
BBX 0 0 0 0
BITMAP
ENDCHAR
STARTCHAR char12153
ENCODING 12153
SWIDTH 1000 0
DWIDTH 10 0
BBX 0 0 0 0
BITMAP
ENDCHAR
STARTCHAR char12154
ENCODING 12154
SWIDTH 1000 0
DWIDTH 10 0
BBX 0 0 0 0
BITMAP
ENDCHAR
STARTCHAR char12155
ENCODING 12155
SWIDTH 1000 0
DWIDTH 10 0
BBX 0 0 0 0
BITMAP
ENDCHAR
STARTCHAR char12156
ENCODING 12156
SWIDTH 1000 0
DWIDTH 10 0
BBX 0 0 0 0
BITMAP
ENDCHAR
STARTCHAR char12157
ENCODING 12157
SWIDTH 1000 0
DWIDTH 10 0
BBX 0 0 0 0
BITMAP
ENDCHAR
STARTCHAR char12158
ENCODING 12158
SWIDTH 1000 0
DWIDTH 10 0
BBX 0 0 0 0
BITMAP
ENDCHAR
STARTCHAR char12321
ENCODING 12321
SWIDTH 1000 0
DWIDTH 10 0
BBX 10 9 0 0
BITMAP
0100
F900
0900
0900
11C0
3100
6100
8100
0100
ENDCHAR
STARTCHAR char12322
ENCODING 12322
SWIDTH 1000 0
DWIDTH 10 0
BBX 10 9 0 0
BITMAP
F900
0900
19C0
2100
E100
0100
7F00
0100
0100
ENDCHAR
STARTCHAR char12323
ENCODING 12323
SWIDTH 1000 0
DWIDTH 10 0
BBX 10 9 0 0
BITMAP
F900
0900
1900
21C0
6100
8100
6100
2000
3F00
ENDCHAR
STARTCHAR char12324
ENCODING 12324
SWIDTH 1000 0
DWIDTH 10 0
BBX 10 9 0 0
BITMAP
F900
0900
19C0
2100
E100
0100
7F00
2000
3F00
ENDCHAR
STARTCHAR char12325
ENCODING 12325
SWIDTH 1000 0
DWIDTH 10 0
BBX 10 10 0 -1
BITMAP
F900
0900
19C0
2100
E100
3F00
0100
3F00
2000
1F00
ENDCHAR
STARTCHAR char12326
ENCODING 12326
SWIDTH 1000 0
DWIDTH 10 0
BBX 10 9 0 0
BITMAP
F900
0900
19C0
2100
E100
7F00
1100
7100
7900
ENDCHAR
STARTCHAR char12327
ENCODING 12327
SWIDTH 1000 0
DWIDTH 10 0
BBX 10 10 0 -1
BITMAP
F900
0900
19C0
2100
E100
7F00
1500
7500
4700
3800
ENDCHAR
STARTCHAR char12328
ENCODING 12328
SWIDTH 1000 0
DWIDTH 10 0
BBX 10 9 0 0
BITMAP
F900
0900
19C0
2100
E100
3F00
2100
2100
3F00
ENDCHAR
STARTCHAR char12329
ENCODING 12329
SWIDTH 1000 0
DWIDTH 10 0
BBX 10 9 0 0
BITMAP
F900
0900
19C0
2100
E100
2300
3F00
2100
3F00
ENDCHAR
STARTCHAR char12330
ENCODING 12330
SWIDTH 1000 0
DWIDTH 10 0
BBX 10 10 0 -1
BITMAP
F900
0900
19C0
2100
E100
1A00
CA00
7D00
4C80
3800
ENDCHAR
STARTCHAR char12331
ENCODING 12331
SWIDTH 1000 0
DWIDTH 10 0
BBX 10 9 0 0
BITMAP
F900
0900
19C0
2100
E100
0900
0800
1E00
6300
ENDCHAR
STARTCHAR char12332
ENCODING 12332
SWIDTH 1000 0
DWIDTH 10 0
BBX 10 9 0 0
BITMAP
F900
0900
19C0
2100
E100
1200
1200
2D00
4880
ENDCHAR
STARTCHAR char12333
ENCODING 12333
SWIDTH 1000 0
DWIDTH 10 0
BBX 10 9 0 0
BITMAP
F900
0900
19C0
2100
E100
0F00
1200
1100
1E00
ENDCHAR
STARTCHAR char12334
ENCODING 12334
SWIDTH 1000 0
DWIDTH 10 0
BBX 10 9 0 0
BITMAP
F900
0900
19C0
2100
E100
0100
3F00
1C00
7300
ENDCHAR
STARTCHAR char12335
ENCODING 12335
SWIDTH 1000 0
DWIDTH 10 0
BBX 10 9 0 0
BITMAP
F900
0900
19C0
2100
E100
1C00
7F00
0C00
7700
ENDCHAR
STARTCHAR char12336
ENCODING 12336
SWIDTH 1000 0
DWIDTH 10 0
BBX 10 9 0 0
BITMAP
F900
0900
19C0
2100
E100
3F00
2000
3F00
3F00
ENDCHAR
STARTCHAR char12337
ENCODING 12337
SWIDTH 1000 0
DWIDTH 10 0
BBX 10 9 0 0
BITMAP
F900
0900
19C0
2100
E100
7F00
2600
1200
7F00
ENDCHAR
STARTCHAR char12338
ENCODING 12338
SWIDTH 1000 0
DWIDTH 10 0
BBX 10 9 0 0
BITMAP
F900
0900
19C0
2100
E100
1E00
7F80
2100
3F00
ENDCHAR
STARTCHAR char12339
ENCODING 12339
SWIDTH 1000 0
DWIDTH 10 0
BBX 8 9 0 0
BITMAP
05
F5
15
15
17
25
45
85
01
ENDCHAR
STARTCHAR char12340
ENCODING 12340
SWIDTH 1000 0
DWIDTH 10 0
BBX 8 9 0 0
BITMAP
F5
15
17
25
C5
01
3F
01
01
ENDCHAR
STARTCHAR char12341
ENCODING 12341
SWIDTH 1000 0
DWIDTH 10 0
BBX 8 9 0 0
BITMAP
F5
15
15
27
45
85
25
20
3F
ENDCHAR
STARTCHAR char12342
ENCODING 12342
SWIDTH 1000 0
DWIDTH 10 0
BBX 8 10 0 -1
BITMAP
F5
15
17
25
C5
3F
01
3F
20
3F
ENDCHAR
STARTCHAR char12343
ENCODING 12343
SWIDTH 1000 0
DWIDTH 10 0
BBX 8 9 0 0
BITMAP
F5
15
17
25
C5
3F
21
21
3F
ENDCHAR
STARTCHAR char12344
ENCODING 12344
SWIDTH 1000 0
DWIDTH 10 0
BBX 8 9 0 0
BITMAP
F5
15
17
25
C5
21
3F
21
3F
ENDCHAR
STARTCHAR char12345
ENCODING 12345
SWIDTH 1000 0
DWIDTH 10 0
BBX 8 9 0 0
BITMAP
F5
15
17
25
C5
09
08
1E
63
ENDCHAR
STARTCHAR char12346
ENCODING 12346
SWIDTH 1000 0
DWIDTH 10 0
BBX 9 9 0 0
BITMAP
F500
1500
1700
2500
C500
1300
1200
3B00
6C80
ENDCHAR
STARTCHAR char12347
ENCODING 12347
SWIDTH 1000 0
DWIDTH 10 0
BBX 8 9 0 0
BITMAP
F5
15
17
25
C5
0F
11
11
1F
ENDCHAR
STARTCHAR char12348
ENCODING 12348
SWIDTH 1000 0
DWIDTH 10 0
BBX 10 9 0 0
BITMAP
0100
F900
09C0
0900
1100
31C0
6100
8100
0100
ENDCHAR
STARTCHAR char12349
ENCODING 12349
SWIDTH 1000 0
DWIDTH 10 0
BBX 10 9 0 0
BITMAP
F900
09C0
1900
21C0
E100
0100
7F00
0100
0100
ENDCHAR
STARTCHAR char12350
ENCODING 12350
SWIDTH 1000 0
DWIDTH 10 0
BBX 10 9 0 0
BITMAP
F900
0900
19C0
2100
61C0
8100
6100
2000
3F00
ENDCHAR
STARTCHAR char12351
ENCODING 12351
SWIDTH 1000 0
DWIDTH 10 0
BBX 10 9 0 0
BITMAP
F900
09C0
1900
21C0
E100
3F00
0100
3F00
3F00
ENDCHAR
STARTCHAR char12352
ENCODING 12352
SWIDTH 1000 0
DWIDTH 10 0
BBX 10 9 0 0
BITMAP
F900
09C0
1900
21C0
E100
0900
0800
1E00
6300
ENDCHAR
STARTCHAR char12353
ENCODING 12353
SWIDTH 1000 0
DWIDTH 10 0
BBX 10 9 0 0
BITMAP
F900
09C0
1900
21C0
E100
0F00
1200
1100
1E00
ENDCHAR
STARTCHAR char12354
ENCODING 12354
SWIDTH 1000 0
DWIDTH 10 0
BBX 8 9 0 0
BITMAP
05
F5
17
15
15
27
45
85
01
ENDCHAR
STARTCHAR char12355
ENCODING 12355
SWIDTH 1000 0
DWIDTH 10 0
BBX 8 9 0 0
BITMAP
F5
17
15
25
47
85
25
20
3F
ENDCHAR
STARTCHAR char12356
ENCODING 12356
SWIDTH 1000 0
DWIDTH 10 0
BBX 8 10 0 -1
BITMAP
F5
17
15
27
C5
3F
01
3F
20
3F
ENDCHAR
STARTCHAR char12357
ENCODING 12357
SWIDTH 1000 0
DWIDTH 10 0
BBX 8 9 0 0
BITMAP
01
F9
09
0F
11
31
61
81
01
ENDCHAR
STARTCHAR char12358
ENCODING 12358
SWIDTH 1000 0
DWIDTH 10 0
BBX 8 9 0 0
BITMAP
F9
09
1F
31
E1
01
7F
01
01
ENDCHAR
STARTCHAR char12359
ENCODING 12359
SWIDTH 1000 0
DWIDTH 10 0
BBX 8 9 0 0
BITMAP
F9
09
1F
31
61
81
61
20
3F
ENDCHAR
STARTCHAR char12360
ENCODING 12360
SWIDTH 1000 0
DWIDTH 10 0
BBX 8 9 0 0
BITMAP
F9
09
1F
31
E1
01
7F
20
3F
ENDCHAR
STARTCHAR char12361
ENCODING 12361
SWIDTH 1000 0
DWIDTH 10 0
BBX 8 10 0 -1
BITMAP
F9
09
1F
31
E1
3F
01
3F
20
3F
ENDCHAR
STARTCHAR char12362
ENCODING 12362
SWIDTH 1000 0
DWIDTH 10 0
BBX 8 9 0 0
BITMAP
F9
09
1F
31
E1
7F
15
75
7F
ENDCHAR
STARTCHAR char12363
ENCODING 12363
SWIDTH 1000 0
DWIDTH 10 0
BBX 8 9 0 0
BITMAP
F9
09
1F
31
E1
3F
21
21
3F
ENDCHAR
STARTCHAR char12364
ENCODING 12364
SWIDTH 1000 0
DWIDTH 10 0
BBX 8 9 0 0
BITMAP
F9
09
1F
31
E1
23
3F
21
3F
ENDCHAR
STARTCHAR char12365
ENCODING 12365
SWIDTH 1000 0
DWIDTH 10 0
BBX 8 9 0 0
BITMAP
F9
09
1F
31
E1
09
08
1E
63
ENDCHAR
STARTCHAR char12366
ENCODING 12366
SWIDTH 1000 0
DWIDTH 10 0
BBX 9 9 0 0
BITMAP
F900
0900
1F00
3100
E100
1200
1200
3F00
6980
ENDCHAR
STARTCHAR char12367
ENCODING 12367
SWIDTH 1000 0
DWIDTH 10 0
BBX 8 9 0 0
BITMAP
F9
09
1F
31
E1
0F
12
11
1E
ENDCHAR
STARTCHAR char12368
ENCODING 12368
SWIDTH 1000 0
DWIDTH 10 0
BBX 8 9 0 0
BITMAP
F9
09
1F
31
E1
01
3F
1C
73
ENDCHAR
STARTCHAR char12369
ENCODING 12369
SWIDTH 1000 0
DWIDTH 10 0
BBX 8 9 0 0
BITMAP
F9
09
1F
31
E1
3F
20
3F
3F
ENDCHAR
STARTCHAR char12370
ENCODING 12370
SWIDTH 1000 0
DWIDTH 10 0
BBX 8 9 0 0
BITMAP
F9
09
1F
31
E1
7F
26
12
7F
ENDCHAR
STARTCHAR char12371
ENCODING 12371
SWIDTH 1000 0
DWIDTH 10 0
BBX 9 9 0 0
BITMAP
F900
0900
1F00
3100
E100
1E00
7F80
2100
3F00
ENDCHAR
STARTCHAR char12372
ENCODING 12372
SWIDTH 1000 0
DWIDTH 10 0
BBX 8 9 0 0
BITMAP
05
F5
15
1D
15
25
45
85
01
ENDCHAR
STARTCHAR char12373
ENCODING 12373
SWIDTH 1000 0
DWIDTH 10 0
BBX 8 9 0 0
BITMAP
F5
15
1D
25
45
85
25
20
3F
ENDCHAR
STARTCHAR char12374
ENCODING 12374
SWIDTH 1000 0
DWIDTH 10 0
BBX 9 9 0 0
BITMAP
F500
1500
1D00
2500
C500
3F00
0100
3F00
3F80
ENDCHAR
STARTCHAR char12375
ENCODING 12375
SWIDTH 1000 0
DWIDTH 10 0
BBX 8 9 0 0
BITMAP
F5
15
1D
25
C5
3F
21
21
3F
ENDCHAR
STARTCHAR char12376
ENCODING 12376
SWIDTH 1000 0
DWIDTH 10 0
BBX 8 9 0 0
BITMAP
F5
15
1D
25
C5
21
3F
21
3F
ENDCHAR
STARTCHAR char12377
ENCODING 12377
SWIDTH 1000 0
DWIDTH 10 0
BBX 8 9 0 0
BITMAP
F5
15
1D
25
C5
09
08
1E
63
ENDCHAR
STARTCHAR char12378
ENCODING 12378
SWIDTH 1000 0
DWIDTH 10 0
BBX 9 9 0 0
BITMAP
F500
1500
1D00
2500
C500
1300
1200
3B00
6C80
ENDCHAR
STARTCHAR char12379
ENCODING 12379
SWIDTH 1000 0
DWIDTH 10 0
BBX 8 9 0 0
BITMAP
F5
15
1D
25
C5
0F
11
11
1F
ENDCHAR
STARTCHAR char12380
ENCODING 12380
SWIDTH 1000 0
DWIDTH 10 0
BBX 8 9 0 0
BITMAP
01
F9
0F
09
1F
31
61
81
01
ENDCHAR
STARTCHAR char12381
ENCODING 12381
SWIDTH 1000 0
DWIDTH 10 0
BBX 8 9 0 0
BITMAP
F9
0F
19
27
E1
01
7F
01
01
ENDCHAR
STARTCHAR char12382
ENCODING 12382
SWIDTH 1000 0
DWIDTH 10 0
BBX 8 9 0 0
BITMAP
F9
0F
19
27
E1
01
7F
11
11
ENDCHAR
STARTCHAR char12383
ENCODING 12383
SWIDTH 1000 0
DWIDTH 10 0
BBX 8 9 0 0
BITMAP
F9
0F
19
27
61
81
61
20
3F
ENDCHAR
STARTCHAR char12384
ENCODING 12384
SWIDTH 1000 0
DWIDTH 10 0
BBX 8 9 0 0
BITMAP
F9
0F
19
27
E1
01
7F
20
3F
ENDCHAR
STARTCHAR char12385
ENCODING 12385
SWIDTH 1000 0
DWIDTH 10 0
BBX 8 9 0 0
BITMAP
F9
0F
19
27
E1
3F
01
3F
3F
ENDCHAR
STARTCHAR char12386
ENCODING 12386
SWIDTH 1000 0
DWIDTH 10 0
BBX 8 9 0 0
BITMAP
F9
0F
19
27
E1
3F
21
21
3F
ENDCHAR
STARTCHAR char12387
ENCODING 12387
SWIDTH 1000 0
DWIDTH 10 0
BBX 8 9 0 0
BITMAP
F9
0F
19
27
E1
23
3F
21
3F
ENDCHAR
STARTCHAR char12388
ENCODING 12388
SWIDTH 1000 0
DWIDTH 10 0
BBX 8 9 0 0
BITMAP
F9
0F
19
27
E1
09
08
1E
63
ENDCHAR
STARTCHAR char12389
ENCODING 12389
SWIDTH 1000 0
DWIDTH 10 0
BBX 9 9 0 0
BITMAP
F900
0F00
1900
2700
E100
1200
1200
3F00
6980
ENDCHAR
STARTCHAR char12390
ENCODING 12390
SWIDTH 1000 0
DWIDTH 10 0
BBX 8 9 0 0
BITMAP
F9
0F
19
27
E1
0F
12
11
1E
ENDCHAR
STARTCHAR char12391
ENCODING 12391
SWIDTH 1000 0
DWIDTH 10 0
BBX 8 9 0 0
BITMAP
F9
0F
19
27
E1
3F
20
3F
3F
ENDCHAR
STARTCHAR char12392
ENCODING 12392
SWIDTH 1000 0
DWIDTH 10 0
BBX 8 9 0 0
BITMAP
05
F5
1D
15
1D
25
45
85
01
ENDCHAR
STARTCHAR char12393
ENCODING 12393
SWIDTH 1000 0
DWIDTH 10 0
BBX 8 9 0 0
BITMAP
F5
1D
15
3D
45
85
25
20
3F
ENDCHAR
STARTCHAR char12394
ENCODING 12394
SWIDTH 1000 0
DWIDTH 10 0
BBX 9 9 0 0
BITMAP
F500
1D00
1500
3D00
C500
3F00
0100
3F00
3F80
ENDCHAR
STARTCHAR char12395
ENCODING 12395
SWIDTH 1000 0
DWIDTH 10 0
BBX 8 9 0 0
BITMAP
F5
1D
15
3D
C5
21
3F
21
3F
ENDCHAR
STARTCHAR char12396
ENCODING 12396
SWIDTH 1000 0
DWIDTH 10 0
BBX 8 9 0 0
BITMAP
F5
1D
15
3D
C5
09
08
1E
63
ENDCHAR
STARTCHAR char12397
ENCODING 12397
SWIDTH 1000 0
DWIDTH 10 0
BBX 9 8 0 0
BITMAP
7F00
0100
0100
0900
0B00
0A00
0800
FF80
ENDCHAR
STARTCHAR char12398
ENCODING 12398
SWIDTH 1000 0
DWIDTH 10 0
BBX 9 9 0 0
BITMAP
7F00
0100
0B00
0A00
FF80
0000
7F00
0100
0100
ENDCHAR
STARTCHAR char12399
ENCODING 12399
SWIDTH 1000 0
DWIDTH 10 0
BBX 9 9 0 0
BITMAP
7F00
0100
0900
0A00
FF80
0000
6000
2000
3F00
ENDCHAR
STARTCHAR char12400
ENCODING 12400
SWIDTH 1000 0
DWIDTH 10 0
BBX 9 9 0 0
BITMAP
7F00
0100
0B00
0A00
FF80
0000
7F00
2000
3F00
ENDCHAR
STARTCHAR char12401
ENCODING 12401
SWIDTH 1000 0
DWIDTH 10 0
BBX 9 9 0 0
BITMAP
7F00
0900
0B00
FF80
0000
7F00
0100
7F00
3F00
ENDCHAR
STARTCHAR char12402
ENCODING 12402
SWIDTH 1000 0
DWIDTH 10 0
BBX 9 9 0 0
BITMAP
7F00
0900
0B00
FF80
0000
7F00
1500
7500
7F00
ENDCHAR
STARTCHAR char12403
ENCODING 12403
SWIDTH 1000 0
DWIDTH 10 0
BBX 9 9 0 0
BITMAP
7F00
0900
0B00
FF80
0000
7A00
1200
7700
7D80
ENDCHAR
STARTCHAR char12404
ENCODING 12404
SWIDTH 1000 0
DWIDTH 10 0
BBX 9 9 0 0
BITMAP
7F00
0900
0B00
FF80
0000
7B00
1780
7700
7F00
ENDCHAR
STARTCHAR char12405
ENCODING 12405
SWIDTH 1000 0
DWIDTH 10 0
BBX 9 9 0 0
BITMAP
7F00
0100
0B00
0A00
FF80
7F00
2100
2100
3F00
ENDCHAR
STARTCHAR char12406
ENCODING 12406
SWIDTH 1000 0
DWIDTH 10 0
BBX 9 9 0 0
BITMAP
7F00
0900
0B00
FF80
0000
6300
3F00
2100
3F00
ENDCHAR
STARTCHAR char12407
ENCODING 12407
SWIDTH 1000 0
DWIDTH 10 0
BBX 9 9 0 0
BITMAP
7F00
0100
0B00
0A00
FF80
0800
0800
1E00
6300
ENDCHAR
STARTCHAR char12408
ENCODING 12408
SWIDTH 1000 0
DWIDTH 10 0
BBX 9 9 0 0
BITMAP
7F00
0100
0B00
0A00
FF80
0000
3E00
2100
3E00
ENDCHAR
STARTCHAR char12409
ENCODING 12409
SWIDTH 1000 0
DWIDTH 10 0
BBX 9 9 0 0
BITMAP
7F00
0100
0B00
0A00
FF80
0000
7F00
1C00
7300
ENDCHAR
STARTCHAR char12410
ENCODING 12410
SWIDTH 1000 0
DWIDTH 10 0
BBX 10 9 0 0
BITMAP
FD00
0500
0500
2500
29C0
2700
F900
0100
0100
ENDCHAR
STARTCHAR char12411
ENCODING 12411
SWIDTH 1000 0
DWIDTH 10 0
BBX 10 9 0 0
BITMAP
F900
0900
2900
2FC0
F900
0100
7F00
0100
0100
ENDCHAR
STARTCHAR char12412
ENCODING 12412
SWIDTH 1000 0
DWIDTH 10 0
BBX 10 9 0 0
BITMAP
FD00
0500
2500
29C0
FF00
0100
6100
2000
3F00
ENDCHAR
STARTCHAR char12413
ENCODING 12413
SWIDTH 1000 0
DWIDTH 10 0
BBX 10 9 0 0
BITMAP
F900
0900
2900
2FC0
F900
3F00
0100
3F00
3F00
ENDCHAR
STARTCHAR char12414
ENCODING 12414
SWIDTH 1000 0
DWIDTH 10 0
BBX 10 9 0 0
BITMAP
F900
0900
2900
2FC0
F900
7F00
1500
7500
7F00
ENDCHAR
STARTCHAR char12577
ENCODING 12577
SWIDTH 1000 0
DWIDTH 10 0
BBX 10 9 0 0
BITMAP
F900
0900
2900
2FC0
F900
0100
3F00
2100
3F00
ENDCHAR
STARTCHAR char12578
ENCODING 12578
SWIDTH 1000 0
DWIDTH 10 0
BBX 10 9 0 0
BITMAP
F900
0900
2900
2FC0
F900
2300
3F00
2100
3F00
ENDCHAR
STARTCHAR char12579
ENCODING 12579
SWIDTH 1000 0
DWIDTH 10 0
BBX 10 9 0 0
BITMAP
F900
0900
2900
2FC0
F900
0900
0800
1E00
6300
ENDCHAR
STARTCHAR char12580
ENCODING 12580
SWIDTH 1000 0
DWIDTH 10 0
BBX 10 9 0 0
BITMAP
F900
0900
2900
2FC0
F900
0F00
1200
1100
1E00
ENDCHAR
STARTCHAR char12581
ENCODING 12581
SWIDTH 1000 0
DWIDTH 10 0
BBX 8 9 0 0
BITMAP
05
FD
0D
2D
37
2D
FD
05
01
ENDCHAR
STARTCHAR char12582
ENCODING 12582
SWIDTH 1000 0
DWIDTH 10 0
BBX 8 9 0 0
BITMAP
FD
0D
2D
37
FD
05
65
20
3F
ENDCHAR
STARTCHAR char12583
ENCODING 12583
SWIDTH 1000 0
DWIDTH 10 0
BBX 8 9 0 0
BITMAP
FD
0D
3F
3D
F5
3F
01
3F
3F
ENDCHAR
STARTCHAR char12584
ENCODING 12584
SWIDTH 1000 0
DWIDTH 10 0
BBX 8 9 0 0
BITMAP
FD
0D
3F
3D
F5
21
3F
21
3F
ENDCHAR
STARTCHAR char12585
ENCODING 12585
SWIDTH 1000 0
DWIDTH 10 0
BBX 9 9 0 0
BITMAP
FD00
0D00
3F00
3D00
F500
1300
1200
3B00
6C80
ENDCHAR
STARTCHAR char12586
ENCODING 12586
SWIDTH 1000 0
DWIDTH 10 0
BBX 8 9 0 0
BITMAP
FD
0D
3F
3D
F5
0F
11
11
1F
ENDCHAR
STARTCHAR char12587
ENCODING 12587
SWIDTH 1000 0
DWIDTH 10 0
BBX 8 9 0 0
BITMAP
FD
05
05
25
29
27
F9
01
01
ENDCHAR
STARTCHAR char12588
ENCODING 12588
SWIDTH 1000 0
DWIDTH 10 0
BBX 8 9 0 0
BITMAP
F9
09
29
2F
F9
01
7F
01
01
ENDCHAR
STARTCHAR char12589
ENCODING 12589
SWIDTH 1000 0
DWIDTH 10 0
BBX 8 9 0 0
BITMAP
FD
05
25
29
FF
01
61
20
3F
ENDCHAR
STARTCHAR char12590
ENCODING 12590
SWIDTH 1000 0
DWIDTH 10 0
BBX 8 9 0 0
BITMAP
F9
09
29
2F
F9
3F
01
3F
3F
ENDCHAR
STARTCHAR char12591
ENCODING 12591
SWIDTH 1000 0
DWIDTH 10 0
BBX 8 9 0 0
BITMAP
F9
09
29
2F
F9
01
3F
21
3F
ENDCHAR
STARTCHAR char12592
ENCODING 12592
SWIDTH 1000 0
DWIDTH 10 0
BBX 8 9 0 0
BITMAP
F9
09
29
2F
F9
23
3F
21
3F
ENDCHAR
STARTCHAR char12593
ENCODING 12593
SWIDTH 1000 0
DWIDTH 10 0
BBX 8 9 0 0
BITMAP
F9
09
29
2F
F9
09
08
1E
63
ENDCHAR
STARTCHAR char12594
ENCODING 12594
SWIDTH 1000 0
DWIDTH 10 0
BBX 8 9 0 0
BITMAP
F9
09
29
2F
F9
0F
12
11
1E
ENDCHAR
STARTCHAR char12595
ENCODING 12595
SWIDTH 1000 0
DWIDTH 10 0
BBX 9 8 0 0
BITMAP
7F00
0100
0100
2500
2700
2600
2400
FF80
ENDCHAR
STARTCHAR char12596
ENCODING 12596
SWIDTH 1000 0
DWIDTH 10 0
BBX 9 9 0 0
BITMAP
7F00
0100
1500
1600
FF80
0000
6000
2000
3F00
ENDCHAR
STARTCHAR char12597
ENCODING 12597
SWIDTH 1000 0
DWIDTH 10 0
BBX 9 9 0 0
BITMAP
7F00
0100
1700
1600
FF80
7F00
0100
7F00
3F00
ENDCHAR
STARTCHAR char12598
ENCODING 12598
SWIDTH 1000 0
DWIDTH 10 0
BBX 9 9 0 0
BITMAP
7F00
0100
1700
1600
FF80
6300
3F00
2100
3F00
ENDCHAR
STARTCHAR char12599
ENCODING 12599
SWIDTH 1000 0
DWIDTH 10 0
BBX 9 9 0 0
BITMAP
7F00
0100
2700
2600
FF80
0800
0800
1E00
6300
ENDCHAR
STARTCHAR char12600
ENCODING 12600
SWIDTH 1000 0
DWIDTH 10 0
BBX 9 9 0 0
BITMAP
7F00
0100
0100
0200
FF80
0800
0800
0800
0800
ENDCHAR
STARTCHAR char12601
ENCODING 12601
SWIDTH 1000 0
DWIDTH 10 0
BBX 9 9 0 0
BITMAP
7F00
0100
0200
FF80
0800
0800
7F00
0100
0100
ENDCHAR
STARTCHAR char12602
ENCODING 12602
SWIDTH 1000 0
DWIDTH 10 0
BBX 9 9 0 0
BITMAP
7F00
0100
0100
0200
FF80
0800
6800
2000
3F00
ENDCHAR
STARTCHAR char12603
ENCODING 12603
SWIDTH 1000 0
DWIDTH 10 0
BBX 9 9 0 0
BITMAP
7F00
0100
0200
FF80
0800
0800
7F00
2000
3F00
ENDCHAR
STARTCHAR char12604
ENCODING 12604
SWIDTH 1000 0
DWIDTH 10 0
BBX 9 9 0 0
BITMAP
7F00
0100
0200
FF80
0800
7F00
0100
7F00
3F00
ENDCHAR
STARTCHAR char12605
ENCODING 12605
SWIDTH 1000 0
DWIDTH 10 0
BBX 9 9 0 0
BITMAP
7F00
0100
0200
FF80
0800
7F00
1100
7100
7D00
ENDCHAR
STARTCHAR char12606
ENCODING 12606
SWIDTH 1000 0
DWIDTH 10 0
BBX 9 9 0 0
BITMAP
7F00
0100
0200
FF80
0800
7F00
1500
7500
7F00
ENDCHAR
STARTCHAR char12607
ENCODING 12607
SWIDTH 1000 0
DWIDTH 10 0
BBX 9 9 0 0
BITMAP
7F00
0100
0200
FF80
0800
7B00
1780
7700
7F00
ENDCHAR
STARTCHAR char12608
ENCODING 12608
SWIDTH 1000 0
DWIDTH 10 0
BBX 9 9 0 0
BITMAP
7F00
0100
0200
FF80
0800
7F00
2100
2100
3F00
ENDCHAR
STARTCHAR char12609
ENCODING 12609
SWIDTH 1000 0
DWIDTH 10 0
BBX 9 9 0 0
BITMAP
7F00
0100
0200
FF80
0800
6B00
3F00
2100
3F00
ENDCHAR
STARTCHAR char12610
ENCODING 12610
SWIDTH 1000 0
DWIDTH 10 0
BBX 9 9 0 0
BITMAP
7F00
0100
0200
FF80
0800
0800
0800
1E00
6300
ENDCHAR
STARTCHAR char12611
ENCODING 12611
SWIDTH 1000 0
DWIDTH 10 0
BBX 9 9 0 0
BITMAP
7F00
0100
0200
FF80
0800
0800
3E00
2100
3E00
ENDCHAR
STARTCHAR char12612
ENCODING 12612
SWIDTH 1000 0
DWIDTH 10 0
BBX 9 9 0 0
BITMAP
7F00
0100
0200
FF80
0800
0800
7F00
1C00
7300
ENDCHAR
STARTCHAR char12613
ENCODING 12613
SWIDTH 1000 0
DWIDTH 10 0
BBX 8 9 0 0
BITMAP
7D
05
05
09
FF
11
17
11
11
ENDCHAR
STARTCHAR char12614
ENCODING 12614
SWIDTH 1000 0
DWIDTH 10 0
BBX 8 9 0 0
BITMAP
7D
05
09
FF
17
11
7F
01
01
ENDCHAR
STARTCHAR char12615
ENCODING 12615
SWIDTH 1000 0
DWIDTH 10 0
BBX 8 9 0 0
BITMAP
FD
05
0D
FF
11
17
61
20
3F
ENDCHAR
STARTCHAR char12616
ENCODING 12616
SWIDTH 1000 0
DWIDTH 10 0
BBX 8 9 0 0
BITMAP
7D
05
09
FF
17
3F
01
3F
3F
ENDCHAR
STARTCHAR char12617
ENCODING 12617
SWIDTH 1000 0
DWIDTH 10 0
BBX 9 9 0 0
BITMAP
7D00
0500
0900
FF00
1700
1100
1300
3B00
6C80
ENDCHAR
STARTCHAR char12618
ENCODING 12618
SWIDTH 1000 0
DWIDTH 10 0
BBX 8 9 0 0
BITMAP
7D
05
09
FF
17
1F
12
11
1E
ENDCHAR
STARTCHAR char12619
ENCODING 12619
SWIDTH 1000 0
DWIDTH 10 0
BBX 8 9 0 0
BITMAP
05
F5
15
15
FD
2D
25
25
01
ENDCHAR
STARTCHAR char12620
ENCODING 12620
SWIDTH 1000 0
DWIDTH 10 0
BBX 8 9 0 0
BITMAP
F5
15
15
FD
3D
09
08
1E
63
ENDCHAR
STARTCHAR char12621
ENCODING 12621
SWIDTH 1000 0
DWIDTH 10 0
BBX 8 9 0 0
BITMAP
7D
05
05
09
FF
11
11
11
11
ENDCHAR
STARTCHAR char12622
ENCODING 12622
SWIDTH 1000 0
DWIDTH 10 0
BBX 8 9 0 0
BITMAP
7D
05
0F
FD
11
11
7F
01
01
ENDCHAR
STARTCHAR char12623
ENCODING 12623
SWIDTH 1000 0
DWIDTH 10 0
BBX 8 9 0 0
BITMAP
FD
05
0D
0F
F9
11
71
20
3F
ENDCHAR
STARTCHAR char12624
ENCODING 12624
SWIDTH 1000 0
DWIDTH 10 0
BBX 8 9 0 0
BITMAP
7D
05
0F
FD
11
3F
01
3F
3F
ENDCHAR
STARTCHAR char12625
ENCODING 12625
SWIDTH 1000 0
DWIDTH 10 0
BBX 8 9 0 0
BITMAP
7D
05
0F
FD
11
11
3F
21
3F
ENDCHAR
STARTCHAR char12626
ENCODING 12626
SWIDTH 1000 0
DWIDTH 10 0
BBX 8 9 0 0
BITMAP
7D
05
0F
FD
11
33
3F
21
3F
ENDCHAR
STARTCHAR char12627
ENCODING 12627
SWIDTH 1000 0
DWIDTH 10 0
BBX 8 9 0 0
BITMAP
7D
05
0F
FD
11
19
08
1E
63
ENDCHAR
STARTCHAR char12628
ENCODING 12628
SWIDTH 1000 0
DWIDTH 10 0
BBX 9 9 0 0
BITMAP
7F00
0100
0100
0200
FF80
2200
2200
2200
2200
ENDCHAR
STARTCHAR char12629
ENCODING 12629
SWIDTH 1000 0
DWIDTH 10 0
BBX 9 9 0 0
BITMAP
7F00
0100
0100
0200
FF80
1200
7200
2000
3F00
ENDCHAR
STARTCHAR char12630
ENCODING 12630
SWIDTH 1000 0
DWIDTH 10 0
BBX 9 9 0 0
BITMAP
7F00
0100
0200
FF80
1200
7F00
0100
7F00
3F00
ENDCHAR
STARTCHAR char12631
ENCODING 12631
SWIDTH 1000 0
DWIDTH 10 0
BBX 9 7 0 1
BITMAP
7F00
0100
0100
0100
0300
0200
FF80
ENDCHAR
STARTCHAR char12632
ENCODING 12632
SWIDTH 1000 0
DWIDTH 10 0
BBX 9 9 0 0
BITMAP
7F00
0100
0300
FF80
0000
0000
7F00
0100
0100
ENDCHAR
STARTCHAR char12633
ENCODING 12633
SWIDTH 1000 0
DWIDTH 10 0
BBX 9 9 0 0
BITMAP
7F00
0100
0100
0200
FF80
0000
6000
2000
3F00
ENDCHAR
STARTCHAR char12634
ENCODING 12634
SWIDTH 1000 0
DWIDTH 10 0
BBX 9 9 0 0
BITMAP
7F00
0100
0300
FF80
0000
0000
7F00
2000
3F00
ENDCHAR
STARTCHAR char12635
ENCODING 12635
SWIDTH 1000 0
DWIDTH 10 0
BBX 9 9 0 0
BITMAP
7F00
0100
0300
FF80
0000
7F00
0100
7F00
3F00
ENDCHAR
STARTCHAR char12636
ENCODING 12636
SWIDTH 1000 0
DWIDTH 10 0
BBX 9 9 0 0
BITMAP
7F00
0100
0300
FF80
0000
7F00
1100
7100
7D00
ENDCHAR
STARTCHAR char12637
ENCODING 12637
SWIDTH 1000 0
DWIDTH 10 0
BBX 9 9 0 0
BITMAP
7F00
0100
0300
FF80
0000
7F00
2100
2100
3F00
ENDCHAR
STARTCHAR char12638
ENCODING 12638
SWIDTH 1000 0
DWIDTH 10 0
BBX 9 9 0 0
BITMAP
7F00
0100
0300
FF80
0000
6300
3F00
2100
3F00
ENDCHAR
STARTCHAR char12639
ENCODING 12639
SWIDTH 1000 0
DWIDTH 10 0
BBX 9 9 0 0
BITMAP
7F00
0100
0300
FF80
0000
0800
0800
1E00
6300
ENDCHAR
STARTCHAR char12640
ENCODING 12640
SWIDTH 1000 0
DWIDTH 10 0
BBX 9 9 0 0
BITMAP
7F00
0100
0300
FF80
0000
0000
3E00
2100
3E00
ENDCHAR
STARTCHAR char12641
ENCODING 12641
SWIDTH 1000 0
DWIDTH 10 0
BBX 8 9 0 0
BITMAP
FD
05
05
05
09
FF
01
01
01
ENDCHAR
STARTCHAR char12642
ENCODING 12642
SWIDTH 1000 0
DWIDTH 10 0
BBX 8 9 0 0
BITMAP
01
F9
09
09
11
31
61
81
01
ENDCHAR
STARTCHAR char12643
ENCODING 12643
SWIDTH 1000 0
DWIDTH 10 0
BBX 8 9 0 0
BITMAP
F9
09
19
21
E1
01
7F
01
01
ENDCHAR
STARTCHAR char12644
ENCODING 12644
SWIDTH 1000 0
DWIDTH 10 0
BBX 8 9 0 0
BITMAP
F9
09
19
21
61
81
61
20
3F
ENDCHAR
STARTCHAR char12645
ENCODING 12645
SWIDTH 1000 0
DWIDTH 10 0
BBX 8 9 0 0
BITMAP
F9
09
19
21
E1
01
7F
20
3F
ENDCHAR
STARTCHAR char12646
ENCODING 12646
SWIDTH 1000 0
DWIDTH 10 0
BBX 8 9 0 0
BITMAP
F9
09
19
21
E1
3F
01
3F
3F
ENDCHAR
STARTCHAR char12647
ENCODING 12647
SWIDTH 1000 0
DWIDTH 10 0
BBX 8 9 0 0
BITMAP
F9
09
19
21
E1
7F
15
75
7F
ENDCHAR
STARTCHAR char12648
ENCODING 12648
SWIDTH 1000 0
DWIDTH 10 0
BBX 8 9 0 0
BITMAP
F9
09
19
21
E1
3F
21
21
3F
ENDCHAR
STARTCHAR char12649
ENCODING 12649
SWIDTH 1000 0
DWIDTH 10 0
BBX 8 9 0 0
BITMAP
F9
09
19
21
E1
23
3F
21
3F
ENDCHAR
STARTCHAR char12650
ENCODING 12650
SWIDTH 1000 0
DWIDTH 10 0
BBX 8 9 0 0
BITMAP
F9
09
19
21
E1
09
08
1E
63
ENDCHAR
STARTCHAR char12651
ENCODING 12651
SWIDTH 1000 0
DWIDTH 10 0
BBX 8 9 0 0
BITMAP
F9
09
19
21
E1
0F
12
11
1E
ENDCHAR
STARTCHAR char12652
ENCODING 12652
SWIDTH 1000 0
DWIDTH 10 0
BBX 8 9 0 0
BITMAP
F9
09
19
21
E1
01
3F
1C
73
ENDCHAR
STARTCHAR char12653
ENCODING 12653
SWIDTH 1000 0
DWIDTH 10 0
BBX 8 9 0 0
BITMAP
F9
09
19
21
E1
7F
26
12
7F
ENDCHAR
STARTCHAR char12654
ENCODING 12654
SWIDTH 1000 0
DWIDTH 10 0
BBX 10 9 0 0
BITMAP
0100
FD00
2500
2500
69C0
4900
9100
2100
0100
ENDCHAR
STARTCHAR char12655
ENCODING 12655
SWIDTH 1000 0
DWIDTH 10 0
BBX 10 9 0 0
BITMAP
FD00
2500
69C0
D900
3100
0100
7F00
0100
0100
ENDCHAR
STARTCHAR char12656
ENCODING 12656
SWIDTH 1000 0
DWIDTH 10 0
BBX 10 9 0 0
BITMAP
FD00
2500
69C0
D900
3100
0100
7F00
1100
1100
ENDCHAR
STARTCHAR char12657
ENCODING 12657
SWIDTH 1000 0
DWIDTH 10 0
BBX 10 9 0 0
BITMAP
FD00
2500
2900
49C0
9100
2100
6100
2000
3F00
ENDCHAR
STARTCHAR char12658
ENCODING 12658
SWIDTH 1000 0
DWIDTH 10 0
BBX 10 9 0 0
BITMAP
FD00
2500
69C0
D900
3100
3F00
0100
3F00
3F00
ENDCHAR
STARTCHAR char12659
ENCODING 12659
SWIDTH 1000 0
DWIDTH 10 0
BBX 10 9 0 0
BITMAP
FD00
2500
69C0
D900
3100
7F00
1500
7500
7F00
ENDCHAR
STARTCHAR char12660
ENCODING 12660
SWIDTH 1000 0
DWIDTH 10 0
BBX 10 9 0 0
BITMAP
FD00
2500
69C0
D900
3100
3F00
2100
2100
3F00
ENDCHAR
STARTCHAR char12661
ENCODING 12661
SWIDTH 1000 0
DWIDTH 10 0
BBX 10 9 0 0
BITMAP
FD00
2500
69C0
D900
3100
2300
3F00
2100
3F00
ENDCHAR
STARTCHAR char12662
ENCODING 12662
SWIDTH 1000 0
DWIDTH 10 0
BBX 10 9 0 0
BITMAP
FD00
2500
69C0
D900
3100
0900
0800
1E00
6300
ENDCHAR
STARTCHAR char12663
ENCODING 12663
SWIDTH 1000 0
DWIDTH 10 0
BBX 10 9 0 0
BITMAP
FD00
2500
69C0
D900
3100
1200
1200
3F00
6980
ENDCHAR
STARTCHAR char12664
ENCODING 12664
SWIDTH 1000 0
DWIDTH 10 0
BBX 10 9 0 0
BITMAP
FD00
2500
69C0
D900
3100
0F00
1200
1100
1E00
ENDCHAR
STARTCHAR char12665
ENCODING 12665
SWIDTH 1000 0
DWIDTH 10 0
BBX 10 9 0 0
BITMAP
FD00
2500
69C0
D900
3100
3F00
2000
3F00
3F00
ENDCHAR
STARTCHAR char12666
ENCODING 12666
SWIDTH 1000 0
DWIDTH 10 0
BBX 8 9 0 0
BITMAP
05
FD
2D
6D
57
D5
A5
45
01
ENDCHAR
STARTCHAR char12667
ENCODING 12667
SWIDTH 1000 0
DWIDTH 10 0
BBX 8 9 0 0
BITMAP
FD
2D
57
B5
65
01
3F
01
01
ENDCHAR
STARTCHAR char12668
ENCODING 12668
SWIDTH 1000 0
DWIDTH 10 0
BBX 8 9 0 0
BITMAP
FD
2D
75
57
B5
45
25
20
3F
ENDCHAR
STARTCHAR char12669
ENCODING 12669
SWIDTH 1000 0
DWIDTH 10 0
BBX 9 9 0 0
BITMAP
FD00
2D00
5700
B500
6500
3F00
0100
3F00
3F80
ENDCHAR
STARTCHAR char12670
ENCODING 12670
SWIDTH 1000 0
DWIDTH 10 0
BBX 8 9 0 0
BITMAP
FD
2D
57
B5
65
3F
21
21
3F
ENDCHAR
STARTCHAR char12833
ENCODING 12833
SWIDTH 1000 0
DWIDTH 10 0
BBX 8 9 0 0
BITMAP
FD
2D
57
B5
65
21
3F
21
3F
ENDCHAR
STARTCHAR char12834
ENCODING 12834
SWIDTH 1000 0
DWIDTH 10 0
BBX 8 9 0 0
BITMAP
FD
2D
57
B5
65
09
08
1E
63
ENDCHAR
STARTCHAR char12835
ENCODING 12835
SWIDTH 1000 0
DWIDTH 10 0
BBX 9 9 0 0
BITMAP
FD00
2D00
5700
B500
6500
1300
1200
3B00
6C80
ENDCHAR
STARTCHAR char12836
ENCODING 12836
SWIDTH 1000 0
DWIDTH 10 0
BBX 8 9 0 0
BITMAP
FD
2D
57
B5
65
0F
11
11
1F
ENDCHAR
STARTCHAR char12837
ENCODING 12837
SWIDTH 1000 0
DWIDTH 10 0
BBX 10 9 0 0
BITMAP
0100
FD00
25C0
2500
6900
49C0
9100
2100
0100
ENDCHAR
STARTCHAR char12838
ENCODING 12838
SWIDTH 1000 0
DWIDTH 10 0
BBX 10 9 0 0
BITMAP
FD00
25C0
6900
D9C0
3100
0100
7F00
0100
0100
ENDCHAR
STARTCHAR char12839
ENCODING 12839
SWIDTH 1000 0
DWIDTH 10 0
BBX 10 9 0 0
BITMAP
FD00
25C0
6900
D9C0
3100
3F00
0100
3F00
3F00
ENDCHAR
STARTCHAR char12840
ENCODING 12840
SWIDTH 1000 0
DWIDTH 10 0
BBX 8 9 0 0
BITMAP
01
FD
25
27
69
49
91
21
01
ENDCHAR
STARTCHAR char12841
ENCODING 12841
SWIDTH 1000 0
DWIDTH 10 0
BBX 8 9 0 0
BITMAP
FD
25
6F
D9
31
01
7F
01
01
ENDCHAR
STARTCHAR char12842
ENCODING 12842
SWIDTH 1000 0
DWIDTH 10 0
BBX 8 9 0 0
BITMAP
FD
25
6F
D9
31
01
7F
11
11
ENDCHAR
STARTCHAR char12843
ENCODING 12843
SWIDTH 1000 0
DWIDTH 10 0
BBX 8 9 0 0
BITMAP
FD
25
2F
49
91
21
61
20
3F
ENDCHAR
STARTCHAR char12844
ENCODING 12844
SWIDTH 1000 0
DWIDTH 10 0
BBX 8 9 0 0
BITMAP
FD
25
6F
D9
31
3F
01
3F
3F
ENDCHAR
STARTCHAR char12845
ENCODING 12845
SWIDTH 1000 0
DWIDTH 10 0
BBX 8 9 0 0
BITMAP
FD
25
6F
D9
31
3F
21
21
3F
ENDCHAR
STARTCHAR char12846
ENCODING 12846
SWIDTH 1000 0
DWIDTH 10 0
BBX 8 9 0 0
BITMAP
FD
25
6F
D9
31
23
3F
21
3F
ENDCHAR
STARTCHAR char12847
ENCODING 12847
SWIDTH 1000 0
DWIDTH 10 0
BBX 8 9 0 0
BITMAP
FD
25
6F
D9
31
09
08
1E
63
ENDCHAR
STARTCHAR char12848
ENCODING 12848
SWIDTH 1000 0
DWIDTH 10 0
BBX 9 9 0 0
BITMAP
FD00
2500
6F00
D900
3100
1200
1200
3F00
6980
ENDCHAR
STARTCHAR char12849
ENCODING 12849
SWIDTH 1000 0
DWIDTH 10 0
BBX 8 9 0 0
BITMAP
FD
25
6F
D9
31
0F
12
11
1E
ENDCHAR
STARTCHAR char12850
ENCODING 12850
SWIDTH 1000 0
DWIDTH 10 0
BBX 8 9 0 0
BITMAP
05
FD
2D
6D
55
D5
A5
45
01
ENDCHAR
STARTCHAR char12851
ENCODING 12851
SWIDTH 1000 0
DWIDTH 10 0
BBX 8 9 0 0
BITMAP
FD
2D
5D
B5
65
01
3F
01
01
ENDCHAR
STARTCHAR char12852
ENCODING 12852
SWIDTH 1000 0
DWIDTH 10 0
BBX 8 9 0 0
BITMAP
FD
2D
7D
55
B5
45
25
20
3F
ENDCHAR
STARTCHAR char12853
ENCODING 12853
SWIDTH 1000 0
DWIDTH 10 0
BBX 8 9 0 0
BITMAP
FD
2D
5D
B5
65
3F
21
21
3F
ENDCHAR
STARTCHAR char12854
ENCODING 12854
SWIDTH 1000 0
DWIDTH 10 0
BBX 8 9 0 0
BITMAP
FD
2D
5D
B5
65
09
08
1E
63
ENDCHAR
STARTCHAR char12855
ENCODING 12855
SWIDTH 1000 0
DWIDTH 10 0
BBX 8 9 0 0
BITMAP
FD
2D
5D
B5
65
0F
11
11
1F
ENDCHAR
STARTCHAR char12856
ENCODING 12856
SWIDTH 1000 0
DWIDTH 10 0
BBX 8 9 0 0
BITMAP
01
FD
27
25
6F
49
91
21
01
ENDCHAR
STARTCHAR char12857
ENCODING 12857
SWIDTH 1000 0
DWIDTH 10 0
BBX 8 9 0 0
BITMAP
FD
27
29
4F
91
21
61
20
3F
ENDCHAR
STARTCHAR char12858
ENCODING 12858
SWIDTH 1000 0
DWIDTH 10 0
BBX 8 9 0 0
BITMAP
FD
27
69
DF
31
3F
01
3F
3F
ENDCHAR
STARTCHAR char12859
ENCODING 12859
SWIDTH 1000 0
DWIDTH 10 0
BBX 8 9 0 0
BITMAP
FD
27
69
DF
31
09
08
1E
63
ENDCHAR
STARTCHAR char12860
ENCODING 12860
SWIDTH 1000 0
DWIDTH 10 0
BBX 9 9 0 0
BITMAP
FD00
2700
6900
DF00
3100
1200
1200
3F00
6980
ENDCHAR
STARTCHAR char12861
ENCODING 12861
SWIDTH 1000 0
DWIDTH 10 0
BBX 8 9 0 0
BITMAP
FD
27
69
DF
31
3F
20
3F
3F
ENDCHAR
STARTCHAR char12862
ENCODING 12862
SWIDTH 1000 0
DWIDTH 10 0
BBX 8 9 0 0
BITMAP
07
FB
2F
6B
5F
D3
A3
43
01
ENDCHAR
STARTCHAR char12863
ENCODING 12863
SWIDTH 1000 0
DWIDTH 10 0
BBX 9 8 0 0
BITMAP
7F00
1100
1100
1100
3900
2A00
0800
FF80
ENDCHAR
STARTCHAR char12864
ENCODING 12864
SWIDTH 1000 0
DWIDTH 10 0
BBX 9 9 0 0
BITMAP
7F00
1100
3B00
2A00
FF80
0000
7F00
0100
0100
ENDCHAR
STARTCHAR char12865
ENCODING 12865
SWIDTH 1000 0
DWIDTH 10 0
BBX 9 9 0 0
BITMAP
7F00
1100
3B00
2A00
FF80
0000
6000
2000
3F00
ENDCHAR
STARTCHAR char12866
ENCODING 12866
SWIDTH 1000 0
DWIDTH 10 0
BBX 9 9 0 0
BITMAP
7F00
1100
3B00
2A00
FF80
0600
4F00
4600
7F00
ENDCHAR
STARTCHAR char12867
ENCODING 12867
SWIDTH 1000 0
DWIDTH 10 0
BBX 9 9 0 0
BITMAP
7F00
1100
3B00
2A00
FF80
7F00
0100
7F00
3F00
ENDCHAR
STARTCHAR char12868
ENCODING 12868
SWIDTH 1000 0
DWIDTH 10 0
BBX 9 9 0 0
BITMAP
7F00
1100
3B00
2A00
FF80
7F00
2100
2100
3F00
ENDCHAR
STARTCHAR char12869
ENCODING 12869
SWIDTH 1000 0
DWIDTH 10 0
BBX 9 9 0 0
BITMAP
7F00
1100
3B00
2A00
FF80
6300
3F00
2100
3F00
ENDCHAR
STARTCHAR char12870
ENCODING 12870
SWIDTH 1000 0
DWIDTH 10 0
BBX 9 9 0 0
BITMAP
7F00
1100
3B00
2A00
FF80
0800
0800
1E00
6300
ENDCHAR
STARTCHAR char12871
ENCODING 12871
SWIDTH 1000 0
DWIDTH 10 0
BBX 9 9 0 0
BITMAP
7F00
1100
3B00
2A00
FF80
0000
3E00
2100
3E00
ENDCHAR
STARTCHAR char12872
ENCODING 12872
SWIDTH 1000 0
DWIDTH 10 0
BBX 9 9 0 0
BITMAP
7F00
1100
3B00
2A00
FF80
0000
7F00
1C00
7300
ENDCHAR
STARTCHAR char12873
ENCODING 12873
SWIDTH 1000 0
DWIDTH 10 0
BBX 9 9 0 0
BITMAP
7F00
1100
3B00
2A00
FF80
1E00
7F00
0C00
7780
ENDCHAR
STARTCHAR char12874
ENCODING 12874
SWIDTH 1000 0
DWIDTH 10 0
BBX 10 9 0 0
BITMAP
FD00
2500
2500
3500
55C0
1700
FD00
0100
0100
ENDCHAR
STARTCHAR char12875
ENCODING 12875
SWIDTH 1000 0
DWIDTH 10 0
BBX 10 9 0 0
BITMAP
FD00
2500
3500
37C0
FD00
0100
7F00
0100
0100
ENDCHAR
STARTCHAR char12876
ENCODING 12876
SWIDTH 1000 0
DWIDTH 10 0
BBX 10 9 0 0
BITMAP
FD00
2500
3500
37C0
FD00
3F00
0100
3F00
3F00
ENDCHAR
STARTCHAR char12877
ENCODING 12877
SWIDTH 1000 0
DWIDTH 10 0
BBX 10 9 0 0
BITMAP
FD00
2500
3500
37C0
FD00
1200
1200
3F00
6980
ENDCHAR
STARTCHAR char12878
ENCODING 12878
SWIDTH 1000 0
DWIDTH 10 0
BBX 10 9 0 0
BITMAP
FD00
2500
3500
37C0
FD00
0F00
1200
1100
1E00
ENDCHAR
STARTCHAR char12879
ENCODING 12879
SWIDTH 1000 0
DWIDTH 10 0
BBX 8 9 0 0
BITMAP
05
FD
4D
4D
77
7D
F5
05
05
ENDCHAR
STARTCHAR char12880
ENCODING 12880
SWIDTH 1000 0
DWIDTH 10 0
BBX 8 9 0 0
BITMAP
FD
4D
7F
65
F5
01
3F
01
01
ENDCHAR
STARTCHAR char12881
ENCODING 12881
SWIDTH 1000 0
DWIDTH 10 0
BBX 8 9 0 0
BITMAP
FD
4D
7F
65
F5
0F
11
11
1F
ENDCHAR
STARTCHAR char12882
ENCODING 12882
SWIDTH 1000 0
DWIDTH 10 0
BBX 8 9 0 0
BITMAP
FD
25
25
35
55
17
FD
01
01
ENDCHAR
STARTCHAR char12883
ENCODING 12883
SWIDTH 1000 0
DWIDTH 10 0
BBX 8 9 0 0
BITMAP
FD
25
35
35
FF
01
61
20
3F
ENDCHAR
STARTCHAR char12884
ENCODING 12884
SWIDTH 1000 0
DWIDTH 10 0
BBX 8 9 0 0
BITMAP
FD
25
35
37
FD
3F
01
3F
3F
ENDCHAR
STARTCHAR char12885
ENCODING 12885
SWIDTH 1000 0
DWIDTH 10 0
BBX 8 9 0 0
BITMAP
FD
25
35
37
FD
01
3F
21
3F
ENDCHAR
STARTCHAR char12886
ENCODING 12886
SWIDTH 1000 0
DWIDTH 10 0
BBX 8 9 0 0
BITMAP
FD
25
35
37
FD
23
3F
21
3F
ENDCHAR
STARTCHAR char12887
ENCODING 12887
SWIDTH 1000 0
DWIDTH 10 0
BBX 8 9 0 0
BITMAP
FD
25
35
37
FD
0F
12
11
1E
ENDCHAR
STARTCHAR char12888
ENCODING 12888
SWIDTH 1000 0
DWIDTH 10 0
BBX 9 8 0 0
BITMAP
7F00
1100
1100
1100
3500
3600
1400
FF80
ENDCHAR
STARTCHAR char12889
ENCODING 12889
SWIDTH 1000 0
DWIDTH 10 0
BBX 9 9 0 0
BITMAP
7F00
1100
1100
1100
FF80
0800
0800
0800
0800
ENDCHAR
STARTCHAR char12890
ENCODING 12890
SWIDTH 1000 0
DWIDTH 10 0
BBX 9 9 0 0
BITMAP
7F00
1100
2200
FF80
0800
0800
7F00
0100
0100
ENDCHAR
STARTCHAR char12891
ENCODING 12891
SWIDTH 1000 0
DWIDTH 10 0
BBX 9 9 0 0
BITMAP
7F00
1100
3300
2200
FF80
0800
6800
2000
3F00
ENDCHAR
STARTCHAR char12892
ENCODING 12892
SWIDTH 1000 0
DWIDTH 10 0
BBX 9 9 0 0
BITMAP
7F00
1100
2200
FF80
0800
7F00
0100
7F00
3F00
ENDCHAR
STARTCHAR char12893
ENCODING 12893
SWIDTH 1000 0
DWIDTH 10 0
BBX 9 9 0 0
BITMAP
7F00
1100
2200
FF80
0800
7B00
1780
7700
7F00
ENDCHAR
STARTCHAR char12894
ENCODING 12894
SWIDTH 1000 0
DWIDTH 10 0
BBX 9 9 0 0
BITMAP
7F00
1100
2200
FF80
0800
7F00
2100
2100
3F00
ENDCHAR
STARTCHAR char12895
ENCODING 12895
SWIDTH 1000 0
DWIDTH 10 0
BBX 9 9 0 0
BITMAP
7F00
1100
2200
FF80
0800
6B00
3F00
2100
3F00
ENDCHAR
STARTCHAR char12896
ENCODING 12896
SWIDTH 1000 0
DWIDTH 10 0
BBX 9 9 0 0
BITMAP
7F00
1100
2200
FF80
0800
0800
0800
1E00
6300
ENDCHAR
STARTCHAR char12897
ENCODING 12897
SWIDTH 1000 0
DWIDTH 10 0
BBX 9 9 0 0
BITMAP
7F00
1100
2200
FF80
0800
0800
3E00
2100
3E00
ENDCHAR
STARTCHAR char12898
ENCODING 12898
SWIDTH 1000 0
DWIDTH 10 0
BBX 9 9 0 0
BITMAP
7F00
1100
2200
FF80
0800
0800
7F00
1C00
7300
ENDCHAR
STARTCHAR char12899
ENCODING 12899
SWIDTH 1000 0
DWIDTH 10 0
BBX 8 9 0 0
BITMAP
FD
25
25
6D
FF
11
17
11
11
ENDCHAR
STARTCHAR char12900
ENCODING 12900
SWIDTH 1000 0
DWIDTH 10 0
BBX 8 9 0 0
BITMAP
FD
25
25
FF
17
3F
01
3F
3F
ENDCHAR
STARTCHAR char12901
ENCODING 12901
SWIDTH 1000 0
DWIDTH 10 0
BBX 9 9 0 0
BITMAP
FD00
2500
2500
FF00
1700
1100
1300
3B00
6C80
ENDCHAR
STARTCHAR char12902
ENCODING 12902
SWIDTH 1000 0
DWIDTH 10 0
BBX 8 9 0 0
BITMAP
FD
25
25
FF
17
1F
12
11
1E
ENDCHAR
STARTCHAR char12903
ENCODING 12903
SWIDTH 1000 0
DWIDTH 10 0
BBX 8 9 0 0
BITMAP
05
FD
4D
5D
FD
2D
25
25
01
ENDCHAR
STARTCHAR char12904
ENCODING 12904
SWIDTH 1000 0
DWIDTH 10 0
BBX 8 9 0 0
BITMAP
FD
4D
55
FD
3D
01
3F
01
01
ENDCHAR
STARTCHAR char12905
ENCODING 12905
SWIDTH 1000 0
DWIDTH 10 0
BBX 8 9 0 0
BITMAP
FD
4D
4D
55
FD
2D
65
20
3F
ENDCHAR
STARTCHAR char12906
ENCODING 12906
SWIDTH 1000 0
DWIDTH 10 0
BBX 8 9 0 0
BITMAP
FD
4D
55
FD
3D
3F
01
3F
3F
ENDCHAR
STARTCHAR char12907
ENCODING 12907
SWIDTH 1000 0
DWIDTH 10 0
BBX 8 9 0 0
BITMAP
FD
4D
55
FD
3D
01
3F
21
3F
ENDCHAR
STARTCHAR char12908
ENCODING 12908
SWIDTH 1000 0
DWIDTH 10 0
BBX 8 9 0 0
BITMAP
FD
4D
55
FD
3D
21
3F
21
3F
ENDCHAR
STARTCHAR char12909
ENCODING 12909
SWIDTH 1000 0
DWIDTH 10 0
BBX 9 9 0 0
BITMAP
FD00
4D00
5500
FD00
3D00
0100
1300
3B00
6C80
ENDCHAR
STARTCHAR char12910
ENCODING 12910
SWIDTH 1000 0
DWIDTH 10 0
BBX 8 9 0 0
BITMAP
FD
25
25
6D
FF
11
11
11
11
ENDCHAR
STARTCHAR char12911
ENCODING 12911
SWIDTH 1000 0
DWIDTH 10 0
BBX 8 9 0 0
BITMAP
FD
25
25
2F
F9
11
71
20
3F
ENDCHAR
STARTCHAR char12912
ENCODING 12912
SWIDTH 1000 0
DWIDTH 10 0
BBX 8 9 0 0
BITMAP
FD
25
27
FD
11
3F
01
3F
3F
ENDCHAR
STARTCHAR char12913
ENCODING 12913
SWIDTH 1000 0
DWIDTH 10 0
BBX 8 9 0 0
BITMAP
FD
25
27
FD
11
11
3F
21
3F
ENDCHAR
STARTCHAR char12914
ENCODING 12914
SWIDTH 1000 0
DWIDTH 10 0
BBX 8 9 0 0
BITMAP
FD
25
27
FD
11
33
3F
21
3F
ENDCHAR
STARTCHAR char12915
ENCODING 12915
SWIDTH 1000 0
DWIDTH 10 0
BBX 9 9 0 0
BITMAP
7F00
1100
1100
1100
FF80
2200
2200
2200
2200
ENDCHAR
STARTCHAR char12916
ENCODING 12916
SWIDTH 1000 0
DWIDTH 10 0
BBX 9 7 0 1
BITMAP
7F00
1100
1100
1100
3100
2200
FF80
ENDCHAR
STARTCHAR char12917
ENCODING 12917
SWIDTH 1000 0
DWIDTH 10 0
BBX 9 9 0 0
BITMAP
7F00
1100
3300
FF80
0000
0000
7F00
0100
0100
ENDCHAR
STARTCHAR char12918
ENCODING 12918
SWIDTH 1000 0
DWIDTH 10 0
BBX 9 9 0 0
BITMAP
7F00
1100
3300
2200
FF80
0000
6000
2000
3F00
ENDCHAR
STARTCHAR char12919
ENCODING 12919
SWIDTH 1000 0
DWIDTH 10 0
BBX 9 9 0 0
BITMAP
7F00
1100
3300
FF80
0000
0600
4F00
4600
7F00
ENDCHAR
STARTCHAR char12920
ENCODING 12920
SWIDTH 1000 0
DWIDTH 10 0
BBX 9 9 0 0
BITMAP
7F00
1100
3300
FF80
0000
7F00
0100
7F00
3F00
ENDCHAR
STARTCHAR char12921
ENCODING 12921
SWIDTH 1000 0
DWIDTH 10 0
BBX 9 9 0 0
BITMAP
7F00
1100
3300
FF80
0000
7F00
1500
7500
7F00
ENDCHAR
STARTCHAR char12922
ENCODING 12922
SWIDTH 1000 0
DWIDTH 10 0
BBX 9 9 0 0
BITMAP
7F00
1100
3300
FF80
0000
7B00
1780
7700
7F00
ENDCHAR
STARTCHAR char12923
ENCODING 12923
SWIDTH 1000 0
DWIDTH 10 0
BBX 9 9 0 0
BITMAP
7F00
1100
3300
FF80
0000
7F00
2100
2100
3F00
ENDCHAR
STARTCHAR char12924
ENCODING 12924
SWIDTH 1000 0
DWIDTH 10 0
BBX 9 9 0 0
BITMAP
7F00
1100
3300
FF80
0000
6300
3F00
2100
3F00
ENDCHAR
STARTCHAR char12925
ENCODING 12925
SWIDTH 1000 0
DWIDTH 10 0
BBX 9 9 0 0
BITMAP
7F00
1100
3300
FF80
0000
0800
0800
1E00
6300
ENDCHAR
STARTCHAR char12926
ENCODING 12926
SWIDTH 1000 0
DWIDTH 10 0
BBX 9 9 0 0
BITMAP
7F00
1100
3300
FF80
0000
0000
3E00
2100
3E00
ENDCHAR
STARTCHAR char13089
ENCODING 13089
SWIDTH 1000 0
DWIDTH 10 0
BBX 9 9 0 0
BITMAP
7F00
1100
3300
FF80
0000
7F00
2000
3F00
3F00
ENDCHAR
STARTCHAR char13090
ENCODING 13090
SWIDTH 1000 0
DWIDTH 10 0
BBX 8 9 0 0
BITMAP
01
FD
25
25
69
49
91
21
01
ENDCHAR
STARTCHAR char13091
ENCODING 13091
SWIDTH 1000 0
DWIDTH 10 0
BBX 8 9 0 0
BITMAP
FD
25
69
D9
31
01
7F
01
01
ENDCHAR
STARTCHAR char13092
ENCODING 13092
SWIDTH 1000 0
DWIDTH 10 0
BBX 8 9 0 0
BITMAP
FD
25
29
49
91
21
61
20
3F
ENDCHAR
STARTCHAR char13093
ENCODING 13093
SWIDTH 1000 0
DWIDTH 10 0
BBX 8 9 0 0
BITMAP
FD
25
69
D9
31
3F
01
3F
3F
ENDCHAR
STARTCHAR char13094
ENCODING 13094
SWIDTH 1000 0
DWIDTH 10 0
BBX 8 9 0 0
BITMAP
FD
25
69
D9
31
3F
21
21
3F
ENDCHAR
STARTCHAR char13095
ENCODING 13095
SWIDTH 1000 0
DWIDTH 10 0
BBX 8 9 0 0
BITMAP
FD
25
69
D9
31
23
3F
21
3F
ENDCHAR
STARTCHAR char13096
ENCODING 13096
SWIDTH 1000 0
DWIDTH 10 0
BBX 8 9 0 0
BITMAP
FD
25
69
D9
31
09
08
1E
63
ENDCHAR
STARTCHAR char13097
ENCODING 13097
SWIDTH 1000 0
DWIDTH 10 0
BBX 8 9 0 0
BITMAP
FD
25
69
D9
31
0F
12
11
1E
ENDCHAR
STARTCHAR char13098
ENCODING 13098
SWIDTH 1000 0
DWIDTH 10 0
BBX 10 9 0 0
BITMAP
0100
C100
4100
4100
41C0
4F00
7100
0100
0100
ENDCHAR
STARTCHAR char13099
ENCODING 13099
SWIDTH 1000 0
DWIDTH 10 0
BBX 10 9 0 0
BITMAP
C100
4100
41C0
4F00
7900
0100
7F00
0100
0100
ENDCHAR
STARTCHAR char13100
ENCODING 13100
SWIDTH 1000 0
DWIDTH 10 0
BBX 10 9 0 0
BITMAP
C100
4100
41C0
4F00
7900
0100
7F00
1100
1100
ENDCHAR
STARTCHAR char13101
ENCODING 13101
SWIDTH 1000 0
DWIDTH 10 0
BBX 10 9 0 0
BITMAP
C100
4100
4100
43C0
7D00
0100
6100
2000
3F00
ENDCHAR
STARTCHAR char13102
ENCODING 13102
SWIDTH 1000 0
DWIDTH 10 0
BBX 10 9 0 0
BITMAP
C100
4100
41C0
4F00
7900
0100
7F00
2000
3F00
ENDCHAR
STARTCHAR char13103
ENCODING 13103
SWIDTH 1000 0
DWIDTH 10 0
BBX 10 9 0 0
BITMAP
C100
4100
41C0
4F00
7900
3F00
0100
3F00
3F00
ENDCHAR
STARTCHAR char13104
ENCODING 13104
SWIDTH 1000 0
DWIDTH 10 0
BBX 10 9 0 0
BITMAP
C100
4100
41C0
4F00
7900
7F00
1100
7100
7900
ENDCHAR
STARTCHAR char13105
ENCODING 13105
SWIDTH 1000 0
DWIDTH 10 0
BBX 10 9 0 0
BITMAP
C100
4100
41C0
4F00
7900
7F00
1500
7500
7F00
ENDCHAR
STARTCHAR char13106
ENCODING 13106
SWIDTH 1000 0
DWIDTH 10 0
BBX 10 9 0 0
BITMAP
C100
4100
41C0
4F00
7900
3F00
2100
2100
3F00
ENDCHAR
STARTCHAR char13107
ENCODING 13107
SWIDTH 1000 0
DWIDTH 10 0
BBX 10 9 0 0
BITMAP
C100
4100
41C0
4F00
7900
2300
3F00
2100
3F00
ENDCHAR
STARTCHAR char13108
ENCODING 13108
SWIDTH 1000 0
DWIDTH 10 0
BBX 10 9 0 0
BITMAP
C100
4100
41C0
4F00
7900
0900
0800
1E00
6300
ENDCHAR
STARTCHAR char13109
ENCODING 13109
SWIDTH 1000 0
DWIDTH 10 0
BBX 10 9 0 0
BITMAP
C100
4100
41C0
4F00
7900
1200
1200
3F00
6980
ENDCHAR
STARTCHAR char13110
ENCODING 13110
SWIDTH 1000 0
DWIDTH 10 0
BBX 10 9 0 0
BITMAP
C100
4100
41C0
4F00
7900
0F00
1200
1100
1E00
ENDCHAR
STARTCHAR char13111
ENCODING 13111
SWIDTH 1000 0
DWIDTH 10 0
BBX 10 9 0 0
BITMAP
C100
4100
41C0
4F00
7900
0100
3F00
1C00
7300
ENDCHAR
STARTCHAR char13112
ENCODING 13112
SWIDTH 1000 0
DWIDTH 10 0
BBX 10 9 0 0
BITMAP
C100
4100
41C0
4F00
7900
1C00
7F00
0C00
7700
ENDCHAR
STARTCHAR char13113
ENCODING 13113
SWIDTH 1000 0
DWIDTH 10 0
BBX 10 9 0 0
BITMAP
C100
4100
41C0
4F00
7900
3F00
2000
3F00
3F00
ENDCHAR
STARTCHAR char13114
ENCODING 13114
SWIDTH 1000 0
DWIDTH 10 0
BBX 10 9 0 0
BITMAP
C100
4100
41C0
4F00
7900
1E00
7F80
3F00
3E00
ENDCHAR
STARTCHAR char13115
ENCODING 13115
SWIDTH 1000 0
DWIDTH 10 0
BBX 8 9 0 0
BITMAP
05
C5
45
45
47
5D
75
05
01
ENDCHAR
STARTCHAR char13116
ENCODING 13116
SWIDTH 1000 0
DWIDTH 10 0
BBX 8 9 0 0
BITMAP
C5
45
47
5D
75
01
3F
01
01
ENDCHAR
STARTCHAR char13117
ENCODING 13117
SWIDTH 1000 0
DWIDTH 10 0
BBX 8 9 0 0
BITMAP
C5
45
45
47
7D
05
25
20
3F
ENDCHAR
STARTCHAR char13118
ENCODING 13118
SWIDTH 1000 0
DWIDTH 10 0
BBX 9 9 0 0
BITMAP
C500
4500
4700
5D00
7500
3F00
0100
3F00
3F80
ENDCHAR
STARTCHAR char13119
ENCODING 13119
SWIDTH 1000 0
DWIDTH 10 0
BBX 8 9 0 0
BITMAP
C5
45
47
5D
75
3F
21
21
3F
ENDCHAR
STARTCHAR char13120
ENCODING 13120
SWIDTH 1000 0
DWIDTH 10 0
BBX 8 9 0 0
BITMAP
C5
45
47
5D
75
21
3F
21
3F
ENDCHAR
STARTCHAR char13121
ENCODING 13121
SWIDTH 1000 0
DWIDTH 10 0
BBX 8 9 0 0
BITMAP
C5
45
47
5D
75
09
08
1E
63
ENDCHAR
STARTCHAR char13122
ENCODING 13122
SWIDTH 1000 0
DWIDTH 10 0
BBX 9 9 0 0
BITMAP
C500
4500
4700
5D00
7500
1300
1200
3B00
6C80
ENDCHAR
STARTCHAR char13123
ENCODING 13123
SWIDTH 1000 0
DWIDTH 10 0
BBX 8 9 0 0
BITMAP
C5
45
47
5D
75
0F
11
11
1F
ENDCHAR
STARTCHAR char13124
ENCODING 13124
SWIDTH 1000 0
DWIDTH 10 0
BBX 10 9 0 0
BITMAP
0100
C100
41C0
4100
4100
4FC0
7100
0100
0100
ENDCHAR
STARTCHAR char13125
ENCODING 13125
SWIDTH 1000 0
DWIDTH 10 0
BBX 10 9 0 0
BITMAP
C100
41C0
4100
4FC0
7900
0100
7F00
0100
0100
ENDCHAR
STARTCHAR char13126
ENCODING 13126
SWIDTH 1000 0
DWIDTH 10 0
BBX 10 9 0 0
BITMAP
C100
4100
41C0
4300
7DC0
0100
6100
2000
3F00
ENDCHAR
STARTCHAR char13127
ENCODING 13127
SWIDTH 1000 0
DWIDTH 10 0
BBX 10 9 0 0
BITMAP
C100
41C0
4100
4FC0
7900
3F00
0100
3F00
3F00
ENDCHAR
STARTCHAR char13128
ENCODING 13128
SWIDTH 1000 0
DWIDTH 10 0
BBX 10 9 0 0
BITMAP
C100
41C0
4100
4FC0
7900
3F00
2100
2100
3F00
ENDCHAR
STARTCHAR char13129
ENCODING 13129
SWIDTH 1000 0
DWIDTH 10 0
BBX 10 9 0 0
BITMAP
C100
41C0
4100
4FC0
7900
0F00
1200
1100
1E00
ENDCHAR
STARTCHAR char13130
ENCODING 13130
SWIDTH 1000 0
DWIDTH 10 0
BBX 8 9 0 0
BITMAP
01
C1
4F
41
41
4D
79
01
01
ENDCHAR
STARTCHAR char13131
ENCODING 13131
SWIDTH 1000 0
DWIDTH 10 0
BBX 8 9 0 0
BITMAP
C1
4F
41
45
79
01
7F
01
01
ENDCHAR
STARTCHAR char13132
ENCODING 13132
SWIDTH 1000 0
DWIDTH 10 0
BBX 9 9 0 0
BITMAP
C100
4F00
4100
4500
7900
0200
7200
1700
1D80
ENDCHAR
STARTCHAR char13133
ENCODING 13133
SWIDTH 1000 0
DWIDTH 10 0
BBX 8 9 0 0
BITMAP
C1
4F
41
41
7D
01
61
20
3F
ENDCHAR
STARTCHAR char13134
ENCODING 13134
SWIDTH 1000 0
DWIDTH 10 0
BBX 8 9 0 0
BITMAP
C1
4F
41
45
79
3F
01
3F
3F
ENDCHAR
STARTCHAR char13135
ENCODING 13135
SWIDTH 1000 0
DWIDTH 10 0
BBX 8 9 0 0
BITMAP
C1
4F
41
45
79
7F
15
75
7F
ENDCHAR
STARTCHAR char13136
ENCODING 13136
SWIDTH 1000 0
DWIDTH 10 0
BBX 8 9 0 0
BITMAP
C1
4F
41
45
79
7F
17
75
7F
ENDCHAR
STARTCHAR char13137
ENCODING 13137
SWIDTH 1000 0
DWIDTH 10 0
BBX 8 9 0 0
BITMAP
C1
4F
41
45
79
3F
21
21
3F
ENDCHAR
STARTCHAR char13138
ENCODING 13138
SWIDTH 1000 0
DWIDTH 10 0
BBX 8 9 0 0
BITMAP
C1
4F
41
45
79
23
3F
21
3F
ENDCHAR
STARTCHAR char13139
ENCODING 13139
SWIDTH 1000 0
DWIDTH 10 0
BBX 8 9 0 0
BITMAP
C1
4F
41
45
79
09
08
1E
63
ENDCHAR
STARTCHAR char13140
ENCODING 13140
SWIDTH 1000 0
DWIDTH 10 0
BBX 9 9 0 0
BITMAP
C100
4F00
4100
4500
7900
1200
1200
3F00
6980
ENDCHAR
STARTCHAR char13141
ENCODING 13141
SWIDTH 1000 0
DWIDTH 10 0
BBX 8 9 0 0
BITMAP
C1
4F
41
45
79
0F
12
11
1E
ENDCHAR
STARTCHAR char13142
ENCODING 13142
SWIDTH 1000 0
DWIDTH 10 0
BBX 9 9 0 0
BITMAP
C100
4F00
4100
4500
7900
1E00
7F80
3F00
3F00
ENDCHAR
STARTCHAR char13143
ENCODING 13143
SWIDTH 1000 0
DWIDTH 10 0
BBX 8 9 0 0
BITMAP
05
C5
45
5D
45
4D
75
05
01
ENDCHAR
STARTCHAR char13144
ENCODING 13144
SWIDTH 1000 0
DWIDTH 10 0
BBX 8 9 0 0
BITMAP
C5
45
5D
45
7D
01
3F
01
01
ENDCHAR
STARTCHAR char13145
ENCODING 13145
SWIDTH 1000 0
DWIDTH 10 0
BBX 8 9 0 0
BITMAP
C5
45
5D
45
7D
05
25
20
3F
ENDCHAR
STARTCHAR char13146
ENCODING 13146
SWIDTH 1000 0
DWIDTH 10 0
BBX 9 9 0 0
BITMAP
C500
4500
5D00
4500
7D00
3F00
0100
3F00
3F80
ENDCHAR
STARTCHAR char13147
ENCODING 13147
SWIDTH 1000 0
DWIDTH 10 0
BBX 8 9 0 0
BITMAP
C5
45
5D
45
7D
3F
21
21
3F
ENDCHAR
STARTCHAR char13148
ENCODING 13148
SWIDTH 1000 0
DWIDTH 10 0
BBX 8 9 0 0
BITMAP
C5
45
5D
45
7D
21
3F
21
3F
ENDCHAR
STARTCHAR char13149
ENCODING 13149
SWIDTH 1000 0
DWIDTH 10 0
BBX 8 9 0 0
BITMAP
C5
45
5D
45
7D
09
08
1E
63
ENDCHAR
STARTCHAR char13150
ENCODING 13150
SWIDTH 1000 0
DWIDTH 10 0
BBX 9 9 0 0
BITMAP
C500
4500
5D00
4500
7D00
1300
1200
3B00
6C80
ENDCHAR
STARTCHAR char13151
ENCODING 13151
SWIDTH 1000 0
DWIDTH 10 0
BBX 8 9 0 0
BITMAP
C5
45
5D
45
7D
0F
11
11
1F
ENDCHAR
STARTCHAR char13152
ENCODING 13152
SWIDTH 1000 0
DWIDTH 10 0
BBX 8 9 0 0
BITMAP
01
CF
41
4F
41
4D
79
01
01
ENDCHAR
STARTCHAR char13153
ENCODING 13153
SWIDTH 1000 0
DWIDTH 10 0
BBX 8 9 0 0
BITMAP
C1
4F
4F
45
79
01
7F
01
01
ENDCHAR
STARTCHAR char13154
ENCODING 13154
SWIDTH 1000 0
DWIDTH 10 0
BBX 8 9 0 0
BITMAP
C1
4F
4F
41
7D
01
61
20
3F
ENDCHAR
STARTCHAR char13155
ENCODING 13155
SWIDTH 1000 0
DWIDTH 10 0
BBX 8 9 0 0
BITMAP
C1
4F
4F
45
79
3F
01
3F
3F
ENDCHAR
STARTCHAR char13156
ENCODING 13156
SWIDTH 1000 0
DWIDTH 10 0
BBX 8 9 0 0
BITMAP
C1
4F
4F
45
79
3F
21
21
3F
ENDCHAR
STARTCHAR char13157
ENCODING 13157
SWIDTH 1000 0
DWIDTH 10 0
BBX 8 9 0 0
BITMAP
C1
4F
4F
45
79
23
3F
21
3F
ENDCHAR
STARTCHAR char13158
ENCODING 13158
SWIDTH 1000 0
DWIDTH 10 0
BBX 9 9 0 0
BITMAP
C100
4F00
4F00
4500
7900
1200
1200
3F00
6980
ENDCHAR
STARTCHAR char13159
ENCODING 13159
SWIDTH 1000 0
DWIDTH 10 0
BBX 8 9 0 0
BITMAP
C1
4F
4F
45
79
0F
12
11
1E
ENDCHAR
STARTCHAR char13160
ENCODING 13160
SWIDTH 1000 0
DWIDTH 10 0
BBX 8 9 0 0
BITMAP
C1
4F
4F
45
79
3F
01
3F
01
ENDCHAR
STARTCHAR char13161
ENCODING 13161
SWIDTH 1000 0
DWIDTH 10 0
BBX 8 9 0 0
BITMAP
05
C5
5D
45
5D
4D
75
05
01
ENDCHAR
STARTCHAR char13162
ENCODING 13162
SWIDTH 1000 0
DWIDTH 10 0
BBX 8 9 0 0
BITMAP
C5
5D
45
5D
7D
05
25
20
3F
ENDCHAR
STARTCHAR char13163
ENCODING 13163
SWIDTH 1000 0
DWIDTH 10 0
BBX 9 8 0 0
BITMAP
6000
2000
2000
3F00
0800
0800
0800
FF80
ENDCHAR
STARTCHAR char13164
ENCODING 13164
SWIDTH 1000 0
DWIDTH 10 0
BBX 9 9 0 0
BITMAP
6000
2000
3F00
0800
FF80
0000
7F00
0100
0100
ENDCHAR
STARTCHAR char13165
ENCODING 13165
SWIDTH 1000 0
DWIDTH 10 0
BBX 9 9 0 0
BITMAP
6000
2000
3F00
0800
FF80
0000
6000
2000
3F00
ENDCHAR
STARTCHAR char13166
ENCODING 13166
SWIDTH 1000 0
DWIDTH 10 0
BBX 9 9 0 0
BITMAP
6000
2000
3F00
0800
FF80
7F00
0100
7F00
3F00
ENDCHAR
STARTCHAR char13167
ENCODING 13167
SWIDTH 1000 0
DWIDTH 10 0
BBX 9 9 0 0
BITMAP
6000
2000
3F00
0800
FF80
7F00
1500
7500
7F00
ENDCHAR
STARTCHAR char13168
ENCODING 13168
SWIDTH 1000 0
DWIDTH 10 0
BBX 9 9 0 0
BITMAP
6000
2000
3F00
0800
FF80
7F00
2100
2100
3F00
ENDCHAR
STARTCHAR char13169
ENCODING 13169
SWIDTH 1000 0
DWIDTH 10 0
BBX 9 9 0 0
BITMAP
6000
2000
3F00
0800
FF80
6300
3F00
2100
3F00
ENDCHAR
STARTCHAR char13170
ENCODING 13170
SWIDTH 1000 0
DWIDTH 10 0
BBX 9 9 0 0
BITMAP
6000
2000
3F00
0800
FF80
0800
0800
1E00
6300
ENDCHAR
STARTCHAR char13171
ENCODING 13171
SWIDTH 1000 0
DWIDTH 10 0
BBX 9 9 0 0
BITMAP
6000
2000
3F00
0800
FF80
0000
3E00
2100
3E00
ENDCHAR
STARTCHAR char13172
ENCODING 13172
SWIDTH 1000 0
DWIDTH 10 0
BBX 9 9 0 0
BITMAP
6000
2000
3F00
0800
FF80
0000
7F00
3600
7F00
ENDCHAR
STARTCHAR char13173
ENCODING 13173
SWIDTH 1000 0
DWIDTH 10 0
BBX 9 9 0 0
BITMAP
6000
2000
3F00
0800
FF80
3E00
FF80
3E00
3E00
ENDCHAR
STARTCHAR char13174
ENCODING 13174
SWIDTH 1000 0
DWIDTH 10 0
BBX 10 9 0 0
BITMAP
C100
4100
4100
7D00
11C0
1700
FD00
0100
0100
ENDCHAR
STARTCHAR char13175
ENCODING 13175
SWIDTH 1000 0
DWIDTH 10 0
BBX 10 9 0 0
BITMAP
C100
4100
7D00
11C0
FF00
0100
6100
2000
3F00
ENDCHAR
STARTCHAR char13176
ENCODING 13176
SWIDTH 1000 0
DWIDTH 10 0
BBX 10 9 0 0
BITMAP
4100
4100
7D00
17C0
FD00
3F00
0100
3F00
3F00
ENDCHAR
STARTCHAR char13177
ENCODING 13177
SWIDTH 1000 0
DWIDTH 10 0
BBX 10 9 0 0
BITMAP
4100
4100
7D00
17C0
FD00
1200
1200
3F00
6980
ENDCHAR
STARTCHAR char13178
ENCODING 13178
SWIDTH 1000 0
DWIDTH 10 0
BBX 8 9 0 0
BITMAP
C1
41
41
7D
11
17
FD
01
01
ENDCHAR
STARTCHAR char13179
ENCODING 13179
SWIDTH 1000 0
DWIDTH 10 0
BBX 8 9 0 0
BITMAP
C1
41
7D
11
FF
01
61
20
3F
ENDCHAR
STARTCHAR char13180
ENCODING 13180
SWIDTH 1000 0
DWIDTH 10 0
BBX 8 9 0 0
BITMAP
41
41
7D
17
FD
3F
01
3F
3F
ENDCHAR
STARTCHAR char13181
ENCODING 13181
SWIDTH 1000 0
DWIDTH 10 0
BBX 8 9 0 0
BITMAP
41
41
7D
17
FD
01
3F
21
3F
ENDCHAR
STARTCHAR char13182
ENCODING 13182
SWIDTH 1000 0
DWIDTH 10 0
BBX 8 9 0 0
BITMAP
41
41
7D
17
FD
23
3F
21
3F
ENDCHAR
STARTCHAR char13345
ENCODING 13345
SWIDTH 1000 0
DWIDTH 10 0
BBX 8 9 0 0
BITMAP
41
41
7D
17
FD
09
08
1E
63
ENDCHAR
STARTCHAR char13346
ENCODING 13346
SWIDTH 1000 0
DWIDTH 10 0
BBX 9 8 0 0
BITMAP
6000
2000
2000
3F00
1200
1200
1200
FF80
ENDCHAR
STARTCHAR char13347
ENCODING 13347
SWIDTH 1000 0
DWIDTH 10 0
BBX 9 9 0 0
BITMAP
6000
2000
3F00
1200
FF80
0000
7F00
0100
0100
ENDCHAR
STARTCHAR char13348
ENCODING 13348
SWIDTH 1000 0
DWIDTH 10 0
BBX 9 9 0 0
BITMAP
6000
2000
3F00
1200
FF80
0000
6000
2000
3F00
ENDCHAR
STARTCHAR char13349
ENCODING 13349
SWIDTH 1000 0
DWIDTH 10 0
BBX 9 9 0 0
BITMAP
6000
2000
3F00
1200
FF80
7F00
0100
7F00
3F00
ENDCHAR
STARTCHAR char13350
ENCODING 13350
SWIDTH 1000 0
DWIDTH 10 0
BBX 9 9 0 0
BITMAP
6000
2000
3F00
1200
FF80
6300
3F00
2100
3F00
ENDCHAR
STARTCHAR char13351
ENCODING 13351
SWIDTH 1000 0
DWIDTH 10 0
BBX 9 9 0 0
BITMAP
6000
2000
3F00
1200
FF80
0800
0800
1E00
6300
ENDCHAR
STARTCHAR char13352
ENCODING 13352
SWIDTH 1000 0
DWIDTH 10 0
BBX 9 9 0 0
BITMAP
6000
2000
3F00
1200
FF80
0000
3E00
2100
3E00
ENDCHAR
ENDFONT
